<svg width="20" height="16" viewBox="0 0 20 16" fill="none" xmlns="http://www.w3.org/2000/svg">
<path d="M5.13068 10.25C3.54865 10.25 2.31818 8.99023 2.31818 7.4375C2.31818 5.88477 3.54865 4.625 5.13068 4.625C6.68341 4.625 7.94318 5.88477 7.94318 7.4375C7.94318 9.01953 6.68341 10.25 5.13068 10.25ZM5.13068 5.5625C4.07599 5.5625 3.25568 6.41211 3.25568 7.4375C3.25568 8.49219 4.07599 9.3125 5.13068 9.3125C6.15607 9.3125 7.00568 8.49219 7.00568 7.4375C7.00568 6.41211 6.15607 5.5625 5.13068 5.5625ZM6.06818 11.1875C8.11896 11.1875 9.81818 12.8867 9.81818 14.9375C9.81818 15.4648 9.37873 15.875 8.88068 15.875H1.38068C0.853334 15.875 0.443178 15.4648 0.443178 14.9375C0.443178 12.8867 2.1131 11.1875 4.19318 11.1875H6.06818ZM1.38068 14.9375H8.88068C8.88068 13.4141 7.59162 12.125 6.06818 12.125H4.19318C2.64044 12.125 1.38068 13.4141 1.38068 14.9375ZM17.7869 0.875C18.5486 0.875 19.1932 1.51953 19.1932 2.28125V11.6562C19.1932 12.4473 18.5486 13.0625 17.7869 13.0625H10.7557C10.492 13.0625 10.2869 12.8574 10.2869 12.5938C10.2869 12.3594 10.492 12.125 10.7557 12.125H11.6932V10.7188C11.6932 9.95703 12.3084 9.3125 13.0994 9.3125H15.9119C16.6736 9.3125 17.3182 9.95703 17.3182 10.7188V12.125H17.7869C18.0213 12.125 18.2557 11.9199 18.2557 11.6562V2.28125C18.2557 2.04688 18.0213 1.8125 17.7869 1.8125H6.53693C6.27326 1.8125 6.06818 2.04688 6.06818 2.28125V3.21875C6.06818 3.48242 5.8338 3.6875 5.59943 3.6875C5.33576 3.6875 5.13068 3.48242 5.13068 3.21875V2.28125C5.13068 1.51953 5.74591 0.875 6.53693 0.875H17.7869ZM16.3807 12.125V10.7188C16.3807 10.4844 16.1463 10.25 15.9119 10.25H13.0994C12.8358 10.25 12.6307 10.4844 12.6307 10.7188V12.125H16.3807Z" fill="black" fill-opacity="0.4"/>
</svg>
