<svg width="215" height="276" viewBox="0 0 215 276" fill="none" xmlns="http://www.w3.org/2000/svg">
<g clip-path="url(#clip0_1067_2218)">
<path d="M107.047 269.655C166.167 269.655 214.093 265.729 214.093 260.887C214.093 256.044 166.167 252.119 107.047 252.119C47.9265 252.119 0 256.044 0 260.887C0 265.729 47.9265 269.655 107.047 269.655Z" fill="#272727"/>
<path d="M155.946 30.6109C155.946 30.6109 114.561 13.9209 94.9473 21.7275C94.9473 21.7275 70.7481 8.76777 64.7369 41.2248C64.7369 41.2248 41.4625 54.7229 47.204 73.0665C47.204 73.0665 44.0828 96.9478 57.9934 101.14C71.9041 105.331 112.095 114.599 112.095 114.599L144.193 128.789L154.02 120.406C154.02 120.406 166.543 121.867 167.815 110.484L166.62 98.1015L174.442 97.4093L179.105 73.2203L180.878 53.8384L155.946 30.6109Z" fill="#E7A382"/>
<path d="M75.9885 44.3782C79.6878 42.1093 82.8861 38.8405 85.1981 34.9949C84.3503 37.0715 83.2329 39.0712 81.8842 40.9171C80.5355 42.763 78.9171 44.4551 77.1445 45.9549L75.9885 44.3782Z" fill="black"/>
<path d="M57.9163 97.2555C56.7603 95.9864 55.7199 94.6789 54.7565 93.256C54.2556 92.5638 53.8317 91.8716 53.4079 91.1409C52.984 90.4487 52.5216 89.7181 52.1362 88.9874C51.327 87.526 50.5564 86.0263 49.9784 84.4111C49.4004 82.7959 49.015 81.1039 48.9379 79.4118C48.9379 79.1811 48.8994 78.9888 48.8994 78.758L48.9379 78.1043C48.9379 77.6813 49.015 77.2583 49.0535 76.8352C49.0921 76.4122 49.2077 75.9892 49.2848 75.5662L49.4389 74.9509L49.6316 74.3356C50.171 72.7204 51.0188 71.2206 52.0206 69.9131C53.0611 68.6056 54.2556 67.4519 55.5657 66.4136C56.8759 65.4137 58.2631 64.5293 59.7274 63.7986C58.3016 64.6062 56.9915 65.5676 55.7584 66.6443C54.5639 67.7211 53.4464 68.9517 52.5601 70.2592C50.749 72.9127 49.8628 76.1046 50.2481 79.2195C50.4408 80.7578 50.8646 82.2576 51.5197 83.7189C52.1748 85.1418 52.9455 86.5262 53.8317 87.8722C54.2941 88.5259 54.718 89.1797 55.2189 89.8334C55.6814 90.4872 56.1823 91.1409 56.6832 91.7562C57.6466 92.9868 58.7255 94.179 59.8815 95.2557L57.9163 97.2555Z" fill="black"/>
<path d="M58.8799 96.3324C57.9165 95.3325 56.5293 93.8327 55.1421 91.7946C52.4833 87.9489 48.8226 82.642 49.6318 76.6044C50.6722 68.7593 48.0134 69.7207 49.1308 69.1439L44.0829 68.5286C44.0829 68.5286 36.0679 94.948 54.6797 101.062C73.2915 107.177 58.8799 96.3324 58.8799 96.3324Z" fill="#F3F7FC"/>
<path d="M58.8798 96.3324C57.9935 95.4479 57.1458 94.4865 56.3751 93.4867C55.6044 92.4868 54.8723 91.4485 54.1787 90.4102C52.7529 88.3336 51.4042 86.18 50.518 83.7957C49.5931 81.4499 49.1307 78.8349 49.4775 76.2968C49.5931 75.0662 49.6317 73.7971 49.5546 72.5665C49.5161 71.9512 49.4005 71.3359 49.2078 70.7975C49.1307 70.5283 48.9766 70.2592 48.861 70.0669C48.7839 69.9515 48.7069 69.8746 48.5913 69.7208C48.5527 69.6823 48.5527 69.6823 48.5142 69.6054C48.4757 69.5669 48.4371 69.49 48.4371 69.3362C48.4371 69.1824 48.5142 69.067 48.5527 68.9901C48.5913 68.9132 48.6298 68.8747 48.6683 68.8747C48.7839 68.7978 48.861 68.7594 48.9381 68.7209L49.0922 69.6054C48.2445 69.5669 47.3967 69.4516 46.549 69.3747C45.7012 69.2977 44.8535 69.1824 44.0057 69.1055L44.6223 68.6825C44.0058 70.8745 43.5433 73.1818 43.2736 75.4507C42.9653 77.7581 42.8112 80.0655 42.8883 82.3728C42.9653 84.6802 43.2351 86.9876 43.8516 89.1796C44.4682 91.3716 45.4315 93.5251 46.8187 95.3326C48.2059 97.1785 50.017 98.6783 52.0593 99.755C53.0997 100.293 54.1787 100.716 55.2576 101.101C56.3751 101.486 57.4926 101.832 58.61 102.139C59.7275 102.447 60.8835 102.716 62.0395 102.832C62.3478 102.87 62.6176 102.87 62.9258 102.87C63.1956 102.87 63.5038 102.832 63.7736 102.678C63.8892 102.601 64.0048 102.524 64.0818 102.409C64.1589 102.293 64.1589 102.139 64.1589 101.986C64.1204 101.716 64.0048 101.447 63.8506 101.178C63.2341 100.178 62.3863 99.332 61.5386 98.5629C60.6909 97.7938 59.8046 97.0247 58.8798 96.3324ZM58.8798 96.3324C59.8046 97.0631 60.6909 97.7938 61.5771 98.6014C62.4249 99.4089 63.2726 100.217 63.8892 101.216C64.0433 101.486 64.1589 101.755 64.1974 102.024C64.1974 102.178 64.1974 102.332 64.1204 102.447C64.0433 102.601 63.9277 102.678 63.7736 102.755C63.5038 102.908 63.1956 102.947 62.9258 102.947C62.6176 102.985 62.3478 102.947 62.0395 102.947C60.8835 102.87 59.7275 102.601 58.5715 102.332C57.4155 102.024 56.298 101.716 55.1805 101.37C54.0631 101.024 52.9456 100.64 51.8666 100.101C49.7473 99.0628 47.8206 97.563 46.3178 95.7171C44.815 93.8712 43.736 91.6792 43.0424 89.4103C42.3488 87.1414 41.9635 84.7571 41.8479 82.4113C41.7323 80.027 41.8479 77.6812 42.1176 75.3354C42.4259 72.9895 42.8497 70.6822 43.4663 68.3748L43.5819 67.9133L44.0828 67.9902C44.9306 68.1056 45.7783 68.221 46.626 68.3363C47.4738 68.4517 48.3215 68.5671 49.1307 68.7209L50.518 68.9516L49.2849 69.5669L49.1307 69.6439C49.1307 69.6439 49.1307 69.6439 49.1693 69.6054C49.2078 69.5669 49.2463 69.49 49.2463 69.3747C49.2078 69.1824 49.1693 69.2208 49.2078 69.2208C49.2849 69.2977 49.4005 69.49 49.5161 69.6439C49.7087 69.9515 49.8243 70.2976 49.9399 70.6053C50.1326 71.259 50.1711 71.9128 50.1711 72.5665C50.2097 73.874 50.0555 75.1431 49.8629 76.3737C49.439 78.8349 49.7858 81.373 50.6721 83.7573C51.5198 86.1031 52.83 88.2951 54.2172 90.4102C54.9108 91.4485 55.6429 92.4868 56.4136 93.4867C57.1843 94.4481 57.9935 95.4095 58.8798 96.3324Z" fill="black"/>
<path d="M94.0994 21.9198C94.0994 21.9198 76.7977 -1.50002 55.7968 19.6509C34.796 40.8018 41.9247 68.7979 41.9247 68.7979C41.9247 68.7979 45.9707 80.4886 50.2095 82.7959C50.2095 82.7959 47.0882 73.4511 54.9876 59.6068C54.9876 59.6068 68.1276 56.415 76.2968 46.6471C84.466 36.8792 84.7742 25.8039 84.7742 25.8039L94.0994 21.9198Z" fill="#F3F7FC"/>
<path d="M94.0995 21.9197C92.7893 20.343 91.3636 18.9201 89.7837 17.6126C88.2424 16.3051 86.5854 15.1514 84.8129 14.1516C83.0403 13.1902 81.1907 12.3826 79.2255 11.8826C77.2988 11.3827 75.295 11.152 73.2913 11.2673C71.326 11.3827 69.3223 11.7673 67.4727 12.4595C65.6231 13.1517 63.8505 14.0746 62.1936 15.1899C58.8796 17.4203 56.0282 20.2661 53.4464 23.3426C52.1362 24.8808 51.0188 26.5345 49.9013 28.1881C48.8609 29.8801 47.8205 31.6107 46.9727 33.4181C45.2002 36.9945 43.9286 40.8402 43.0423 44.7242C42.6184 46.6855 42.3101 48.6468 42.0789 50.6465C41.8477 52.6462 41.7321 54.6459 41.7321 56.6456C41.6936 58.6454 41.8092 60.6451 41.9633 62.6448C42.0789 63.6447 42.156 64.6445 42.3101 65.6059C42.4643 66.5673 42.6184 67.6056 42.8496 68.4901L42.8111 68.4132C43.2735 69.6823 43.7744 70.9513 44.3139 72.1819C44.8534 73.4125 45.4314 74.6431 46.0479 75.8353C46.6645 77.0274 47.3195 78.1811 48.0902 79.2579C48.8223 80.3346 49.7086 81.3345 50.672 81.8729L49.3233 82.9881C49.2462 82.6805 49.1691 82.4497 49.1306 82.1421C49.0535 81.8729 49.015 81.6037 48.9765 81.3345C48.9379 81.0653 48.8994 80.7961 48.8609 80.5654C48.8223 80.2962 48.7838 80.027 48.7838 79.7963L48.7067 79.0271L48.6682 78.258C48.6297 77.7196 48.6682 77.2197 48.6682 76.6813C48.7453 74.6047 49.0921 72.528 49.5545 70.5283L49.9398 69.0285C50.0554 68.5286 50.2481 68.0287 50.4022 67.5672C50.7105 66.5673 51.0958 65.6444 51.4812 64.683C51.6738 64.183 51.905 63.7216 52.0977 63.2601L52.7528 61.8757C53.2152 60.9527 53.7161 60.0682 54.2171 59.1453L54.3712 58.8376L54.718 58.7607C55.6428 58.53 56.6062 58.2223 57.531 57.9147C58.4558 57.607 59.3806 57.2609 60.3054 56.8764C62.1165 56.1073 63.9276 55.2612 65.6616 54.2998C67.3956 53.3384 69.0526 52.2616 70.6324 51.0695C72.1738 49.8389 73.7151 48.5698 75.0253 47.1085C76.374 45.6856 77.5685 44.0705 78.6475 42.4553C79.1484 41.6093 79.6879 40.7632 80.1503 39.8787C80.6512 39.0327 81.0365 38.1098 81.4604 37.2253C82.2696 35.4178 82.9247 33.5335 83.4256 31.6107C83.9266 29.6879 84.3119 27.7266 84.4661 25.7653V25.6115L84.5817 25.573C86.123 24.9577 87.6644 24.3425 89.2442 23.7272C90.9012 23.1888 92.5196 22.5735 94.0995 21.9197ZM94.0995 21.9197L84.8514 25.9961L84.967 25.8038C84.8899 27.842 84.5817 29.8417 84.1193 31.8029C83.6568 33.7642 83.0403 35.7255 82.3082 37.6098C81.5375 39.4942 80.6127 41.3016 79.5723 43.0322C78.4933 44.7627 77.2988 46.4163 75.9501 47.9545C74.6014 49.4928 73.0986 50.8772 71.5187 52.1463C69.9003 53.4153 68.2048 54.5305 66.4708 55.5689C64.6982 56.5687 62.8872 57.4917 60.999 58.2993C59.1109 59.1068 57.2227 59.799 55.2189 60.3759L55.7584 59.9913C55.296 60.8758 54.8336 61.7603 54.3712 62.6448L53.7547 63.9908C53.562 64.4522 53.3308 64.8753 53.1767 65.3367C52.8299 66.2597 52.4445 67.1826 52.1748 68.1056C52.0206 68.5671 51.8665 69.0285 51.7509 69.5285L51.4041 70.9513C50.9802 72.8741 50.7105 74.8354 50.6334 76.7582C50.6334 77.2581 50.5949 77.7196 50.6334 78.2196L50.672 78.9502L50.749 79.6809C50.749 79.9116 50.7876 80.1808 50.8261 80.4116C50.8646 80.6423 50.8646 80.873 50.9417 81.1038C50.9802 81.3345 51.0188 81.5652 51.0573 81.796C51.0958 82.0267 51.1729 82.2574 51.2114 82.4497L51.905 84.6802L49.9013 83.565C49.1691 83.1419 48.5911 82.642 48.0517 82.1036C47.5507 81.5652 47.0883 80.9884 46.6645 80.4116C45.8167 79.2579 45.1231 78.0273 44.468 76.7582C43.813 75.5276 43.235 74.2586 42.6569 72.9511C42.1175 71.682 41.578 70.3745 41.1156 69.067V69.0285V68.9901C40.8459 67.9133 40.6917 66.9134 40.5376 65.9136C40.3835 64.8753 40.2679 63.8754 40.1908 62.8371C39.9981 60.7604 39.9211 58.7223 39.9596 56.6456C39.9981 52.5308 40.4991 48.3776 41.4239 44.3397C42.3872 40.3018 43.7359 36.3792 45.5855 32.6874C46.4718 30.8415 47.5507 29.0341 48.6682 27.3036C49.8242 25.6115 51.0573 23.9194 52.406 22.3812L53.4079 21.2275C53.7547 20.8429 54.1015 20.4968 54.4868 20.1123C54.8336 19.7277 55.1804 19.3431 55.5657 18.997L56.6832 17.9587C57.4154 17.2281 58.2631 16.6128 59.0338 15.959C59.4191 15.6129 59.8815 15.3437 60.3054 15.0361C60.7293 14.7284 61.1531 14.4208 61.577 14.1516C63.3496 13.0363 65.2377 12.1134 67.2029 11.4596C69.1682 10.8059 71.249 10.4213 73.3683 10.3829C75.4492 10.3444 77.53 10.6521 79.5337 11.2289C81.5375 11.8057 83.4256 12.6902 85.1597 13.7285C86.9322 14.7669 88.5506 16.0359 90.092 17.3819C91.4792 18.8048 92.8664 20.3046 94.0995 21.9197Z" fill="black"/>
<path d="M94.4077 18.4203C94.5618 16.8436 94.4077 15.2669 93.9838 13.8055C93.5214 12.3827 92.7122 11.0751 91.6333 10.0368C91.0938 9.49844 90.5158 9.03697 89.8607 8.61395C89.2442 8.15248 88.5506 7.84483 87.857 7.46026C86.4697 6.76805 84.9669 6.26812 83.4641 5.72974C85.0825 5.80665 86.6624 6.07584 88.2038 6.65268C88.9744 6.92188 89.7066 7.26798 90.4387 7.691C90.7855 7.88328 91.1323 8.15248 91.4791 8.38321C91.7874 8.65241 92.1342 8.9216 92.4425 9.19079C93.0205 9.76763 93.5599 10.4598 93.9838 11.1905C94.3692 11.9212 94.716 12.7288 94.8701 13.5363C95.1784 15.19 95.0628 16.9205 94.4077 18.4203Z" fill="black"/>
<path d="M167.776 103.216C167.776 103.216 180.878 100.986 182.111 81.7574L177.641 78.5271L175.02 85.5261L169.857 91.0638L167.044 96.9476L167.776 103.216Z" fill="#F3F7FC"/>
<path d="M167.776 103.216C168.894 102.908 169.934 102.447 170.974 101.909C171.976 101.37 172.94 100.716 173.787 99.9473C174.635 99.2166 175.444 98.409 176.176 97.5245C176.909 96.6401 177.525 95.7171 178.065 94.7172C179.182 92.756 179.991 90.6024 180.531 88.4104C181.07 86.2184 181.417 83.9495 181.533 81.6806L181.764 82.1805C180.261 81.1038 178.758 80.027 177.294 78.9502L178.142 78.681L176.793 82.1805L175.444 85.68L175.406 85.7954L175.329 85.8723L172.708 88.6027L170.088 91.3331L170.165 91.2177L168.701 94.1404C168.2 95.1018 167.699 96.1017 167.198 97.0631L167.237 96.9477L167.776 103.216ZM167.776 103.216L166.774 96.9862V96.9092L166.813 96.8323C167.237 95.8325 167.699 94.8326 168.123 93.8328L169.472 90.8332L169.51 90.7947L169.549 90.7563L172.092 87.949L174.635 85.1417L174.519 85.2955L175.791 81.796L177.101 78.2965L177.371 77.6042L177.987 78.0273C179.49 79.104 180.955 80.1808 182.457 81.2576L182.727 81.4499L182.689 81.7575C182.534 84.1033 182.188 86.4107 181.571 88.6796C181.417 89.2565 181.263 89.7949 181.07 90.3717C180.878 90.9485 180.685 91.4869 180.454 92.0253C179.991 93.1021 179.452 94.1789 178.835 95.1403C177.602 97.14 176.022 98.9474 174.134 100.332C173.209 101.024 172.169 101.639 171.128 102.139C170.05 102.639 168.932 103.024 167.776 103.216Z" fill="black"/>
<path d="M172.785 60.9529L171.629 55.0691C178.257 79.0273 167.005 96.9479 167.005 96.9479C167.005 96.9479 189.509 80.1425 192.938 58.4917C196.368 36.8024 180.107 15.9976 154.829 10.1907C154.829 10.1907 126.314 4.80685 102.962 22.0352C111.941 22.4967 113.174 22.7274 119.609 23.3427C123.963 23.7657 129.319 24.3041 135.716 26.6884C140.995 28.6497 143.731 30.6494 145.735 32.9952C147.7 35.2641 148.702 37.5715 149.28 39.1482L148.085 36.4563C148.085 36.4563 160.339 38.4176 168.161 46.7625C175.984 55.146 174.789 61.4528 172.785 60.9529Z" fill="#F3F7FC"/>
<path d="M95.2941 20.5353C94.9088 19.6508 94.4464 18.8817 93.9454 18.1126C93.4445 17.3434 92.905 16.6512 92.2885 15.9975C91.6719 15.3437 91.0554 14.69 90.3618 14.0747C90.2077 13.9208 90.015 13.767 89.8608 13.6132L89.3214 13.1517C88.9746 12.8441 88.5892 12.5749 88.2424 12.2288C88.7048 12.3441 89.1672 12.498 89.6296 12.6902C90.0535 12.921 90.5159 13.0748 90.9013 13.344C91.749 13.8439 92.4811 14.4977 93.1362 15.2283C93.7913 15.959 94.3308 16.805 94.7161 17.6895C95.14 18.6125 95.3712 19.5739 95.2941 20.5353Z" fill="black"/>
<path d="M136.294 9.8062C134.83 8.42177 133.288 7.15272 131.631 6.03749C129.974 4.96072 128.202 4.03777 126.391 3.26865C124.541 2.53798 122.653 1.99959 120.726 1.69194C120.225 1.61503 119.763 1.53812 119.262 1.49966L117.798 1.38429C116.834 1.38429 115.832 1.38429 114.869 1.49966C112.942 1.69194 111.016 2.11496 109.166 2.80717C107.355 3.49938 105.621 4.46079 104.041 5.65293C100.92 7.99876 98.3767 11.1906 96.4885 14.7286C97.9143 10.9983 100.303 7.53728 103.463 4.96072C105.043 3.65321 106.854 2.61489 108.742 1.84577C110.669 1.07664 112.673 0.615169 114.715 0.422888C118.877 -0.00012964 123.038 0.845906 126.776 2.46107C128.626 3.3071 130.36 4.38387 131.978 5.57602C133.558 6.84507 135.022 8.26795 136.294 9.8062Z" fill="black"/>
<path d="M161.302 41.3787C163.537 41.8401 165.618 42.7246 167.622 43.7629C169.626 44.8397 171.514 46.1857 173.171 47.7239C174.866 49.2622 176.33 51.0696 177.448 53.1078C178.565 55.1075 179.298 57.338 179.452 59.6069C178.527 57.5687 177.448 55.6844 176.138 53.9538C174.866 52.2233 173.402 50.6466 171.822 49.1853C170.242 47.7239 168.547 46.378 166.774 45.1089C165.04 43.7629 163.19 42.5708 161.302 41.3787Z" fill="#864D22"/>
<path d="M149.241 39.148C148.239 36.9176 146.891 34.841 145.234 33.1489C143.577 31.4183 141.573 30.1108 139.415 29.111C137.257 28.1111 134.984 27.2651 132.633 26.6113C130.321 25.9191 127.971 25.3807 125.582 25.0346C123.193 24.6116 120.765 24.3809 118.337 24.1501L111.016 23.381C106.122 22.8426 101.267 22.3427 96.373 21.6889C101.305 21.5351 106.199 21.6505 111.131 21.8812C113.598 21.9966 116.025 22.1889 118.491 22.3427C120.919 22.535 123.424 22.7657 125.89 23.1503C130.822 23.9963 135.639 25.4192 140.07 27.8035C141.188 28.4188 142.267 29.0725 143.23 29.8801C144.232 30.6877 145.118 31.5722 145.927 32.572C147.469 34.4948 148.625 36.7638 149.241 39.148Z" fill="black"/>
<path d="M148.085 36.3792C149.742 36.6099 151.361 36.9945 152.979 37.4175C154.598 37.8789 156.177 38.4173 157.719 39.0326C160.802 40.3017 163.769 41.9553 166.427 44.1088C166.736 44.378 167.121 44.6088 167.429 44.9164L168.354 45.8009L168.817 46.2239L169.279 46.6854C169.587 46.9931 169.857 47.3007 170.165 47.6084C171.321 48.8774 172.323 50.2618 173.132 51.8001C173.942 53.3383 174.558 54.9535 174.789 56.7225C174.905 57.607 174.905 58.4915 174.712 59.3759C174.597 59.799 174.442 60.2604 174.134 60.645C173.98 60.8373 173.787 60.9911 173.556 61.068C173.325 61.1449 173.055 61.1449 172.824 61.068L172.863 60.8757C173.248 60.8757 173.518 60.645 173.633 60.3373C173.787 60.0297 173.826 59.6451 173.826 59.2606C173.826 58.4915 173.672 57.7223 173.441 56.9917C173.209 56.261 172.94 55.5303 172.593 54.7997C172.246 54.1075 171.861 53.4152 171.437 52.723C170.589 51.3771 169.664 50.0696 168.662 48.8005C168.393 48.4928 168.161 48.1852 167.892 47.8775L167.506 47.4161L167.083 46.9931L166.273 46.1086C166.004 45.8009 165.695 45.5702 165.387 45.301C162.998 43.1474 160.224 41.34 157.295 39.9556C155.831 39.2249 154.328 38.5712 152.787 38.0328C152.401 37.8789 152.016 37.7636 151.631 37.6097C151.245 37.4944 150.86 37.3406 150.436 37.2252C149.665 36.9945 148.856 36.7637 148.047 36.5714L148.085 36.3792Z" fill="black"/>
<path d="M166.928 96.9092C168.277 93.5635 169.394 90.1793 170.319 86.7567C170.782 85.0647 171.205 83.3341 171.629 81.6036C172.053 79.8731 172.361 78.1426 172.631 76.3736C173.132 72.8356 173.248 69.2592 173.055 65.7212C172.862 62.1448 172.361 58.6068 171.552 55.1073L171.745 55.0688C172.862 58.4914 173.595 62.0679 174.018 65.6828C174.404 69.2976 174.481 72.951 174.173 76.6043C174.018 78.4118 173.826 80.2576 173.517 82.0651C173.209 83.8725 172.747 85.6415 172.169 87.372C171.552 89.1026 170.897 90.7946 170.049 92.4483C169.202 94.0634 168.277 95.6786 167.121 97.063L166.928 96.9092Z" fill="black"/>
<path d="M157.526 120.175C158.913 119.714 160.223 119.214 161.457 118.56C162.073 118.253 162.651 117.906 163.191 117.522C163.73 117.137 164.231 116.714 164.693 116.291C165.58 115.368 166.158 114.33 166.466 113.099C166.774 111.753 166.967 110.369 167.044 108.985C167.198 106.177 167.044 103.332 166.736 100.486C166.466 97.64 166.004 94.7942 165.464 91.9869L165.657 91.9485C166.504 94.7173 167.16 97.5246 167.699 100.37C168.2 103.216 168.547 106.1 168.585 109.061C168.585 110.523 168.547 112.023 168.316 113.484C168.2 114.253 167.969 115.099 167.583 115.83C167.198 116.56 166.659 117.214 166.081 117.753C165.464 118.291 164.809 118.714 164.115 119.099C163.422 119.445 162.728 119.714 161.996 119.945C160.532 120.368 159.067 120.56 157.565 120.445L157.526 120.175Z" fill="black"/>
<path d="M94.0995 21.9198C94.0995 21.9198 84.1578 7.61415 67.3186 11.9212C51.5968 15.9591 45.8938 35.2641 45.8938 35.2641C45.8938 35.2641 52.6757 21.1507 67.0103 17.0359C78.8787 13.6133 86.5469 19.997 86.5469 19.997L94.0995 21.9198Z" fill="#864D22"/>
<path d="M94.0995 21.9197C92.7893 20.343 91.3636 18.9201 89.7837 17.6126C88.2424 16.3051 86.5854 15.1514 84.8129 14.1516C83.0403 13.1902 81.1907 12.3826 79.2255 11.8826C77.2988 11.3827 75.295 11.152 73.2913 11.2673C71.326 11.3827 69.3223 11.7673 67.4727 12.4595C65.6231 13.1517 63.8505 14.0746 62.1936 15.1899C58.8796 17.4203 56.0282 20.2661 53.4464 23.3426C52.1362 24.8808 51.0188 26.5345 49.9013 28.1881C48.8609 29.8801 47.8205 31.6107 46.9727 33.4181C45.2002 36.9945 43.9286 40.8402 43.0423 44.7242C42.6184 46.6855 42.3101 48.6468 42.0789 50.6465C41.8477 52.6462 41.7321 54.6459 41.7321 56.6456C41.6936 58.6454 41.8092 60.6451 41.9633 62.6448C42.0789 63.6447 42.156 64.6445 42.3101 65.6059C42.4643 66.5673 42.6184 67.6056 42.8496 68.4901L42.8111 68.4132C43.2735 69.6823 43.7744 70.9513 44.3139 72.1819C44.8534 73.4125 45.4314 74.6431 46.0479 75.8353C46.6645 77.0274 47.3195 78.1811 48.0902 79.2579C48.8223 80.3346 49.7086 81.3345 50.672 81.8729L49.3233 82.9881C49.2462 82.6805 49.1691 82.4497 49.1306 82.1421C49.0535 81.8729 49.015 81.6037 48.9765 81.3345C48.9379 81.0653 48.8994 80.7961 48.8609 80.5654C48.8223 80.2962 48.7838 80.027 48.7838 79.7963L48.7067 79.0271L48.6682 78.258C48.6297 77.7196 48.6682 77.2197 48.6682 76.6813C48.7453 74.6047 49.0921 72.528 49.5545 70.5283L49.9398 69.0285C50.0554 68.5286 50.2481 68.0287 50.4022 67.5672C50.7105 66.5673 51.0958 65.6444 51.4812 64.683C51.6738 64.183 51.905 63.7216 52.0977 63.2601L52.7528 61.8757C53.2152 60.9527 53.7161 60.0682 54.2171 59.1453L54.3712 58.8376L54.718 58.7607C55.6428 58.53 56.6062 58.2223 57.531 57.9147C58.4558 57.607 59.3806 57.2609 60.3054 56.8764C62.1165 56.1073 63.9276 55.2612 65.6616 54.2998C67.3956 53.3384 69.0526 52.2616 70.6324 51.0695C72.1738 49.8389 73.7151 48.5698 75.0253 47.1085C76.374 45.6856 77.5685 44.0705 78.6475 42.4553C79.1484 41.6093 79.6879 40.7632 80.1503 39.8787C80.6512 39.0327 81.0365 38.1098 81.4604 37.2253C82.2696 35.4178 82.9247 33.5335 83.4256 31.6107C83.9266 29.6879 84.3119 27.7266 84.4661 25.7653V25.6115L84.5817 25.573C86.123 24.9577 87.6644 24.3425 89.2442 23.7272C90.9012 23.1888 92.5196 22.5735 94.0995 21.9197ZM94.0995 21.9197L84.8514 25.9961L84.967 25.8038C84.8899 27.842 84.5817 29.8417 84.1193 31.8029C83.6568 33.7642 83.0403 35.7255 82.3082 37.6098C81.5375 39.4942 80.6127 41.3016 79.5723 43.0322C78.4933 44.7627 77.2988 46.4163 75.9501 47.9545C74.6014 49.4928 73.0986 50.8772 71.5187 52.1463C69.9003 53.4153 68.2048 54.5305 66.4708 55.5689C64.6982 56.5687 62.8872 57.4917 60.999 58.2993C59.1109 59.1068 57.2227 59.799 55.2189 60.3759L55.7584 59.9913C55.296 60.8758 54.8336 61.7603 54.3712 62.6448L53.7547 63.9908C53.562 64.4522 53.3308 64.8753 53.1767 65.3367C52.8299 66.2597 52.4445 67.1826 52.1748 68.1056C52.0206 68.5671 51.8665 69.0285 51.7509 69.5285L51.4041 70.9513C50.9802 72.8741 50.7105 74.8354 50.6334 76.7582C50.6334 77.2581 50.5949 77.7196 50.6334 78.2196L50.672 78.9502L50.749 79.6809C50.749 79.9116 50.7876 80.1808 50.8261 80.4116C50.8646 80.6423 50.8646 80.873 50.9417 81.1038C50.9802 81.3345 51.0188 81.5652 51.0573 81.796C51.0958 82.0267 51.1729 82.2574 51.2114 82.4497L51.905 84.6802L49.9013 83.565C49.1691 83.1419 48.5911 82.642 48.0517 82.1036C47.5507 81.5652 47.0883 80.9884 46.6645 80.4116C45.8167 79.2579 45.1231 78.0273 44.468 76.7582C43.813 75.5276 43.235 74.2586 42.6569 72.9511C42.1175 71.682 41.578 70.3745 41.1156 69.067V69.0285V68.9901C40.8459 67.9133 40.6917 66.9134 40.5376 65.9136C40.3835 64.8753 40.2679 63.8754 40.1908 62.8371C39.9981 60.7604 39.9211 58.7223 39.9596 56.6456C39.9981 52.5308 40.4991 48.3776 41.4239 44.3397C42.3872 40.3018 43.7359 36.3792 45.5855 32.6874C46.4718 30.8415 47.5507 29.0341 48.6682 27.3036C49.8242 25.6115 51.0573 23.9194 52.406 22.3812L53.4079 21.2275C53.7547 20.8429 54.1015 20.4968 54.4868 20.1123C54.8336 19.7277 55.1804 19.3431 55.5657 18.997L56.6832 17.9587C57.4154 17.2281 58.2631 16.6128 59.0338 15.959C59.4191 15.6129 59.8815 15.3437 60.3054 15.0361C60.7293 14.7284 61.1531 14.4208 61.577 14.1516C63.3496 13.0363 65.2377 12.1134 67.2029 11.4596C69.1682 10.8059 71.249 10.4213 73.3683 10.3829C75.4492 10.3444 77.53 10.6521 79.5337 11.2289C81.5375 11.8057 83.4256 12.6902 85.1597 13.7285C86.9322 14.7669 88.5506 16.0359 90.092 17.3819C91.4792 18.8048 92.8664 20.3046 94.0995 21.9197Z" fill="black"/>
<path d="M93.9838 21.9197L93.3673 22.9965C93.3673 22.9965 74.9867 28.9187 70.2471 34.0719C72.2123 30.8031 74.3702 28.688 75.9501 27.3805C77.2217 26.3037 84.6587 20.0354 92.982 21.689C93.3673 21.7659 93.7141 21.8428 93.9838 21.9197Z" fill="#864D22"/>
<path d="M94.6389 22.689C92.3654 23.4581 90.0919 24.3041 87.8955 25.1502C86.778 25.6116 85.6605 26.0347 84.5815 26.4961L83.7723 26.8422L82.9631 27.1883C82.4237 27.4191 81.8842 27.6498 81.3447 27.919L79.7263 28.6881L78.1464 29.4957C77.6069 29.7649 77.106 30.0341 76.5665 30.3417L75.7959 30.7648C75.5261 30.9186 75.2564 31.034 75.0252 31.1878C72.9444 32.3799 70.9791 33.7259 69.0139 35.1103C70.6709 33.3413 72.5205 31.7646 74.5242 30.4187C76.528 29.0727 78.6474 27.8805 80.8438 26.8422C81.3832 26.573 81.9613 26.3423 82.5007 26.1116C83.0402 25.8808 83.6182 25.6501 84.1962 25.4194C85.3137 24.9963 86.4697 24.5733 87.6257 24.2272C89.8992 23.5735 92.2498 22.9966 94.6389 22.689Z" fill="black"/>
<path d="M95.4481 22.4967C93.7526 22.0737 92.0957 21.6892 90.4387 21.343C89.591 21.1892 88.7818 21.0354 87.934 20.92C87.7414 20.8816 87.5102 20.8431 87.3175 20.8047L86.701 20.7277C86.2771 20.6893 85.8532 20.6124 85.4293 20.6124C83.7339 20.4586 82.0769 20.4201 80.3814 20.497C78.6859 20.5739 77.029 20.8816 75.3335 21.2277C76.8748 20.4201 78.5703 19.8817 80.3043 19.6125C82.0384 19.3818 83.8109 19.3049 85.5449 19.4587C85.9688 19.4971 86.4312 19.5741 86.8551 19.6125C87.279 19.651 87.7414 19.7279 88.1652 19.8433C89.013 19.9971 89.8607 20.2278 90.7085 20.4586C92.2883 20.9969 93.9453 21.6122 95.4481 22.4967Z" fill="black"/>
<path d="M95.718 21.5736L103.271 22.0735C103.425 21.9197 103.926 21.4967 105.236 20.5737C106.469 19.7277 108.396 18.4202 111.401 16.4589C114.677 14.3054 118.337 12.844 121.844 11.8826C129.512 9.72908 136.333 9.84445 136.333 9.84445C128.857 1.69174 117.913 -1.19248 108.935 2.34549C100.92 5.53735 97.3365 12.7287 96.5272 14.7284C94.7932 19.1508 95.718 21.5736 95.718 21.5736Z" fill="#F3F7FC"/>
<path d="M95.7179 21.5737L103.271 21.7275L103.001 21.8429C103.155 21.6506 103.309 21.5352 103.463 21.4199L103.926 21.0738C104.234 20.843 104.504 20.6123 104.812 20.3815L106.623 19.074L110.284 16.459C112.711 14.6516 115.486 13.2672 118.337 12.1904C121.189 11.0752 124.156 10.3445 127.161 9.8061C130.167 9.26771 133.173 8.96006 136.294 8.92161L135.6 10.4983C134.098 8.88315 132.364 7.42181 130.552 6.19122C128.703 4.96062 126.738 3.9223 124.657 3.19163L123.077 2.6917C122.537 2.53788 121.998 2.42251 121.458 2.30714C120.919 2.19177 120.38 2.11486 119.84 2.03795C119.57 1.99949 119.301 1.96104 119.031 1.92258L118.222 1.84567C116.025 1.69184 113.79 1.88412 111.632 2.42251C109.474 2.92244 107.432 3.80693 105.544 4.99907C103.656 6.19122 101.96 7.69101 100.496 9.38308C99.0318 11.0752 97.7602 12.998 96.8354 15.0361C96.373 16.0745 96.0262 17.1512 95.795 18.2665C95.5638 19.3048 95.4482 20.4585 95.7179 21.5737ZM95.7179 21.5737C95.3326 20.4969 95.3326 19.3048 95.4482 18.1511C95.5638 16.9974 95.8721 15.8437 96.2574 14.7669C97.0666 12.5749 98.2612 10.5368 99.6869 8.69087C100.419 7.76792 101.19 6.88343 102.037 6.07585C102.461 5.65283 102.924 5.30672 103.348 4.88371C103.81 4.5376 104.272 4.15304 104.773 3.80693C106.739 2.46097 108.896 1.46111 111.209 0.807351C115.794 -0.461703 120.803 -0.19251 125.273 1.38419C127.508 2.15332 129.666 3.23009 131.631 4.57606C133.597 5.88357 135.408 7.46027 136.988 9.1908L138.452 10.7675H136.255C134.83 10.7675 133.327 10.8444 131.863 10.9598C130.398 11.0752 128.934 11.2674 127.47 11.4982C124.541 11.9596 121.69 12.6519 118.877 13.6133C116.064 14.5747 113.405 15.8053 110.939 17.4204L107.162 19.8047L105.274 20.9968C104.966 21.1891 104.658 21.4199 104.349 21.6121L103.887 21.9198C103.733 22.0352 103.579 22.1505 103.502 22.2274L103.386 22.3428H103.232L99.4172 21.9583L95.7179 21.5737Z" fill="black"/>
<path d="M95.6022 18.1897C95.6022 18.2281 95.6022 18.2281 95.6022 18.1897C95.4096 20.1894 95.7564 21.42 95.7564 21.42L95.9105 21.4584C95.9105 21.4584 95.949 21.4969 96.0261 21.5738L98.8776 21.7661L98.762 21.5738C95.1783 15.6515 108.665 2.6149 108.896 2.3457C105.968 4.26851 101.382 7.38346 99.8024 9.22936C99.8024 9.22936 99.8024 9.26782 99.7639 9.26782C96.7968 12.7673 95.8334 15.9592 95.6022 18.1897Z" fill="#864D22"/>
<path d="M104.504 20.8814L105.236 20.5353C106.469 19.6892 108.396 18.3817 111.401 16.4205C114.677 14.2669 118.337 12.8056 121.844 11.8442L126.352 10.8059C126.352 10.8059 121.112 7.92165 115.601 11.6904C109.397 15.959 104.504 20.8814 104.504 20.8814Z" fill="#864D22"/>
<path d="M95.6023 18.1896C95.6023 18.2281 95.6023 18.2281 95.6023 18.1896C95.5638 18.7665 95.5253 19.3433 95.5638 19.8817C95.6023 20.1509 95.6023 20.4201 95.6794 20.7278C95.7179 20.997 95.795 21.2661 95.8721 21.4969L95.7179 21.3815H96.0262C98.4538 21.42 100.843 21.4969 103.271 21.5738L102.924 21.7276C103.116 21.5353 103.232 21.42 103.386 21.2661L103.849 20.92C104.157 20.6893 104.465 20.4586 104.735 20.2278L106.584 18.9203L110.284 16.3053C112.75 14.5363 115.524 13.1134 118.376 12.0367C121.227 10.9599 124.194 10.1908 127.2 9.65238C128.703 9.38318 130.206 9.1909 131.747 9.03708C133.288 8.88325 134.753 8.80634 136.332 8.80634L135.6 10.383C134.175 8.88325 132.595 7.49883 130.899 6.26823C129.204 5.03763 127.354 4.07623 125.427 3.34556C123.501 2.57644 121.458 2.03805 119.416 1.76886C117.335 1.49967 115.255 1.57658 113.212 1.88423C112.943 1.92268 112.711 1.96114 112.442 1.9996L111.671 2.19188L110.9 2.38416L110.168 2.69181C109.166 2.99946 108.203 3.38402 107.278 3.84549C105.39 4.76844 103.656 5.99904 102.115 7.42192C101.344 8.15259 100.612 8.92171 99.9566 9.72929C99.263 10.5369 98.6465 11.4214 98.0685 12.3059C97.4905 13.1903 96.9896 14.1518 96.5657 15.1132C96.1418 16.113 95.795 17.1513 95.6023 18.1896ZM95.6023 18.1896C95.7179 17.1129 95.9491 16.0746 96.2959 15.0362C96.6427 13.9979 97.1052 12.9981 97.6061 12.0367C98.107 11.0753 98.7236 10.1523 99.3401 9.26781C99.9952 8.38332 100.689 7.53729 101.459 6.72971C103.001 5.153 104.735 3.76858 106.7 2.69181C107.663 2.15342 108.704 1.69195 109.744 1.34584L110.515 1.07665L111.324 0.84591L112.133 0.615173C112.403 0.538261 112.673 0.499805 112.943 0.461349C115.139 0.0383307 117.374 -0.0770379 119.609 0.153699C121.844 0.384436 124.002 0.922823 126.121 1.69195C130.321 3.26865 134.02 5.92213 137.065 9.15245L138.567 10.7676H136.371C134.945 10.7676 133.442 10.8445 131.978 10.9599C130.514 11.0753 129.05 11.2675 127.585 11.4983C124.657 11.9597 121.805 12.652 118.992 13.6134C116.218 14.5748 113.559 15.8054 111.054 17.459L107.278 19.8817L105.39 21.0739L104.465 21.6892L104.003 21.9968C103.849 22.1122 103.694 22.2275 103.617 22.3045L103.463 22.4583H103.271C100.881 22.2276 98.4538 21.9968 96.0647 21.7276L95.7565 21.6892H95.6409L95.6023 21.6123C95.5253 21.3046 95.4867 21.0354 95.4482 20.7662C95.4097 20.497 95.4097 20.1894 95.4097 19.9202C95.4097 19.3433 95.4867 18.7665 95.6023 18.1896C95.6023 18.2281 95.6023 18.2281 95.6023 18.1896Z" fill="black"/>
<path d="M180.415 24.9578C177.448 21.8044 173.71 16.8435 165.849 13.8439C157.41 10.6521 151.283 9.84448 145.388 9.61375C139.531 9.38301 127.662 9.49838 115.678 14.8438C109.86 17.4203 106.083 19.497 103.193 21.8813C105.814 20.8429 109.359 19.5354 113.675 18.3818C114.831 18.0741 125.581 15.1899 137.797 14.9976C158.027 14.69 174.288 22.2658 180.415 24.9578Z" fill="#864D22"/>
<path d="M135.408 9.72931C140.725 8.69099 146.197 8.53716 151.63 9.07555C154.328 9.34474 157.025 9.84467 159.684 10.4984C162.343 11.1906 164.925 12.1136 167.468 13.1904C169.972 14.3056 172.4 15.6131 174.712 17.1898C175.29 17.5744 175.83 17.9974 176.408 18.3819C176.947 18.805 177.487 19.228 178.026 19.651C179.105 20.497 180.145 21.3815 181.147 22.3429C185.232 26.0732 188.661 30.5341 191.089 35.5719C192.284 38.0715 193.208 40.725 193.825 43.4554C194.48 46.1473 194.827 48.9546 194.827 51.7235C194.865 57.2996 193.748 62.7988 191.706 67.9135C190.704 70.4516 189.509 72.9513 188.045 75.2971C186.619 77.6429 184.962 79.8349 183.112 81.8346C181.263 83.8344 179.221 85.6803 176.947 87.2185C174.712 88.7568 172.323 90.0643 169.818 91.1026C172.169 89.7951 174.442 88.2953 176.485 86.6032C177.525 85.7572 178.527 84.8727 179.452 83.9113C180.377 82.9499 181.263 81.9885 182.072 80.9501C183.729 78.8735 185.232 76.6815 186.465 74.3741L186.927 73.4897L187.351 72.6052C187.659 72.0283 187.929 71.413 188.199 70.8362C188.469 70.2593 188.7 69.6056 188.97 69.0287C189.239 68.4134 189.432 67.7981 189.663 67.1828C190.087 65.9522 190.472 64.6832 190.819 63.4141C191.166 62.1451 191.436 60.876 191.667 59.5685C192.091 56.9919 192.284 54.3769 192.206 51.7619C192.129 49.1469 191.821 46.5703 191.166 44.0707C190.55 41.5326 189.702 39.0714 188.546 36.764C186.311 32.0723 183.112 27.8422 179.298 24.2273C178.334 23.3043 177.371 22.4583 176.331 21.5738C175.83 21.1508 175.329 20.7278 174.789 20.3432C174.25 19.9587 173.749 19.5356 173.209 19.1511C171.051 17.6513 168.816 16.3053 166.427 15.1132C161.688 12.8058 156.563 11.2291 151.322 10.3831C146.159 9.49857 140.764 9.30629 135.408 9.72931Z" fill="black"/>
<path d="M169.664 239.159C164.5 226.276 159.298 213.393 154.135 200.51C148.355 202.703 142.613 204.933 136.833 207.125C142.999 220.085 149.203 233.044 155.368 246.004C160.146 243.735 164.924 241.466 169.664 239.159Z" fill="#ABB992" stroke="black" stroke-width="5.0946" stroke-miterlimit="10"/>
<path d="M155.907 239.928C157.256 239.197 170.936 232.044 185.463 237.928C187.621 238.813 195.25 241.966 199.836 249.696C204.807 258.002 203.227 265.463 203.227 265.463C181.378 265.463 159.53 265.463 137.681 265.463C138.105 263.386 141.149 247.927 155.907 239.928Z" fill="#73430C" stroke="black" stroke-width="5.0946" stroke-miterlimit="10"/>
<path d="M192.591 241.966C191.127 242.274 189.74 242.428 188.43 242.62C187.775 242.697 187.12 242.774 186.465 242.851C185.809 242.889 185.154 243.004 184.538 243.197C183.305 243.581 182.11 244.235 181.224 245.196C180.299 246.158 179.721 247.427 179.374 248.811C179.374 248.85 179.297 248.888 179.259 248.888C179.22 248.888 179.182 248.85 179.182 248.773C179.22 248.042 179.297 247.312 179.528 246.619C179.721 245.927 180.029 245.196 180.453 244.581C180.877 243.966 181.417 243.389 181.995 242.889C182.611 242.428 183.266 242.043 183.96 241.697C184.653 241.389 185.386 241.12 186.118 240.889C186.85 240.697 187.621 240.582 188.353 240.62C189.085 240.62 189.855 240.736 190.588 240.928C191.32 241.12 192.013 241.351 192.668 241.774C192.707 241.812 192.746 241.851 192.707 241.928C192.668 241.928 192.63 241.966 192.591 241.966Z" fill="black"/>
<path d="M184.692 237.697C183.228 238.082 181.879 238.313 180.608 238.659L178.681 239.12C178.064 239.274 177.409 239.466 176.831 239.774C175.675 240.389 174.712 241.274 173.98 242.428C173.248 243.581 172.862 244.927 172.631 246.35C172.631 246.389 172.554 246.427 172.515 246.427C172.477 246.427 172.438 246.389 172.438 246.35C172.361 244.927 172.554 243.427 173.093 242.005C173.402 241.312 173.787 240.659 174.25 240.043C174.75 239.428 175.328 238.928 175.984 238.467C176.639 238.005 177.294 237.621 178.026 237.313C178.758 237.005 179.49 236.813 180.261 236.736C181.031 236.659 181.802 236.698 182.534 236.813C183.266 236.928 183.999 237.121 184.692 237.505C184.731 237.544 184.769 237.582 184.731 237.659C184.731 237.697 184.731 237.697 184.692 237.697Z" fill="black"/>
<path d="M27.0505 248.773L37.4932 183.359L77.4141 192.588L66.5862 250.542L27.0505 248.773Z" fill="#ABB992" stroke="black" stroke-width="5.0946" stroke-miterlimit="10"/>
<path d="M83.0016 265.463H18.0723C18.0723 265.463 22.1954 235.736 49.4387 235.736C84.9668 235.698 83.0016 265.463 83.0016 265.463Z" fill="#73430C" stroke="black" stroke-width="5.0946" stroke-miterlimit="10"/>
<path d="M61.7309 244.466C60.3822 244.004 59.0721 243.581 57.7619 243.235C56.4518 242.889 55.1417 242.582 53.8315 242.428C53.1764 242.351 52.5214 242.274 51.8663 242.274C51.2112 242.235 50.5561 242.274 49.9011 242.312C48.5524 242.389 47.2422 242.658 45.8936 243.043C46.9725 242.12 48.3212 241.466 49.7469 241.12C50.4405 240.928 51.1727 240.851 51.9048 240.813C52.637 240.774 53.3691 240.813 54.1012 240.928C55.527 241.12 56.9527 241.543 58.2629 242.12C59.496 242.735 60.729 243.466 61.7309 244.466Z" fill="black"/>
<path d="M58.4557 247.504C57.608 247.081 56.7988 246.696 55.9896 246.389C55.1804 246.081 54.3712 245.889 53.562 245.773C53.3693 245.735 53.1381 245.735 52.9454 245.696C52.7527 245.658 52.5216 245.658 52.3289 245.658C52.1362 245.658 51.905 245.658 51.7123 245.62C51.5197 245.62 51.2885 245.62 51.0573 245.62H50.749C50.6334 245.62 50.5178 245.658 50.4407 245.658C50.2095 245.658 50.0169 245.696 49.7857 245.696C49.3232 245.735 48.8994 245.812 48.3984 245.812C48.7452 245.504 49.1691 245.235 49.5545 244.966C49.7857 244.85 49.9783 244.773 50.2095 244.658C50.4407 244.543 50.6719 244.466 50.9031 244.427C51.1343 244.35 51.3655 244.312 51.6353 244.235C51.8665 244.197 52.1362 244.197 52.3674 244.158C52.5986 244.12 52.8684 244.158 53.0996 244.158C53.3308 244.197 53.6005 244.197 53.8317 244.235C54.8336 244.389 55.7584 244.774 56.5676 245.312C57.3768 245.889 58.0704 246.619 58.4557 247.504Z" fill="black"/>
<path d="M126.468 100.909C136.14 102.139 145.812 103.409 155.484 104.639C154.79 108.946 153.865 115.907 153.904 124.482C154.019 151.786 163.46 161.362 169.664 198.511C172.284 214.316 172.901 226.622 166.697 238.582C164.269 243.274 161.572 246.312 159.029 249.196C154.636 254.118 139.685 270.77 115.139 274.539C108.627 275.538 98.1069 277.154 86.3541 272.116C77.6455 268.386 72.0581 262.656 69.091 259.079C69.6305 259.694 71.2874 261.386 73.9463 261.886C76.1812 262.348 79.6493 262.04 80.9209 260.156C83.4256 256.464 76.7592 247.85 72.6361 242.505C67.7423 236.198 63.311 232.044 62.6174 231.391C59.3035 228.276 44.8918 214.893 37.3392 197.78C35.2969 193.165 31.0582 180.513 31.328 164.708C31.5592 151.94 34.6419 141.634 37.2236 135.019C38.3411 131.482 39.5356 126.521 39.6513 120.445C39.7283 115.445 39.0732 111.215 38.3411 108.023C39.6512 108.292 41.6165 108.523 43.967 108.139C47.5121 107.562 49.9783 105.947 51.1728 104.985C50.0554 105.101 45.8552 105.331 41.8477 102.486C38.2255 99.9475 36.9539 96.4095 36.6071 95.2943C39.3815 96.2557 43.6973 97.294 48.8223 96.7171C50.3251 96.5633 56.0281 95.7942 65.623 89.1413C77.9923 80.4886 81.2292 72.7974 87.7799 73.6434C90.2461 73.9511 91.903 75.3355 93.0975 76.2969C100.419 82.2961 111.285 90.2949 126.468 100.909Z" fill="white"/>
<path d="M126.506 100.793L141.072 102.37L155.561 103.985L156.254 104.062L156.139 104.754C155.368 109.946 154.944 115.138 154.829 120.368C154.79 121.675 154.79 122.983 154.829 124.29L154.944 128.213C154.944 129.52 155.098 130.828 155.214 132.097C155.252 132.751 155.33 133.404 155.368 134.058L155.599 135.981C156.254 141.134 157.372 146.249 158.798 151.248C160.185 156.286 161.842 161.285 163.383 166.323C166.466 176.437 168.97 186.743 170.743 197.165C171.205 199.78 171.591 202.395 171.938 205.01C172.284 207.625 172.554 210.278 172.67 212.97C172.824 215.624 172.824 218.316 172.631 221.007C172.554 222.353 172.4 223.699 172.207 225.045L171.86 227.045C171.745 227.699 171.552 228.353 171.437 229.006C170.782 231.621 169.895 234.198 168.778 236.659C168.161 237.851 167.622 239.082 166.928 240.274C166.273 241.428 165.541 242.581 164.732 243.697C163.19 245.889 161.379 247.927 159.607 249.85C157.834 251.811 155.946 253.734 154.019 255.541C146.274 262.809 137.026 268.578 127.007 272.039L125.119 272.654L124.156 272.962C123.847 273.077 123.501 273.116 123.192 273.231L121.266 273.731L120.302 274C119.994 274.077 119.647 274.192 119.339 274.231L115.409 274.961C114.098 275.192 112.788 275.346 111.478 275.538C106.238 276.192 100.843 276.307 95.6022 275.384C92.9819 274.923 90.4001 274.231 87.8954 273.269C85.3908 272.346 83.0017 271.193 80.6896 269.847C78.3776 268.501 76.2197 266.924 74.216 265.194C72.1737 263.463 70.2855 261.579 68.59 259.541L69.5534 258.733C70.7479 260.04 72.3663 260.963 74.0618 261.31C74.9096 261.463 75.8344 261.502 76.7207 261.425C77.6069 261.348 78.4547 261.156 79.1868 260.771C79.5336 260.579 79.8419 260.348 80.1116 260.079C80.3428 259.81 80.497 259.502 80.6126 259.118C80.6896 258.771 80.7282 258.348 80.6896 257.964C80.6511 257.541 80.574 257.118 80.4584 256.695C79.996 255.003 79.1098 253.349 78.1464 251.772C76.1812 248.619 73.8306 245.619 71.4801 242.658C69.1295 239.736 66.5863 236.928 63.9275 234.275C63.2724 233.621 62.5788 232.967 61.8852 232.352C61.1916 231.698 60.4594 231.045 59.7658 230.391C58.3786 229.083 57.0299 227.699 55.6812 226.353C53.0224 223.584 50.4792 220.7 48.0901 217.7C45.701 214.701 43.4275 211.586 41.3852 208.317C39.3429 205.048 37.4933 201.626 35.9134 198.088C35.1428 196.28 34.4877 194.473 33.9097 192.627C33.3317 190.781 32.7922 188.935 32.3683 187.051C31.4435 183.282 30.7884 179.475 30.3646 175.629C29.5168 167.938 29.671 160.131 30.904 152.517C31.5206 148.71 32.4069 144.903 33.5243 141.211C34.0638 139.365 34.7189 137.519 35.374 135.712L35.6052 135.058C35.6822 134.827 35.7593 134.635 35.8364 134.404C35.952 134.02 36.1061 133.558 36.2217 133.097C36.4914 132.212 36.6841 131.328 36.9153 130.405C38.5337 123.213 38.5337 115.676 36.8768 108.485L36.3373 106.139L38.6879 106.639C39.6897 106.831 40.7301 106.946 41.732 106.946C42.7724 106.946 43.7743 106.831 44.7762 106.6C45.7781 106.37 46.7414 106.023 47.6662 105.6C48.591 105.177 49.4773 104.601 50.2865 103.985L51.3269 106.639C49.5544 106.793 47.8204 106.639 46.1634 106.216C44.4679 105.793 42.8495 105.062 41.4238 104.101C40.6916 103.639 40.0365 103.062 39.3815 102.486C38.7649 101.87 38.1869 101.216 37.6474 100.524C36.607 99.1398 35.8364 97.5631 35.2969 95.9095L34.4877 93.2945L37.0694 94.179C39.0732 94.8712 41.1155 95.3711 43.2348 95.6019C44.2752 95.7172 45.3157 95.7557 46.3946 95.7557C47.435 95.7557 48.514 95.6788 49.5158 95.525C51.5196 95.2173 53.5619 94.5251 55.5271 93.6791C57.4923 92.833 59.419 91.8332 61.2686 90.7179C65.0064 88.4875 68.513 85.9109 71.8269 83.0652C73.4838 81.6423 75.1022 80.1425 76.7207 78.6427C77.5299 77.8736 78.3391 77.1429 79.2254 76.4122C80.0731 75.6816 80.9979 74.9509 81.9998 74.3356C83.0017 73.7203 84.1577 73.2204 85.3908 72.9896C86.0073 72.8743 86.6238 72.8743 87.2404 72.8743C87.8569 72.9127 88.4735 73.0281 89.0515 73.1819C90.246 73.4896 91.3249 74.1049 92.2883 74.7586C92.7507 75.1047 93.2131 75.4508 93.637 75.8354L94.9086 76.8737C98.2996 79.681 101.806 82.3729 105.313 85.0649C108.819 87.7568 112.364 90.4103 115.909 93.0253L126.506 100.793ZM126.429 101.063L120.919 97.3324L115.447 93.5637C111.825 91.064 108.203 88.5259 104.581 85.9494C100.997 83.3728 97.4133 80.7578 93.9452 78.0274L92.6351 76.9891C92.2112 76.643 91.7874 76.3353 91.3635 76.0277C90.5157 75.4508 89.5909 74.9894 88.6276 74.7586C88.1652 74.6432 87.6642 74.5663 87.1633 74.5663C86.6624 74.5663 86.2 74.5663 85.7376 74.6817C84.8127 74.874 83.8879 75.297 83.0402 75.8354C82.1925 76.3738 81.3447 77.066 80.5355 77.7967C79.7263 78.5273 78.9556 79.258 78.1464 80.0271C76.5665 81.5654 74.9481 83.1036 73.2912 84.6034C69.9773 87.603 66.3551 90.2949 62.5402 92.6792C60.6136 93.8713 58.6483 94.9481 56.5675 95.8711C54.4867 96.794 52.2903 97.5631 49.9782 97.9862C45.3157 98.6784 40.6145 98.14 36.2602 96.6786L38.0328 94.9481C38.4567 96.2941 39.1503 97.5631 39.998 98.7168C40.4219 99.2937 40.8843 99.7936 41.4238 100.294C41.9247 100.793 42.5027 101.216 43.0807 101.601C44.2752 102.37 45.5854 102.947 46.9341 103.255C48.3213 103.601 49.747 103.716 51.1343 103.601L56.1436 103.139L52.1747 106.254C51.2113 107.023 50.1324 107.677 49.0149 108.215C47.8974 108.754 46.7029 109.177 45.5083 109.485C44.3138 109.754 43.0422 109.946 41.8091 109.946C40.576 109.984 39.3044 109.831 38.1099 109.6L39.9209 107.754C41.732 115.368 41.8091 123.406 40.0365 131.058C39.8053 132.02 39.5741 132.981 39.3044 133.904C39.1503 134.366 39.0347 134.827 38.8805 135.327C38.8035 135.596 38.7264 135.827 38.6493 136.019L38.3796 136.712C37.7245 138.48 37.108 140.249 36.5685 142.018C35.4896 145.595 34.6418 149.248 34.0253 152.902C32.7922 160.247 32.561 167.784 33.3317 175.206C33.717 178.936 34.3335 182.628 35.1813 186.243C35.6052 188.051 36.1061 189.858 36.6456 191.665C37.185 193.434 37.8016 195.203 38.5337 196.895C41.5008 203.702 45.5469 210.124 50.1709 216.047C52.4829 219.008 54.9491 221.853 57.4923 224.622C58.7639 226.007 60.0741 227.353 61.4228 228.66C62.0778 229.314 62.7714 229.968 63.4651 230.622C64.1587 231.275 64.8523 231.967 65.5073 232.66C68.2047 235.429 70.7094 238.351 73.0214 241.389C75.3334 244.427 77.6455 247.465 79.6107 250.811C80.574 252.503 81.4988 254.234 81.9998 256.233C82.1154 256.733 82.231 257.233 82.231 257.772C82.2695 258.31 82.231 258.887 82.0769 259.425C81.9227 259.964 81.653 260.54 81.2291 260.963C80.8438 261.386 80.3428 261.733 79.8804 261.963C78.8786 262.425 77.8767 262.655 76.8748 262.732C75.8729 262.809 74.8325 262.732 73.8306 262.54C71.7883 262.117 69.9773 261.002 68.6286 259.464L69.5919 258.656C71.2489 260.694 73.0214 262.54 74.9866 264.271C76.9519 266.001 79.0327 267.539 81.2676 268.885C83.5026 270.231 85.8532 271.423 88.2808 272.308C90.7084 273.231 93.2516 273.923 95.7949 274.385C98.3766 274.846 100.958 275.077 103.579 275.077C106.199 275.077 108.819 274.885 111.401 274.538C112.711 274.385 114.021 274.192 115.293 273.962L119.146 273.231C119.455 273.192 119.801 273.077 120.11 273L121.073 272.731L122.961 272.231C123.269 272.154 123.578 272.077 123.886 271.962L124.811 271.654L126.66 271.039C136.525 267.539 145.426 261.579 152.863 254.311C154.713 252.503 156.486 250.58 158.22 248.619C159.954 246.658 161.611 244.658 163.075 242.543C163.807 241.466 164.462 240.389 165.079 239.274C165.695 238.159 166.235 236.967 166.774 235.813C167.776 233.467 168.547 231.006 169.125 228.506C169.24 227.891 169.394 227.276 169.51 226.622L169.818 224.738C169.972 223.469 170.126 222.2 170.165 220.892C170.281 218.316 170.281 215.739 170.126 213.162C169.934 210.586 169.703 207.971 169.356 205.394C169.009 202.818 168.624 200.241 168.161 197.665L167.468 193.78C167.352 193.127 167.236 192.473 167.121 191.858L166.735 189.935L165.965 186.089L165.079 182.282C163.884 177.167 162.535 172.13 161.032 167.092C159.568 162.054 157.988 157.016 156.64 151.902C156.293 150.633 155.985 149.325 155.676 148.056C155.329 146.787 155.098 145.48 154.829 144.172C154.713 143.518 154.559 142.865 154.443 142.211L154.135 140.249C154.019 139.596 153.904 138.942 153.827 138.288L153.595 136.288C152.478 125.713 152.979 115.022 154.829 104.601L155.407 105.37L140.879 103.255L126.429 101.063Z" fill="black"/>
<path d="M122.884 263.463C125.581 262.156 128.125 260.502 130.514 258.733C131.092 258.271 131.708 257.848 132.286 257.349L134.02 255.926L135.677 254.426L136.101 254.041L136.486 253.657L137.296 252.888C138.375 251.849 139.338 250.734 140.378 249.657L141.804 247.927L142.498 247.081C142.729 246.773 142.96 246.465 143.153 246.196L144.463 244.389C144.925 243.812 145.272 243.158 145.696 242.543C146.081 241.928 146.544 241.312 146.891 240.659L148.008 238.736C150.937 233.544 153.172 228.045 154.713 222.315C156.254 216.585 157.179 210.701 157.564 204.779C157.641 203.279 157.68 201.818 157.719 200.318L157.757 199.203C157.757 198.818 157.796 198.472 157.757 198.088L157.68 195.857L157.603 193.627C157.564 192.896 157.603 192.127 157.526 191.396L157.179 186.935L157.102 185.82C157.063 185.435 157.063 185.089 156.986 184.705L156.678 182.474L156.1 178.052C155.83 176.591 155.561 175.129 155.291 173.629L154.906 171.437L154.713 170.322C154.636 169.938 154.559 169.592 154.482 169.245C151.977 157.555 148.316 146.095 144.155 134.827C149.087 145.787 153.133 157.17 155.985 168.899C158.836 180.628 160.185 192.742 159.568 204.856C159.144 210.893 158.181 216.931 156.524 222.776C154.867 228.622 152.516 234.275 149.357 239.466L148.162 241.428C147.777 242.081 147.314 242.697 146.891 243.312C146.467 243.927 146.043 244.581 145.58 245.158L144.155 246.927C143.923 247.235 143.692 247.542 143.461 247.811L142.69 248.657L141.188 250.349L139.608 251.965C139.338 252.234 139.068 252.503 138.798 252.772L137.951 253.541L137.103 254.31L136.679 254.695L136.255 255.041L134.521 256.502L132.71 257.848C132.094 258.31 131.477 258.694 130.861 259.156C129.589 260.002 128.317 260.771 127.007 261.502C125.658 262.232 124.31 262.925 122.884 263.463Z" fill="black"/>
<path d="M120.726 260.656C123.115 258.348 125.196 255.772 127.084 253.118C128.934 250.426 130.629 247.619 132.016 244.696C132.71 243.235 133.365 241.735 133.905 240.197C134.213 239.428 134.444 238.659 134.714 237.89C134.868 237.505 134.945 237.121 135.061 236.736C135.176 236.351 135.33 235.967 135.407 235.582C136.294 232.429 136.949 229.199 137.488 225.891C137.758 229.237 137.527 232.621 136.872 235.928C136.563 237.582 136.14 239.236 135.6 240.851C135.369 241.658 135.022 242.428 134.752 243.235C134.406 244.004 134.097 244.812 133.712 245.542C132.286 248.619 130.398 251.503 128.24 254.08C127.161 255.387 125.967 256.579 124.734 257.695C123.539 258.771 122.19 259.848 120.726 260.656Z" fill="black"/>
<path d="M118.761 125.405C118.144 124.944 117.412 124.559 116.719 124.213C116.372 124.021 116.025 123.867 115.64 123.713C115.293 123.559 114.907 123.367 114.561 123.213C113.829 122.906 113.019 122.79 112.403 122.252C112.095 122.021 111.786 121.714 111.517 121.406C111.247 121.098 110.977 120.714 110.746 120.252L110.861 120.06C111.863 119.829 112.711 119.983 113.52 120.214C113.906 120.329 114.291 120.56 114.599 120.829C114.907 121.098 115.216 121.367 115.563 121.637C115.871 121.906 116.218 122.137 116.526 122.444C116.834 122.713 117.142 123.021 117.451 123.29C118.029 123.906 118.607 124.521 118.992 125.29L118.761 125.405Z" fill="black"/>
<path d="M148.047 125.367L147.815 111.369L148.47 111.407L148.393 113.945C148.393 114.138 148.201 114.33 148.008 114.33C147.931 114.33 147.854 114.292 147.815 114.253L127.084 100.601L128.202 99.0244L148.239 113.638L147.623 113.945L147.815 111.407C147.815 111.215 147.97 111.1 148.162 111.1C148.355 111.1 148.47 111.253 148.47 111.446L148.047 125.367Z" fill="black"/>
<path d="M127.392 100.717L89.7835 88.6029C89.6294 88.5644 89.5523 88.4106 89.5908 88.2568C89.5908 88.2183 89.6294 88.1799 89.6679 88.1414L91.9414 85.9879L92.2496 86.2955L82.6162 94.2175L91.9799 85.9879C92.057 85.9109 92.2111 85.9109 92.2882 85.9879C92.3652 86.0648 92.3652 86.2186 92.2882 86.2955L90.0918 88.526L89.9762 88.0645L127.97 98.8707L127.392 100.717Z" fill="black"/>
<path d="M120.611 109.138C120.842 108.792 121.073 108.408 121.266 108.062C121.805 107.1 123.424 105.062 126.275 107.023C129.936 109.523 125.273 116.599 125.273 116.599C125.273 116.599 123.578 120.137 120.302 118.368C117.258 116.676 118.684 112.177 120.611 109.138Z" fill="black"/>
<path d="M150.821 121.098C150.821 121.098 154.674 135.25 155.06 141.249L150.821 121.098Z" fill="white"/>
<path d="M150.821 121.098C150.821 121.098 154.674 135.25 155.06 141.249" stroke="black" stroke-width="3" stroke-miterlimit="12" stroke-linecap="round"/>
<path d="M141.573 89.4106C140.224 85.9496 136.563 83.7191 133.057 83.5653C127.238 83.2961 121.073 88.5646 121.844 94.756C122.499 100.025 128.009 103.986 133.211 103.293C139.646 102.447 143.692 94.9099 141.573 89.4106Z" fill="#E4A581" stroke="black" stroke-width="2.3033" stroke-miterlimit="10"/>
<path d="M137.103 88.5647C136.718 87.5649 135.639 86.9111 134.637 86.8726C132.941 86.7957 131.13 88.334 131.361 90.1414C131.554 91.6797 133.172 92.8333 134.675 92.6411C136.525 92.3334 137.719 90.1414 137.103 88.5647Z" fill="url(#paint0_radial_1067_2218)"/>
<path d="M157.141 76.2587C157.141 76.2587 158.836 60.2994 149.627 57.2229C140.417 54.1849 139.338 73.2591 139.338 73.2591C139.338 73.2591 138.259 86.3342 146.467 88.7954C154.636 91.2951 157.064 77.7585 157.141 76.2587Z" fill="white"/>
<path d="M157.141 76.2587C157.41 72.913 157.179 69.4904 156.37 66.2216C156.177 65.414 155.869 64.6065 155.561 63.8373C155.253 63.0682 154.867 62.3375 154.443 61.6453C153.981 60.9531 153.48 60.2994 152.902 59.761C152.324 59.2226 151.669 58.7227 150.937 58.3766C150.243 58.0305 149.472 57.7613 148.702 57.6074C147.931 57.4921 147.199 57.5305 146.505 57.7613C145.812 57.992 145.195 58.415 144.694 58.9534C144.155 59.4918 143.731 60.1455 143.346 60.8377C142.575 62.2222 142.035 63.7604 141.612 65.3371C141.188 66.9138 140.879 68.529 140.648 70.1826C140.533 70.9902 140.417 71.8362 140.34 72.6438C140.263 73.4514 140.224 74.259 140.224 75.0665C140.224 76.6817 140.34 78.3353 140.61 79.912C140.918 81.4887 141.342 83.0654 142.113 84.4498C142.845 85.8343 143.924 87.0649 145.311 87.834C146.698 88.6031 148.355 89.0261 149.896 88.6031C151.438 88.1801 152.748 87.0264 153.711 85.6804C154.675 84.3345 155.407 82.7578 155.946 81.1811C156.524 79.6044 156.948 77.9508 157.141 76.2587ZM157.141 76.2587C157.064 77.1047 156.871 77.9123 156.717 78.7583C156.524 79.5659 156.293 80.4119 156.062 81.1811C155.561 82.7962 154.906 84.3729 153.981 85.7958C153.519 86.488 152.979 87.1802 152.362 87.7955C151.707 88.3724 150.975 88.8723 150.128 89.18C149.28 89.4876 148.355 89.5645 147.469 89.4492C146.582 89.3338 145.696 89.103 144.887 88.7185C143.269 87.9494 141.881 86.6418 140.956 85.1421C140.032 83.6038 139.377 81.9502 138.991 80.2197C138.606 78.5276 138.413 76.7586 138.375 75.0281C138.336 74.1436 138.375 73.2591 138.452 72.4131C138.529 71.567 138.644 70.6825 138.76 69.8365C139.03 68.1444 139.377 66.4524 139.878 64.7603C140.378 63.1067 141.034 61.4531 141.958 59.9148C142.421 59.1457 142.999 58.415 143.692 57.7997C144.386 57.1844 145.234 56.646 146.159 56.4153C147.083 56.1461 148.085 56.1846 148.972 56.4153C149.858 56.646 150.667 57.0306 151.438 57.4921C152.208 57.992 152.863 58.5304 153.48 59.1841C154.058 59.8379 154.559 60.5686 154.983 61.3377C155.407 62.1068 155.715 62.8759 156.023 63.6835C156.293 64.4911 156.486 65.2987 156.678 66.1447C156.832 66.9907 156.987 67.7983 157.102 68.6444C157.218 69.4904 157.256 70.3364 157.295 71.1825C157.295 72.913 157.295 74.6051 157.141 76.2587Z" fill="black"/>
<path d="M144.502 78.7197C142.883 80.4887 142.536 84.2959 143.5 86.2187C144.771 88.8337 148.047 89.9874 150.667 87.9877C152.786 86.3341 153.981 82.873 153.018 80.4118C151.592 76.8354 147.16 75.8355 144.502 78.7197Z" fill="black"/>
<path d="M145.696 85.7956C146.313 85.7956 146.814 85.2963 146.814 84.6804C146.814 84.0645 146.313 83.5652 145.696 83.5652C145.079 83.5652 144.579 84.0645 144.579 84.6804C144.579 85.2963 145.079 85.7956 145.696 85.7956Z" fill="white"/>
<path d="M150.86 46.9165L149.742 51.762C149.742 51.762 160.377 53.531 163.152 60.4531C163.152 60.4915 161.996 49.1854 150.86 46.9165Z" fill="white"/>
<path d="M150.86 46.9165L149.973 51.8389L149.781 51.5697C151.168 51.8004 152.517 52.1081 153.865 52.5696C155.175 53.031 156.486 53.531 157.719 54.2232C158.952 54.9154 160.146 55.723 161.148 56.7228C161.649 57.2228 162.112 57.7996 162.535 58.3764C162.959 58.9917 163.306 59.607 163.576 60.2993L162.651 60.53C162.458 58.9917 161.957 57.4535 161.379 55.9922C160.763 54.5308 159.954 53.1464 158.913 51.9158C158.412 51.3005 157.834 50.7237 157.256 50.2237C156.64 49.6854 156.023 49.2239 155.33 48.8009C153.981 47.9548 152.44 47.378 150.86 46.9165ZM150.86 46.9165C152.478 47.1472 154.058 47.6472 155.561 48.3778C156.293 48.7624 156.987 49.2239 157.642 49.7238C158.297 50.2237 158.913 50.8006 159.453 51.4159C160.57 52.6465 161.495 54.0694 162.189 55.6076C162.535 56.3767 162.844 57.1458 163.075 57.9534C163.306 58.761 163.499 59.5686 163.614 60.4146C163.653 60.6838 163.46 60.9146 163.19 60.953C162.959 60.9915 162.767 60.8761 162.69 60.6454V60.6069C162.42 59.9916 162.112 59.4148 161.765 58.8764C161.379 58.338 160.956 57.8381 160.493 57.3381C159.568 56.4152 158.451 55.6076 157.295 54.9154C156.139 54.2232 154.906 53.6463 153.634 53.1464C152.363 52.6465 151.052 52.2235 149.704 51.9543H149.665C149.55 51.9158 149.472 51.8004 149.511 51.6851L150.205 49.2239L150.86 46.9165Z" fill="black"/>
<path d="M120.611 59.0301C120.611 59.0301 123.385 39.8789 106.469 37.9176C97.6445 36.9178 94.3692 48.4546 93.2131 55.2229C92.4039 59.9146 93.2131 64.7601 95.7178 68.798C97.4519 71.6822 100.188 74.451 104.388 75.6816C114.869 78.9119 120.649 65.3754 120.611 59.0301Z" fill="white"/>
<path d="M120.611 59.0301C120.842 56.8766 120.803 54.6461 120.495 52.4926C120.187 50.339 119.57 48.2239 118.607 46.2627C117.643 44.3399 116.256 42.6093 114.522 41.3403L113.867 40.8788L113.174 40.4558L112.827 40.2635L112.48 40.1097L111.748 39.7636C110.746 39.379 109.744 39.0329 108.704 38.8406L107.933 38.6868C107.663 38.6483 107.394 38.6099 107.124 38.5714L106.315 38.4945L105.544 38.4561C104.503 38.4561 103.502 38.6868 102.615 39.0714C101.691 39.4559 100.843 40.0328 100.149 40.7634C99.417 41.4556 98.8005 42.3017 98.2225 43.1862C97.105 44.9552 96.3343 46.9164 95.6793 48.9546C95.0242 50.9928 94.5618 53.0694 94.215 55.1845C93.8296 57.2611 93.7526 59.3378 94.0608 61.4144C94.3306 63.491 94.9086 65.4908 95.8334 67.3751C96.7582 69.2595 97.9913 70.99 99.5326 72.3744C101.074 73.7588 102.962 74.8356 104.966 75.4125C105.968 75.7201 107.008 75.8739 108.049 75.797C109.089 75.7586 110.129 75.5278 111.131 75.1048C113.097 74.2588 114.792 72.7974 116.102 71.1054C117.412 69.3748 118.491 67.452 119.262 65.4138C120.033 63.3757 120.572 61.2221 120.611 59.0301ZM120.611 59.0301C120.611 61.2221 120.071 63.3757 119.378 65.4523C118.645 67.5289 117.682 69.4902 116.372 71.2976C115.1 73.0666 113.482 74.6818 111.44 75.6816C110.438 76.1816 109.32 76.4892 108.164 76.6046C107.008 76.72 105.891 76.6046 104.773 76.3739C102.577 75.8739 100.457 74.8741 98.6849 73.4127C96.9123 71.9514 95.448 70.144 94.3691 68.1442C93.2902 66.1445 92.5195 63.9525 92.2112 61.6836C91.8644 59.4147 91.9415 57.1073 92.3268 54.8769C92.7122 52.6848 93.2516 50.5313 93.9452 48.3778C94.6774 46.2627 95.6022 44.186 96.8738 42.2632C97.5289 41.3018 98.261 40.4173 99.1473 39.6482C100.034 38.8791 101.035 38.2253 102.153 37.8408C103.27 37.4177 104.465 37.2639 105.621 37.3408C105.929 37.3793 106.199 37.3793 106.469 37.4177L107.316 37.5716C107.586 37.61 107.856 37.6485 108.126 37.7254L108.935 37.9561C110.014 38.2253 111.054 38.6483 112.095 39.1098L112.827 39.5328L113.212 39.7251L113.559 39.9559C113.79 40.1097 114.021 40.2635 114.253 40.4173L114.908 40.9557C116.642 42.3786 117.952 44.2245 118.877 46.2242C119.339 47.2241 119.686 48.2624 119.994 49.3392C120.264 50.4159 120.456 51.4927 120.611 52.5695C120.842 54.6846 120.88 56.8766 120.611 59.0301Z" fill="black"/>
<path d="M109.397 61.1067C107.548 59.9531 105.159 60.6453 104.927 60.7222C102.076 61.5682 100.92 64.2602 100.65 64.8755C99.1473 68.2981 99.8409 73.5281 103.386 75.4894C104.889 76.3354 107.201 76.72 109.012 75.7201C113.482 73.2974 113.328 63.5295 109.397 61.1067Z" fill="black"/>
<path d="M102.5 71.6438C103.202 71.6438 103.771 71.0756 103.771 70.3748C103.771 69.6739 103.202 69.1057 102.5 69.1057C101.797 69.1057 101.228 69.6739 101.228 70.3748C101.228 71.0756 101.797 71.6438 102.5 71.6438Z" fill="white"/>
<path d="M125.35 35.995C125.35 35.995 120.649 38.4177 120.457 39.4561C120.264 40.4944 113.79 28.2269 106.739 27.3039C106.739 27.3039 114.176 23.1506 125.35 35.995Z" fill="white"/>
<path d="M125.35 35.995C124.464 36.5333 123.578 37.0717 122.73 37.6486C122.306 37.9562 121.882 38.2254 121.497 38.5715C121.304 38.7253 121.112 38.9176 120.957 39.0715C120.88 39.1484 120.803 39.2637 120.765 39.3406C120.726 39.3791 120.726 39.4176 120.726 39.456C120.726 39.456 120.726 39.6483 120.495 39.7252C120.456 39.7252 120.418 39.7252 120.341 39.7252C120.302 39.7252 120.302 39.7252 120.264 39.6868C120.225 39.6868 120.187 39.6483 120.187 39.6483C120.033 39.5329 119.956 39.4176 119.84 39.3406C119.763 39.2253 119.647 39.1484 119.57 39.033L119.069 38.4177L118.106 37.1871C117.489 36.3795 116.834 35.5719 116.179 34.7644C114.869 33.1877 113.443 31.6879 111.902 30.3804C110.361 29.1113 108.55 28.0345 106.661 27.7653H106.623C106.353 27.7269 106.16 27.4961 106.199 27.2269C106.238 27.0731 106.315 26.9193 106.469 26.8808C106.97 26.6116 107.394 26.5347 107.894 26.4194C108.126 26.3809 108.357 26.3425 108.588 26.304C108.819 26.2655 109.051 26.2655 109.32 26.2271C109.551 26.1886 109.783 26.1886 110.052 26.2271C110.284 26.2271 110.515 26.2271 110.746 26.2655L111.44 26.3425C111.671 26.3809 111.902 26.3809 112.133 26.4578C113.983 26.8424 115.717 27.6115 117.258 28.5729L117.836 28.919L118.414 29.3036L119.532 30.1112C119.878 30.4188 120.225 30.688 120.572 30.9957C120.919 31.3033 121.266 31.5725 121.612 31.9186L122.576 32.88C122.884 33.2261 123.231 33.4953 123.539 33.8799C124.194 34.6105 124.772 35.3412 125.35 35.995ZM125.35 35.995C124.695 35.3027 124.002 34.6874 123.385 34.0721C122.73 33.4568 122.036 32.88 121.343 32.2647C120.649 31.6879 119.917 31.1495 119.185 30.6111L118.067 29.8804L117.489 29.4959L116.911 29.1882C115.37 28.3037 113.675 27.65 111.979 27.3039C111.748 27.2654 111.555 27.2269 111.324 27.1885L110.669 27.1116C110.438 27.1116 110.245 27.1116 110.014 27.1116C109.783 27.1116 109.59 27.1116 109.359 27.1116C109.128 27.15 108.935 27.15 108.704 27.1885C108.511 27.2269 108.28 27.2654 108.087 27.3039C107.894 27.3808 107.663 27.4192 107.471 27.4577C107.278 27.5346 107.047 27.6115 106.931 27.6884L106.738 26.8039C107.856 26.9578 108.896 27.3423 109.86 27.8422C110.823 28.3422 111.671 28.9959 112.48 29.6497C114.098 31.0341 115.486 32.6108 116.796 34.2644C117.451 35.072 118.067 35.918 118.645 36.8025L119.532 38.0716L119.994 38.6869C120.071 38.8023 120.148 38.8792 120.225 38.9945C120.302 39.0715 120.379 39.1868 120.456 39.2253C120.456 39.2253 120.456 39.2253 120.418 39.2253C120.379 39.2253 120.341 39.2253 120.341 39.2253C120.187 39.2637 120.187 39.4176 120.225 39.3406C120.264 39.2253 120.302 39.1484 120.341 39.1099C120.418 38.9945 120.534 38.8792 120.611 38.7638C120.803 38.5715 121.034 38.4177 121.227 38.2254C121.651 37.9178 122.113 37.6486 122.537 37.3794C123.462 36.8794 124.387 36.418 125.35 35.995Z" fill="black"/>
<path d="M37.2236 135.058L45.3928 145.364C45.1231 145.326 33.8327 143.057 35.297 159.708L20.5 139.75L48.3214 112.6L57.9163 122.79L37.2236 135.058Z" fill="#87CCE9" stroke="black" stroke-width="5" stroke-miterlimit="12"/>
<path d="M186.657 120.945L185.193 118.791L121.651 144.672V147.056L121.227 150.056L187.351 123.79L186.657 120.945Z" fill="white"/>
<path d="M186.657 120.945L185.193 118.791L169.317 125.329L153.441 131.828L121.689 144.826L121.805 144.672V147.056L121.381 150.056L121.111 149.864L154.212 136.789L170.743 130.251L187.312 123.752L186.657 120.945ZM186.657 120.945L187.389 123.79L170.897 130.443L154.366 137.058L121.304 150.248L120.996 150.364L121.034 150.056L121.458 147.056V147.095V144.71V144.595L121.574 144.557L153.364 131.674L169.279 125.213L185.193 118.829L186.657 120.945Z" fill="black"/>
<path d="M57.2994 117.022L55.18 119.022L54.3323 121.521L121.304 149.364L121.651 147.056V144.672L57.2994 117.022Z" fill="white"/>
<path d="M57.2996 117.022L55.1802 119.022L54.371 121.56V121.521L71.1332 128.405L87.8954 135.327L121.381 149.171L121.111 149.325L121.458 147.018V147.056V144.672L121.574 144.826L89.4753 130.943L73.4067 123.983L57.2996 117.022ZM57.2996 117.022L73.3681 123.829L89.4753 130.712L121.689 144.48L121.805 144.518V144.634V147.018L121.497 149.325L121.458 149.556L121.227 149.479L87.7798 135.519L71.0561 128.52L54.3325 121.56H54.2939V121.521L55.1417 119.022L57.2996 117.022Z" fill="black"/>
<path d="M52.7913 117.983L37.031 181.052L112.326 211.855L164.539 192.819L191.513 118.983L121.651 147.056L52.7913 117.983Z" fill="#52402E"/>
<path d="M52.8298 118.099L45.3542 149.864L41.6164 165.592L37.8016 181.244L37.3392 180.321L56.1822 187.974C62.4632 190.55 68.7442 193.127 74.9867 195.742C81.2677 198.357 87.4716 201.01 93.7526 203.625L112.48 211.509H112.172L125.273 206.856L138.336 202.125L151.361 197.318L157.873 194.934L164.385 192.511L164.154 192.665L177.294 155.632L183.922 137.135L190.588 118.637L191.821 119.829L174.365 126.905L156.909 133.943L139.492 140.942L121.998 147.864L121.651 148.018L121.304 147.864L104.272 140.519C98.6078 138.096 92.9049 135.596 87.2404 133.097L52.8298 118.099ZM52.7142 117.906L87.1633 131.943C92.9434 134.289 98.762 136.635 104.542 139.057L121.959 146.249H121.266L138.683 139.134L156.139 132.058L173.595 125.059L191.089 118.099L193.054 117.33L192.322 119.329L185.501 137.75L178.642 156.17L164.924 192.973L164.847 193.165L164.655 193.242L158.104 195.588L151.553 197.934L138.49 202.664L125.466 207.432L112.441 212.278L112.287 212.316L112.133 212.239L93.2131 204.74C86.9321 202.241 80.6126 199.741 74.3316 197.203C68.0506 194.665 61.7696 192.127 55.4886 189.55L36.6841 181.782L36.0291 181.513L36.1832 180.821L40.2678 164.938L44.4294 149.133L52.7142 117.906Z" fill="black"/>
<path d="M121.69 147.056L121.535 149.094L121.343 151.133L120.996 155.209L120.11 163.362L119.878 165.4L119.609 167.438L119.108 171.514L117.99 179.629L116.757 187.704C116.295 190.396 115.909 193.088 115.409 195.78L113.983 203.856L113.174 207.894L112.788 209.894L112.364 211.893H112.249L116.834 179.475L121.535 147.095L121.69 147.056Z" fill="black"/>
<path d="M118.761 145.826L118.568 147.864L118.337 149.902L117.875 153.94L116.796 162.016L116.526 164.015L116.218 166.015L115.601 170.053L114.291 178.09L112.865 186.089C112.364 188.743 111.902 191.435 111.324 194.088L109.705 202.049L108.819 206.009L108.357 208.009L107.856 210.009L107.74 209.97L113.135 177.86L118.645 145.787L118.761 145.826Z" fill="black"/>
<path d="M127.662 144.672L127.47 146.749L127.238 148.825L126.776 152.94L125.736 161.17L125.466 163.246L125.158 165.284L124.58 169.399L123.308 177.59L121.921 185.782C121.42 188.512 120.957 191.242 120.418 193.934L118.838 202.087L117.952 206.163L117.528 208.201L117.066 210.24H116.95L122.191 177.475L127.547 144.749L127.662 144.672Z" fill="black"/>
<path d="M172.593 163.362L161.418 164.054L153.172 172.591L153.904 175.552L161.996 183.397L175.56 181.052L178.527 169.861L172.593 163.362Z" fill="#E7A381" stroke="black" stroke-width="5" stroke-miterlimit="12"/>
<path d="M65.3531 146.556L54.7178 163.054L39.497 165.4L35.2583 159.708C33.794 143.057 45.1229 145.326 45.3541 145.364L46.3174 146.556H65.3531Z" fill="#E7A381" stroke="black" stroke-width="5" stroke-miterlimit="12"/>
</g>
<defs>
<radialGradient id="paint0_radial_1067_2218" cx="0" cy="0" r="1" gradientUnits="userSpaceOnUse" gradientTransform="translate(134.35 89.6991) rotate(130.523) scale(2.89774 2.89865)">
<stop stop-color="white"/>
<stop offset="1" stop-color="white" stop-opacity="0"/>
</radialGradient>
<clipPath id="clip0_1067_2218">
<rect width="214.093" height="276" fill="white"/>
</clipPath>
</defs>
</svg>
