<svg width="1021" height="418" viewBox="0 0 1021 418" fill="none" xmlns="http://www.w3.org/2000/svg">
<path d="M0.372803 396.18H19.2728V243.36H0.372803V225.54H68.4128L110.533 316.26H111.613L151.033 225.54H220.153V243.36H201.253V396.18H220.153V414H138.613V396.18H157.513V258.75H155.893L140.233 298.17L98.9228 385.11L57.8828 298.17L41.9528 258.75H40.3328V396.18H59.2328V414H0.372803V396.18Z" fill="#0F172A"/>
<path d="M237.294 396.18H253.494V299.79L237.294 296.28V280.89L293.724 269.28V296.01H294.804C297.324 288.45 301.374 282.15 306.954 277.11C312.534 271.89 319.824 269.28 328.824 269.28C337.644 269.28 344.574 271.71 349.614 276.57C354.654 281.25 357.174 287.73 357.174 296.01C357.174 303.21 355.284 308.88 351.504 313.02C347.724 317.16 342.414 319.23 335.574 319.23C329.094 319.23 324.144 317.52 320.724 314.1C317.304 310.5 315.594 306.27 315.594 301.41C315.594 299.25 316.044 297.27 316.944 295.47C317.844 293.67 318.924 292.5 320.184 291.96L319.914 290.61C319.374 290.43 318.564 290.34 317.484 290.34C314.604 290.34 311.814 291.15 309.114 292.77C306.414 294.39 303.984 296.46 301.824 298.98C299.664 301.5 297.864 304.29 296.424 307.35C295.164 310.41 294.534 313.38 294.534 316.26V396.18H316.134V414H237.294V396.18Z" fill="#0F172A"/>
<path d="M367.583 417.24C359.663 417.24 353.633 414.99 349.493 410.49C345.353 405.81 343.283 400.23 343.283 393.75V392.67C343.283 386.19 345.353 380.7 349.493 376.2C353.633 371.52 359.663 369.18 367.583 369.18C375.503 369.18 381.533 371.52 385.673 376.2C389.813 380.7 391.883 386.19 391.883 392.67V393.75C391.883 400.23 389.813 405.81 385.673 410.49C381.533 414.99 375.503 417.24 367.583 417.24Z" fill="#0F172A"/>
<path d="M412.735 396.18H431.635V243.36H412.735V225.54H563.125V275.76H531.805V244.98H475.375V306H511.015V289.8H530.995V341.64H511.015V325.44H475.375V394.56H533.965V358.38H565.285V414H412.735V396.18Z" fill="#0F172A"/>
<path d="M583.699 397.26L655.519 291.42H612.319V314.64H585.859V272.52H703.579V290.34L631.759 395.1H679.279V371.88H705.739V414H583.699V397.26Z" fill="#0F172A"/>
<path d="M721.041 396.18H739.941V243.36H721.041V225.54H824.991C844.791 225.54 859.551 229.95 869.271 238.77C879.171 247.41 884.121 260.19 884.121 277.11C884.121 294.21 878.811 307.62 868.191 317.34C857.571 326.88 842.361 331.65 822.561 331.65H783.681V396.18H809.331V414H721.041V396.18ZM783.681 312.21H810.411C819.591 312.21 826.701 310.05 831.741 305.73C836.961 301.23 839.571 294.48 839.571 285.48V271.71C839.571 262.71 836.961 256.05 831.741 251.73C826.701 247.23 819.591 244.98 810.411 244.98H783.681V312.21Z" fill="#0F172A"/>
<path d="M898.07 397.26L969.89 291.42H926.69V314.64H900.23V272.52H1017.95V290.34L946.13 395.1H993.65V371.88H1020.11V414H898.07V397.26Z" fill="#0F172A"/>
<path d="M12.5233 196.48C10.7099 196.48 9.02992 196.147 7.48325 195.48C5.96325 194.813 4.65659 193.867 3.56325 192.64C2.46992 191.387 1.61659 189.88 1.00325 188.12C0.389919 186.333 0.083252 184.32 0.083252 182.08C0.083252 179.733 0.416586 177.667 1.08325 175.88C1.77659 174.067 2.70992 172.547 3.88325 171.32C5.08325 170.093 6.46992 169.173 8.04325 168.56C9.61659 167.92 11.2966 167.6 13.0833 167.6C14.9233 167.6 16.3766 167.907 17.4433 168.52C18.5366 169.133 19.2566 169.76 19.6033 170.4H19.8433V168.08H24.4833V176.96H19.8433V175.2C19.8433 173.813 19.4166 172.707 18.5633 171.88C17.7099 171.053 16.3233 170.64 14.4033 170.64C11.9766 170.64 10.1633 171.267 8.96325 172.52C7.78992 173.747 7.20325 175.667 7.20325 178.28V185.92C7.20325 188.347 7.72325 190.187 8.76325 191.44C9.82992 192.667 11.3233 193.28 13.2433 193.28C15.1099 193.28 16.4833 192.813 17.3633 191.88C18.2433 190.92 18.6833 189.733 18.6833 188.32V184.56H14.6833V181.92H27.1233V184.56H25.0833V196H22.8833L20.4433 192H20.1633C20.0299 192.453 19.7499 192.947 19.3233 193.48C18.8966 193.987 18.3366 194.467 17.6433 194.92C16.9766 195.347 16.2033 195.707 15.3233 196C14.4699 196.32 13.5366 196.48 12.5233 196.48Z" fill="#F96033"/>
<path d="M29.8989 193.36H32.2989V179.08L29.8989 178.56V176.28L38.2589 174.56V178.52H38.4189C38.7922 177.4 39.3922 176.467 40.2189 175.72C41.0455 174.947 42.1255 174.56 43.4589 174.56C44.7655 174.56 45.7922 174.92 46.5389 175.64C47.2855 176.333 47.6589 177.293 47.6589 178.52C47.6589 179.587 47.3789 180.427 46.8189 181.04C46.2589 181.653 45.4722 181.96 44.4589 181.96C43.4989 181.96 42.7655 181.707 42.2589 181.2C41.7522 180.667 41.4989 180.04 41.4989 179.32C41.4989 179 41.5655 178.707 41.6989 178.44C41.8322 178.173 41.9922 178 42.1789 177.92L42.1389 177.72C42.0589 177.693 41.9389 177.68 41.7789 177.68C41.3522 177.68 40.9389 177.8 40.5389 178.04C40.1389 178.28 39.7789 178.587 39.4589 178.96C39.1389 179.333 38.8722 179.747 38.6589 180.2C38.4722 180.653 38.3789 181.093 38.3789 181.52V193.36H41.5789V196H29.8989V193.36Z" fill="#F96033"/>
<path d="M59.3054 196.48C57.6521 196.48 56.1854 196.213 54.9054 195.68C53.6521 195.12 52.5854 194.36 51.7054 193.4C50.8521 192.413 50.1988 191.253 49.7454 189.92C49.2921 188.56 49.0654 187.08 49.0654 185.48C49.0654 183.8 49.2921 182.28 49.7454 180.92C50.2254 179.56 50.8921 178.413 51.7454 177.48C52.6254 176.547 53.6654 175.827 54.8654 175.32C56.0921 174.813 57.4521 174.56 58.9454 174.56C60.4388 174.56 61.7854 174.787 62.9854 175.24C64.1854 175.693 65.1988 176.347 66.0254 177.2C66.8788 178.027 67.5321 179.04 67.9854 180.24C68.4388 181.44 68.6654 182.773 68.6654 184.24V185.6H55.5054V187.2C55.5054 188.987 55.9721 190.333 56.9054 191.24C57.8388 192.147 59.0788 192.6 60.6254 192.6C62.0654 192.6 63.2254 192.28 64.1054 191.64C64.9854 190.973 65.6121 190.173 65.9854 189.24L68.1854 190.56C67.9454 191.227 67.5988 191.907 67.1454 192.6C66.6921 193.293 66.1054 193.933 65.3854 194.52C64.6654 195.08 63.7988 195.547 62.7854 195.92C61.7721 196.293 60.6121 196.48 59.3054 196.48ZM55.5054 183.08H62.3854V182.52C62.3854 180.6 62.0788 179.253 61.4654 178.48C60.8521 177.707 60.0121 177.32 58.9454 177.32C57.8788 177.32 57.0388 177.707 56.4254 178.48C55.8121 179.253 55.5054 180.6 55.5054 182.52V183.08Z" fill="#F96033"/>
<path d="M81.3617 196.48C79.7084 196.48 78.2417 196.213 76.9617 195.68C75.7084 195.12 74.6417 194.36 73.7617 193.4C72.9084 192.413 72.255 191.253 71.8017 189.92C71.3484 188.56 71.1217 187.08 71.1217 185.48C71.1217 183.8 71.3484 182.28 71.8017 180.92C72.2817 179.56 72.9483 178.413 73.8017 177.48C74.6817 176.547 75.7217 175.827 76.9217 175.32C78.1484 174.813 79.5084 174.56 81.0017 174.56C82.495 174.56 83.8417 174.787 85.0417 175.24C86.2417 175.693 87.255 176.347 88.0817 177.2C88.935 178.027 89.5884 179.04 90.0417 180.24C90.495 181.44 90.7217 182.773 90.7217 184.24V185.6H77.5617V187.2C77.5617 188.987 78.0284 190.333 78.9617 191.24C79.895 192.147 81.135 192.6 82.6817 192.6C84.1217 192.6 85.2817 192.28 86.1617 191.64C87.0417 190.973 87.6684 190.173 88.0417 189.24L90.2417 190.56C90.0017 191.227 89.655 191.907 89.2017 192.6C88.7484 193.293 88.1617 193.933 87.4417 194.52C86.7217 195.08 85.855 195.547 84.8417 195.92C83.8283 196.293 82.6684 196.48 81.3617 196.48ZM77.5617 183.08H84.4417V182.52C84.4417 180.6 84.135 179.253 83.5217 178.48C82.9083 177.707 82.0684 177.32 81.0017 177.32C79.935 177.32 79.095 177.707 78.4817 178.48C77.8683 179.253 77.5617 180.6 77.5617 182.52V183.08Z" fill="#F96033"/>
<path d="M99.9379 196.4C98.3379 196.4 97.1513 196.053 96.3779 195.36C95.6313 194.64 95.2579 193.587 95.2579 192.2V177.84H92.4579V175.04H93.5379C94.4179 175.04 95.0579 174.853 95.4579 174.48C95.8846 174.08 96.2846 173.493 96.6579 172.72L98.3379 169.24H101.338V175.04H105.938V177.84H101.338V193.28H105.938V195.64C105.511 195.827 104.751 196 103.658 196.16C102.565 196.32 101.325 196.4 99.9379 196.4Z" fill="#F96033"/>
<path d="M113.25 172.28C112.13 172.28 111.25 171.973 110.61 171.36C109.997 170.747 109.69 169.92 109.69 168.88V168.68C109.69 167.64 109.997 166.813 110.61 166.2C111.25 165.587 112.13 165.28 113.25 165.28C114.37 165.28 115.237 165.587 115.85 166.2C116.49 166.813 116.81 167.64 116.81 168.68V168.88C116.81 169.92 116.49 170.747 115.85 171.36C115.237 171.973 114.37 172.28 113.25 172.28ZM107.85 193.36H110.25V179.08L107.85 178.56V176.28L116.33 174.56V193.36H118.73V196H107.85V193.36Z" fill="#F96033"/>
<path d="M120.649 193.36H123.049V179.08L120.649 178.56V176.28L129.009 174.56V178.52H129.209C129.582 177.453 130.249 176.533 131.209 175.76C132.169 174.96 133.489 174.56 135.169 174.56C137.729 174.56 139.529 175.213 140.569 176.52C141.636 177.8 142.169 179.733 142.169 182.32V193.36H144.569V196H133.889V193.36H136.089V182.52C136.089 181.107 135.836 180.107 135.329 179.52C134.849 178.907 134.022 178.6 132.849 178.6C132.396 178.6 131.942 178.667 131.489 178.8C131.036 178.907 130.636 179.093 130.289 179.36C129.942 179.6 129.662 179.92 129.449 180.32C129.236 180.693 129.129 181.16 129.129 181.72V193.36H131.329V196H120.649V193.36Z" fill="#F96033"/>
<path d="M156.173 204.48C154.2 204.48 152.56 204.373 151.253 204.16C149.947 203.947 148.893 203.64 148.093 203.24C147.32 202.84 146.773 202.36 146.453 201.8C146.133 201.24 145.973 200.6 145.973 199.88C145.973 198.867 146.4 198.04 147.253 197.4C148.133 196.787 149.213 196.373 150.493 196.16V196C149.56 195.787 148.8 195.347 148.213 194.68C147.653 193.987 147.373 193.107 147.373 192.04C147.373 190.813 147.773 189.867 148.573 189.2C149.4 188.507 150.387 188.027 151.533 187.76V187.6C150.173 187.067 149.12 186.293 148.373 185.28C147.653 184.267 147.293 183 147.293 181.48C147.293 180.36 147.507 179.373 147.933 178.52C148.36 177.667 148.96 176.947 149.733 176.36C150.507 175.773 151.44 175.333 152.533 175.04C153.627 174.72 154.84 174.56 156.173 174.56C157.133 174.56 158.027 174.64 158.853 174.8C159.707 174.96 160.52 175.227 161.293 175.6C161.587 172.667 162.907 171.2 165.253 171.2C166.027 171.2 166.667 171.427 167.173 171.88C167.707 172.307 167.973 172.933 167.973 173.76C167.973 174.533 167.733 175.16 167.253 175.64C166.8 176.093 166.147 176.32 165.293 176.32C164.307 176.32 163.533 175.987 162.973 175.32H162.813V176.52C163.533 177.107 164.093 177.8 164.493 178.6C164.92 179.4 165.133 180.36 165.133 181.48C165.133 182.6 164.92 183.587 164.493 184.44C164.067 185.293 163.453 186.013 162.653 186.6C161.88 187.187 160.947 187.64 159.853 187.96C158.76 188.253 157.547 188.4 156.213 188.4C155.653 188.4 155.12 188.373 154.613 188.32C154.107 188.267 153.613 188.187 153.133 188.08C152.387 188.56 152.013 189.173 152.013 189.92C152.013 190.48 152.227 190.907 152.653 191.2C153.08 191.467 153.76 191.6 154.693 191.6H159.333C160.773 191.6 162 191.747 163.013 192.04C164.053 192.307 164.893 192.693 165.533 193.2C166.173 193.707 166.64 194.32 166.933 195.04C167.227 195.733 167.373 196.52 167.373 197.4C167.373 199.613 166.453 201.347 164.613 202.6C162.773 203.853 159.96 204.48 156.173 204.48ZM156.213 185.64C158.213 185.64 159.213 184.413 159.213 181.96V181C159.213 178.547 158.213 177.32 156.213 177.32C154.213 177.32 153.213 178.547 153.213 181V181.96C153.213 184.413 154.213 185.64 156.213 185.64ZM150.893 199.36C150.893 200.213 151.227 200.84 151.893 201.24C152.587 201.667 153.693 201.88 155.213 201.88H157.773C160.84 201.88 162.373 200.973 162.373 199.16C162.373 198.28 162.067 197.693 161.453 197.4C160.867 197.107 160 196.96 158.853 196.96H152.053C151.68 197.253 151.387 197.573 151.173 197.92C150.987 198.293 150.893 198.773 150.893 199.36Z" fill="#F96033"/>
<path d="M178.216 196.48C176.75 196.48 175.63 196.213 174.856 195.68C174.083 195.12 173.59 194.507 173.376 193.84H173.216V196H169.296V189.76H173.216V190.4C173.216 191.44 173.536 192.227 174.176 192.76C174.816 193.293 175.856 193.56 177.296 193.56C178.576 193.56 179.51 193.36 180.096 192.96C180.683 192.56 180.976 191.947 180.976 191.12C180.976 190.453 180.763 189.947 180.336 189.6C179.91 189.227 179.203 188.893 178.216 188.6L176.336 188.08C174.016 187.44 172.296 186.587 171.176 185.52C170.083 184.427 169.536 182.96 169.536 181.12C169.536 179.013 170.23 177.4 171.616 176.28C173.003 175.133 174.83 174.56 177.096 174.56C178.51 174.56 179.59 174.827 180.336 175.36C181.083 175.893 181.563 176.493 181.776 177.16H181.936V175.04H185.856V181.28H181.936V180.56C181.936 179.547 181.616 178.787 180.976 178.28C180.363 177.747 179.35 177.48 177.936 177.48C175.91 177.48 174.896 178.213 174.896 179.68C174.896 180.373 175.096 180.933 175.496 181.36C175.923 181.787 176.683 182.133 177.776 182.4L179.496 182.84C180.616 183.133 181.603 183.467 182.456 183.84C183.31 184.213 184.016 184.667 184.576 185.2C185.163 185.707 185.603 186.333 185.896 187.08C186.19 187.8 186.336 188.667 186.336 189.68C186.336 191.893 185.59 193.587 184.096 194.76C182.603 195.907 180.643 196.48 178.216 196.48Z" fill="#F96033"/>
<path d="M188.569 201.84C189.689 200.907 190.609 200.027 191.329 199.2C192.049 198.373 192.569 197.467 192.889 196.48H192.809C191.929 196.48 191.142 196.173 190.449 195.56C189.782 194.947 189.449 194.093 189.449 193V192.84C189.449 191.88 189.756 191.067 190.369 190.4C190.982 189.707 191.876 189.36 193.049 189.36C194.222 189.36 195.116 189.707 195.729 190.4C196.342 191.067 196.649 191.88 196.649 192.84V193.44C196.649 194.24 196.529 195.04 196.289 195.84C196.049 196.613 195.729 197.36 195.329 198.08C194.929 198.8 194.462 199.48 193.929 200.12C193.396 200.76 192.822 201.333 192.209 201.84H188.569Z" fill="#F96033"/>
<path d="M208.274 193.36H210.674V179.08L208.274 178.56V176.28L216.634 174.56V178.52H216.834C217.207 177.453 217.847 176.533 218.754 175.76C219.687 174.96 220.981 174.56 222.634 174.56C224.447 174.56 225.861 174.893 226.874 175.56C227.914 176.227 228.621 177.213 228.994 178.52H229.154C229.581 177.48 230.301 176.56 231.314 175.76C232.327 174.96 233.674 174.56 235.354 174.56C237.861 174.56 239.621 175.2 240.634 176.48C241.674 177.76 242.194 179.693 242.194 182.28V193.36H244.594V196H234.034V193.36H236.114V182.52C236.114 181.107 235.874 180.107 235.394 179.52C234.941 178.907 234.154 178.6 233.034 178.6C232.581 178.6 232.141 178.667 231.714 178.8C231.287 178.907 230.901 179.093 230.554 179.36C230.234 179.6 229.967 179.92 229.754 180.32C229.567 180.72 229.474 181.187 229.474 181.72V193.36H231.554V196H221.314V193.36H223.394V182.52C223.394 181.107 223.154 180.107 222.674 179.52C222.221 178.907 221.447 178.6 220.354 178.6C219.421 178.6 218.581 178.853 217.834 179.36C217.114 179.84 216.754 180.627 216.754 181.72V193.36H218.834V196H208.274V193.36Z" fill="#F96033"/>
<path d="M249.514 204.48C247.914 204.48 246.674 204.08 245.794 203.28C244.914 202.507 244.474 201.573 244.474 200.48C244.474 199.52 244.741 198.773 245.274 198.24C245.834 197.707 246.594 197.44 247.554 197.44C248.488 197.44 249.208 197.733 249.714 198.32C250.221 198.907 250.474 199.587 250.474 200.36C250.474 200.707 250.421 201.027 250.314 201.32C250.208 201.64 250.088 201.893 249.954 202.08L250.034 202.32C250.141 202.347 250.288 202.36 250.474 202.36C251.168 202.36 251.808 201.987 252.394 201.24C252.981 200.493 253.541 199.427 254.074 198.04L254.474 197L246.874 177.68H244.954V175.04H255.474V177.68H253.234L257.434 189.8H257.674L261.914 177.68H259.674V175.04H267.034V177.68H265.154L256.754 198.16C256.461 198.88 256.114 199.613 255.714 200.36C255.314 201.133 254.834 201.813 254.274 202.4C253.714 203.013 253.048 203.507 252.274 203.88C251.501 204.28 250.581 204.48 249.514 204.48Z" fill="#F96033"/>
<path d="M276.943 193.36H279.343V179.08L276.943 178.56V176.28L285.303 174.56V178.52H285.503C285.876 177.453 286.543 176.533 287.503 175.76C288.463 174.96 289.783 174.56 291.463 174.56C294.023 174.56 295.823 175.213 296.863 176.52C297.929 177.8 298.463 179.733 298.463 182.32V193.36H300.863V196H290.183V193.36H292.383V182.52C292.383 181.107 292.129 180.107 291.623 179.52C291.143 178.907 290.316 178.6 289.143 178.6C288.689 178.6 288.236 178.667 287.783 178.8C287.329 178.907 286.929 179.093 286.583 179.36C286.236 179.6 285.956 179.92 285.743 180.32C285.529 180.693 285.423 181.16 285.423 181.72V193.36H287.623V196H276.943V193.36Z" fill="#F96033"/>
<path d="M309.147 196.48C306.88 196.48 305.227 195.96 304.187 194.92C303.174 193.853 302.667 192.373 302.667 190.48C302.667 186.347 305.72 184.28 311.827 184.28H314.627V182C314.627 180.373 314.32 179.147 313.707 178.32C313.094 177.493 312.027 177.08 310.507 177.08C309.947 177.08 309.467 177.12 309.067 177.2C308.667 177.28 308.32 177.387 308.027 177.52V177.72C308.294 177.853 308.547 178.093 308.787 178.44C309.054 178.787 309.187 179.253 309.187 179.84C309.187 180.64 308.934 181.32 308.427 181.88C307.92 182.413 307.16 182.68 306.147 182.68C305.347 182.68 304.68 182.4 304.147 181.84C303.614 181.28 303.347 180.573 303.347 179.72C303.347 179.08 303.534 178.453 303.907 177.84C304.28 177.2 304.84 176.64 305.587 176.16C306.334 175.68 307.254 175.293 308.347 175C309.467 174.707 310.747 174.56 312.187 174.56C315.094 174.56 317.24 175.187 318.627 176.44C320.014 177.667 320.707 179.413 320.707 181.68V193.36H323.107V195.64C322.654 195.907 322.067 196.107 321.347 196.24C320.627 196.4 319.88 196.48 319.107 196.48C317.64 196.48 316.6 196.147 315.987 195.48C315.4 194.787 315.107 193.933 315.107 192.92V192.84H314.867C314.68 193.293 314.44 193.733 314.147 194.16C313.88 194.587 313.52 194.973 313.067 195.32C312.64 195.667 312.107 195.947 311.467 196.16C310.827 196.373 310.054 196.48 309.147 196.48ZM311.427 192.88C312.414 192.88 313.187 192.653 313.747 192.2C314.334 191.747 314.627 190.96 314.627 189.84V186.68H312.467C311.187 186.68 310.227 186.947 309.587 187.48C308.974 188.013 308.667 188.773 308.667 189.76V190.4C308.667 191.253 308.92 191.88 309.427 192.28C309.934 192.68 310.6 192.88 311.427 192.88Z" fill="#F96033"/>
<path d="M325.079 193.36H327.479V179.08L325.079 178.56V176.28L333.439 174.56V178.52H333.639C334.012 177.453 334.652 176.533 335.559 175.76C336.492 174.96 337.785 174.56 339.439 174.56C341.252 174.56 342.665 174.893 343.679 175.56C344.719 176.227 345.425 177.213 345.799 178.52H345.959C346.385 177.48 347.105 176.56 348.119 175.76C349.132 174.96 350.479 174.56 352.159 174.56C354.665 174.56 356.425 175.2 357.439 176.48C358.479 177.76 358.999 179.693 358.999 182.28V193.36H361.399V196H350.839V193.36H352.919V182.52C352.919 181.107 352.679 180.107 352.199 179.52C351.745 178.907 350.959 178.6 349.839 178.6C349.385 178.6 348.945 178.667 348.519 178.8C348.092 178.907 347.705 179.093 347.359 179.36C347.039 179.6 346.772 179.92 346.559 180.32C346.372 180.72 346.279 181.187 346.279 181.72V193.36H348.359V196H338.119V193.36H340.199V182.52C340.199 181.107 339.959 180.107 339.479 179.52C339.025 178.907 338.252 178.6 337.159 178.6C336.225 178.6 335.385 178.853 334.639 179.36C333.919 179.84 333.559 180.627 333.559 181.72V193.36H335.639V196H325.079V193.36Z" fill="#F96033"/>
<path d="M373.587 196.48C371.933 196.48 370.467 196.213 369.187 195.68C367.933 195.12 366.867 194.36 365.987 193.4C365.133 192.413 364.48 191.253 364.027 189.92C363.573 188.56 363.347 187.08 363.347 185.48C363.347 183.8 363.573 182.28 364.027 180.92C364.507 179.56 365.173 178.413 366.027 177.48C366.907 176.547 367.947 175.827 369.147 175.32C370.373 174.813 371.733 174.56 373.227 174.56C374.72 174.56 376.067 174.787 377.267 175.24C378.467 175.693 379.48 176.347 380.307 177.2C381.16 178.027 381.813 179.04 382.267 180.24C382.72 181.44 382.947 182.773 382.947 184.24V185.6H369.787V187.2C369.787 188.987 370.253 190.333 371.187 191.24C372.12 192.147 373.36 192.6 374.907 192.6C376.347 192.6 377.507 192.28 378.387 191.64C379.267 190.973 379.893 190.173 380.267 189.24L382.467 190.56C382.227 191.227 381.88 191.907 381.427 192.6C380.973 193.293 380.387 193.933 379.667 194.52C378.947 195.08 378.08 195.547 377.067 195.92C376.053 196.293 374.893 196.48 373.587 196.48ZM369.787 183.08H376.667V182.52C376.667 180.6 376.36 179.253 375.747 178.48C375.133 177.707 374.293 177.32 373.227 177.32C372.16 177.32 371.32 177.707 370.707 178.48C370.093 179.253 369.787 180.6 369.787 182.52V183.08Z" fill="#F96033"/>
<path d="M399.46 172.28C398.34 172.28 397.46 171.973 396.82 171.36C396.206 170.747 395.9 169.92 395.9 168.88V168.68C395.9 167.64 396.206 166.813 396.82 166.2C397.46 165.587 398.34 165.28 399.46 165.28C400.58 165.28 401.447 165.587 402.06 166.2C402.7 166.813 403.02 167.64 403.02 168.68V168.88C403.02 169.92 402.7 170.747 402.06 171.36C401.447 171.973 400.58 172.28 399.46 172.28ZM394.06 193.36H396.46V179.08L394.06 178.56V176.28L402.54 174.56V193.36H404.94V196H394.06V193.36Z" fill="#F96033"/>
<path d="M415.938 196.48C414.472 196.48 413.352 196.213 412.578 195.68C411.805 195.12 411.312 194.507 411.098 193.84H410.938V196H407.018V189.76H410.938V190.4C410.938 191.44 411.258 192.227 411.898 192.76C412.538 193.293 413.578 193.56 415.018 193.56C416.298 193.56 417.232 193.36 417.818 192.96C418.405 192.56 418.698 191.947 418.698 191.12C418.698 190.453 418.485 189.947 418.058 189.6C417.632 189.227 416.925 188.893 415.938 188.6L414.058 188.08C411.738 187.44 410.018 186.587 408.898 185.52C407.805 184.427 407.258 182.96 407.258 181.12C407.258 179.013 407.952 177.4 409.338 176.28C410.725 175.133 412.552 174.56 414.818 174.56C416.232 174.56 417.312 174.827 418.058 175.36C418.805 175.893 419.285 176.493 419.498 177.16H419.658V175.04H423.578V181.28H419.658V180.56C419.658 179.547 419.338 178.787 418.698 178.28C418.085 177.747 417.072 177.48 415.658 177.48C413.632 177.48 412.618 178.213 412.618 179.68C412.618 180.373 412.818 180.933 413.218 181.36C413.645 181.787 414.405 182.133 415.498 182.4L417.218 182.84C418.338 183.133 419.325 183.467 420.178 183.84C421.032 184.213 421.738 184.667 422.298 185.2C422.885 185.707 423.325 186.333 423.618 187.08C423.912 187.8 424.058 188.667 424.058 189.68C424.058 191.893 423.312 193.587 421.818 194.76C420.325 195.907 418.365 196.48 415.938 196.48Z" fill="#F96033"/>
<g clip-path="url(#clip0_1455_1306)">
<path opacity="0.5" d="M750.26 155.763C773.685 155.763 792.674 136.794 792.674 113.395C792.674 89.9957 773.685 71.0269 750.26 71.0269C726.836 71.0269 707.847 89.9957 707.847 113.395C707.847 136.794 726.836 155.763 750.26 155.763Z" fill="url(#paint0_radial_1455_1306)"/>
<path opacity="0.5" d="M834.434 95.0833C857.858 95.0833 876.847 76.1144 876.847 52.7152C876.847 29.316 857.858 10.3472 834.434 10.3472C811.009 10.3472 792.02 29.316 792.02 52.7152C792.02 76.1144 811.009 95.0833 834.434 95.0833Z" fill="url(#paint1_radial_1455_1306)"/>
<path d="M766.239 17.2997C766.239 17.2997 803.914 13.8724 817.932 25.0357C817.932 25.0357 840.773 20.4659 837.636 48.2761C837.636 48.2761 853.222 64.9556 844.04 78.4363C844.04 78.4363 840.707 98.6085 828.356 98.6085C816.004 98.6085 781.139 96.291 781.139 96.291L751.633 99.9794L745.718 90.7747C745.718 90.7747 735.197 88.9141 736.961 79.3177L740.98 69.558L734.805 67.0773L736.961 46.285L740.294 30.095L766.239 17.2997Z" fill="#E7A382"/>
<path d="M727.452 203.027C731.831 192.092 736.242 181.158 740.621 170.223C745.522 172.083 750.391 173.977 755.292 175.837C750.064 186.837 744.803 197.837 739.575 208.837C735.523 206.911 731.504 204.986 727.452 203.027Z" fill="#ABB992" stroke="black" stroke-width="2.06184" stroke-miterlimit="10"/>
<path d="M846.556 211.155L837.701 155.632L803.849 163.466L813.031 212.656L846.556 211.155Z" fill="#ABB992" stroke="black" stroke-width="2.06184" stroke-miterlimit="10"/>
<path d="M799.111 225.321H854.17C854.17 225.321 850.673 200.089 827.572 200.089C797.444 200.089 799.111 225.321 799.111 225.321Z" fill="#73430C" stroke="black" stroke-width="2.06184" stroke-miterlimit="10"/>
<path d="M817.148 207.532C817.998 206.683 819.043 206.03 820.154 205.54C821.265 205.051 822.441 204.692 823.683 204.529C824.304 204.431 824.925 204.431 825.546 204.431C826.167 204.463 826.787 204.529 827.376 204.692C828.585 204.986 829.728 205.54 830.643 206.324C829.467 205.997 828.356 205.769 827.245 205.704C826.689 205.671 826.134 205.638 825.578 205.671C825.023 205.704 824.467 205.736 823.912 205.802C822.801 205.932 821.69 206.193 820.579 206.487C819.37 206.813 818.292 207.14 817.148 207.532Z" fill="black"/>
<path d="M819.926 210.11C820.252 209.359 820.84 208.739 821.527 208.282C822.213 207.825 823.03 207.499 823.847 207.368C824.043 207.336 824.271 207.336 824.467 207.303C824.664 207.303 824.892 207.27 825.088 207.303C825.284 207.336 825.513 207.336 825.709 207.368C825.905 207.401 826.101 207.466 826.33 207.532C826.526 207.597 826.722 207.63 826.918 207.727C827.114 207.793 827.278 207.891 827.474 207.989C827.833 208.184 828.16 208.413 828.454 208.707C828.029 208.707 827.67 208.641 827.278 208.609C827.082 208.609 826.886 208.576 826.722 208.576C826.624 208.576 826.526 208.543 826.461 208.543H826.199C826.003 208.543 825.84 208.543 825.644 208.543C825.448 208.543 825.284 208.576 825.121 208.576C824.958 208.576 824.762 208.609 824.598 208.609C824.435 208.641 824.239 208.641 824.075 208.674C823.389 208.772 822.703 208.968 822.017 209.196C821.331 209.425 820.644 209.719 819.926 210.11Z" fill="black"/>
<path d="M713.761 225.321H768.82C768.82 225.321 765.324 200.089 742.222 200.089C712.095 200.089 713.761 225.321 713.761 225.321Z" fill="#73430C" stroke="black" stroke-width="2.06184" stroke-miterlimit="10"/>
<path d="M731.798 207.532C732.648 206.683 733.694 206.03 734.805 205.54C735.916 205.051 737.092 204.692 738.334 204.529C738.954 204.431 739.575 204.431 740.196 204.431C740.817 204.463 741.438 204.529 742.026 204.692C743.235 204.986 744.379 205.54 745.294 206.324C744.117 205.997 743.006 205.769 741.895 205.704C741.34 205.671 740.784 205.638 740.229 205.671C739.673 205.704 739.118 205.736 738.562 205.802C737.451 205.932 736.34 206.193 735.229 206.487C734.02 206.813 732.909 207.14 731.798 207.532Z" fill="black"/>
<path d="M734.576 210.11C734.902 209.359 735.491 208.739 736.177 208.282C736.863 207.825 737.68 207.499 738.497 207.368C738.693 207.336 738.922 207.336 739.118 207.303C739.314 207.303 739.542 207.27 739.738 207.303C739.935 207.336 740.163 207.336 740.359 207.368C740.555 207.401 740.751 207.466 740.98 207.532C741.176 207.597 741.372 207.629 741.568 207.727C741.764 207.793 741.928 207.891 742.124 207.989C742.483 208.184 742.81 208.413 743.104 208.707C742.679 208.707 742.32 208.641 741.928 208.609C741.732 208.609 741.536 208.576 741.372 208.576C741.274 208.576 741.176 208.543 741.111 208.543H740.849C740.653 208.543 740.49 208.543 740.294 208.543C740.098 208.543 739.935 208.576 739.771 208.576C739.608 208.576 739.412 208.609 739.248 208.609C739.085 208.641 738.889 208.641 738.726 208.674C738.039 208.772 737.353 208.968 736.667 209.196C735.948 209.425 735.295 209.719 734.576 210.11Z" fill="black"/>
<path d="M852.34 153.968C852.34 153.968 852.928 166.306 845.478 167.905C838.061 169.505 834.368 168.558 834.368 168.558L837.668 155.502L852.34 153.968Z" fill="#E7A381" stroke="black" stroke-width="2.02355" stroke-miterlimit="12"/>
<path d="M833.976 110.49C833.976 110.49 855.346 153.315 851.981 155.339C848.615 157.362 838.976 163.009 834.793 150.018C830.61 137.027 822.932 114.341 822.932 114.341L833.976 110.49Z" fill="#87CCE9" stroke="black" stroke-width="2.02355" stroke-miterlimit="12"/>
<path d="M721.081 147.864C721.081 147.864 714.153 159.321 717.911 162.65C721.669 165.98 725.263 168.885 725.263 168.885C725.263 168.885 727.714 171.985 729.478 157.33C731.243 142.674 721.081 147.864 721.081 147.864Z" fill="#E7A381" stroke="black" stroke-width="2.02355" stroke-miterlimit="12"/>
<path d="M719.806 146.428L729.478 157.297L756.534 104.81L745.849 98.6411L719.806 146.428Z" fill="#87CCE9" stroke="black" stroke-width="2.02355" stroke-miterlimit="12"/>
<path d="M826.428 49.0921C825.35 47.4274 824.467 45.6648 823.814 43.8369C823.16 42.009 822.768 40.1158 822.572 38.19C823.487 41.911 825.284 45.3384 827.735 48.0802L826.428 49.0921Z" fill="black"/>
<path d="M828.323 93.4839C829.5 92.8963 830.676 92.1782 831.754 91.4275C832.31 91.0358 832.865 90.6114 833.388 90.2198C833.944 89.7954 834.466 89.3711 834.989 88.9468C836.035 88.0981 837.015 87.1515 837.897 86.1396C838.78 85.1278 839.498 84.018 840.021 82.8102C841.1 80.3948 841.165 77.555 840.348 74.9764C839.956 73.6708 839.368 72.4304 838.649 71.2553C837.93 70.0803 837.08 68.9705 836.133 67.9586C837.146 68.9052 838.061 69.9497 838.878 71.0921C839.694 72.2346 840.381 73.4749 840.871 74.7806C841.394 76.0862 841.688 77.5224 841.72 78.9586L841.753 79.5135L841.72 80.0684C841.688 80.4275 841.688 80.7865 841.622 81.1456C841.557 81.5046 841.492 81.8637 841.394 82.2227L841.263 82.745C841.198 82.9082 841.132 83.104 841.1 83.2672C840.609 84.6381 839.891 85.9111 839.008 87.0862C838.159 88.2287 837.146 89.3058 836.133 90.285C835.61 90.7747 835.087 91.2316 834.564 91.7212C834.042 92.1782 833.519 92.6352 832.963 93.0922C831.852 94.0061 830.643 94.8221 829.434 95.5402L828.323 93.4839Z" fill="black"/>
<path d="M828.846 94.4957C829.892 93.9082 831.362 93.0269 832.996 91.7212C836.1 89.2405 840.381 85.8459 841.198 80.7212C842.276 74.0951 844.204 75.4987 843.452 74.7806L847.7 75.5313C847.7 75.5313 847.7 98.9349 831.101 99.3592C814.534 99.8162 828.846 94.4957 828.846 94.4957Z" fill="#F3F7FC"/>
<path d="M828.846 94.4957C829.794 93.9735 830.676 93.4186 831.558 92.7984C832.44 92.1782 833.257 91.4927 834.107 90.8399C835.741 89.469 837.342 88.0328 838.616 86.3028C839.89 84.6055 840.805 82.6144 841.067 80.5254C841.23 79.4482 841.426 78.4037 841.753 77.3592C841.916 76.8369 842.112 76.3147 842.439 75.8251C842.603 75.5639 842.766 75.3354 842.995 75.1396C843.093 75.0417 843.256 74.9438 843.321 74.8785C843.321 74.8785 843.321 74.8458 843.256 75.009C843.223 75.107 843.256 75.1722 843.256 75.2049C843.256 75.2375 843.289 75.2375 843.289 75.2375L843.191 75.1396L842.341 74.3236L843.55 74.4541C844.269 74.5521 844.988 74.65 845.674 74.7479C846.393 74.8458 847.079 74.9764 847.798 75.107L848.223 75.1722V75.5966C848.19 77.6203 847.961 79.6114 847.602 81.6025C847.243 83.5936 846.752 85.5194 846.066 87.4126C845.38 89.3058 844.498 91.1337 843.387 92.7984C842.243 94.4631 840.838 95.9646 839.172 97.107C837.505 98.2494 835.577 99.0002 833.584 99.3266C832.604 99.4898 831.591 99.5551 830.578 99.5551C829.598 99.5551 828.585 99.5551 827.604 99.4898C826.624 99.4245 825.611 99.3592 824.631 99.1634C824.402 99.0981 824.141 99.0328 823.912 98.9675C823.683 98.8696 823.454 98.7717 823.258 98.5758C823.16 98.4779 823.095 98.38 823.062 98.2494C823.03 98.1189 823.062 97.9883 823.095 97.8577C823.193 97.6293 823.356 97.4334 823.553 97.2702C824.304 96.6174 825.186 96.1604 826.069 95.7034C827.016 95.2138 827.931 94.8221 828.846 94.4957ZM828.846 94.4957C827.931 94.8548 827.016 95.2465 826.101 95.6708C825.219 96.1278 824.337 96.5847 823.585 97.2376C823.422 97.4008 823.226 97.5966 823.16 97.8251C823.128 97.923 823.095 98.0536 823.128 98.1842C823.16 98.3147 823.226 98.4126 823.324 98.4779C823.487 98.6411 823.716 98.739 823.945 98.837C824.173 98.9349 824.402 98.9675 824.663 99.0328C825.644 99.2287 826.624 99.2939 827.604 99.3266C828.585 99.3592 829.598 99.3266 830.578 99.294C831.558 99.2613 832.538 99.196 833.519 99.0002C835.447 98.6085 837.309 97.8577 838.878 96.6827C840.446 95.5402 841.753 94.0387 842.799 92.4067C843.844 90.7746 844.628 88.9467 845.249 87.1189C845.87 85.2583 846.328 83.3325 846.654 81.4067C846.981 79.4809 847.177 77.4898 847.21 75.5639L847.602 76.0536C846.883 75.923 846.197 75.7924 845.478 75.6619C844.759 75.4987 844.073 75.3681 843.354 75.2049L843.681 74.5521C843.746 74.6173 843.779 74.65 843.844 74.7479C843.877 74.7806 843.877 74.8132 843.91 74.8785C843.942 74.9438 843.975 75.0743 843.91 75.1722C843.877 75.2702 843.812 75.3354 843.779 75.3681C843.746 75.4007 843.714 75.4334 843.681 75.4334C843.517 75.5313 843.452 75.5639 843.354 75.6292C843.191 75.7598 843.027 75.9556 842.864 76.1515C842.57 76.5432 842.341 77.0328 842.145 77.4898C841.753 78.469 841.492 79.4809 841.296 80.5254C840.936 82.6797 839.956 84.6708 838.616 86.3355C837.309 88.0328 835.675 89.469 834.009 90.8073C833.159 91.4928 832.342 92.1456 831.46 92.7658C830.709 93.4186 829.794 93.9735 828.846 94.4957Z" fill="black"/>
<path d="M818.586 25.4273C818.586 25.4273 838.387 10.641 850.249 32.9674C862.11 55.2939 849.399 76.3147 849.399 76.3147C849.399 76.3147 843.223 84.8014 839.237 85.65C839.237 85.65 844.073 78.8281 841.067 65.6411C841.067 65.6411 831.199 59.7983 826.951 49.8755C822.703 39.9526 825.219 30.8784 825.219 30.8784L818.586 25.4273Z" fill="#F3F7FC"/>
<path d="M818.586 25.4274C819.991 24.3828 821.494 23.5342 823.03 22.7834C824.598 22.0327 826.232 21.4451 827.931 21.0208C829.63 20.5965 831.362 20.368 833.126 20.368C834.891 20.368 836.655 20.6291 838.322 21.184C840.021 21.7389 841.622 22.5223 843.06 23.5668C844.498 24.6113 845.805 25.819 846.948 27.1573C847.243 27.4837 847.504 27.8428 847.765 28.1692C848.027 28.5282 848.321 28.8547 848.55 29.2137C849.04 29.9318 849.562 30.6499 849.987 31.4333L850.641 32.5757C850.87 32.9674 851.033 33.3591 851.229 33.7508C851.425 34.1425 851.621 34.5342 851.817 34.9259L852.34 36.1336C853.059 37.733 853.647 39.3977 854.17 41.0624C854.66 42.7597 855.085 44.4571 855.346 46.187C855.934 49.647 856.098 53.1722 855.869 56.6974C855.64 60.19 854.987 63.6826 854.006 67.0446C853.516 68.742 852.961 70.374 852.307 72.0061C851.981 72.8221 851.621 73.6381 851.262 74.4215C850.87 75.2375 850.51 75.9883 850.02 76.8043V76.8369L849.987 76.8696C849.268 77.8488 848.55 78.7628 847.765 79.6441C847.014 80.558 846.197 81.4393 845.38 82.288C844.53 83.1367 843.681 83.9527 842.701 84.7034C842.21 85.0625 841.72 85.4215 841.165 85.7479C840.609 86.0744 840.021 86.3355 839.302 86.4987L837.374 86.923L838.485 85.291C838.583 85.1604 838.681 84.9646 838.779 84.8013C838.877 84.6381 838.975 84.4423 839.074 84.2791C839.172 84.1159 839.237 83.92 839.335 83.7242C839.433 83.5284 839.498 83.3651 839.564 83.1693L839.792 82.5818L839.988 81.9942C840.119 81.6025 840.217 81.2108 840.348 80.8191C840.773 79.2197 841.034 77.555 841.165 75.8904L841.23 74.65C841.263 74.2257 841.23 73.8013 841.23 73.4096C841.23 72.561 841.165 71.7449 841.099 70.8963C841.067 70.4719 841.001 70.0476 840.969 69.6559L840.805 68.4156C840.675 67.5995 840.479 66.7509 840.348 65.9348L840.675 66.3918C839.172 65.4452 837.799 64.4007 836.492 63.2909C835.185 62.1811 833.911 60.9734 832.734 59.7331C831.558 58.4601 830.48 57.1218 829.467 55.6856C828.487 54.2494 827.604 52.7805 826.885 51.1811C826.134 49.6143 825.611 47.9496 825.154 46.3176C824.729 44.6529 824.435 42.9556 824.271 41.2256C824.141 39.4956 824.108 37.7983 824.239 36.0683C824.369 34.371 824.598 32.641 825.023 30.9763L825.088 31.1722L818.586 25.4274ZM818.586 25.4274C819.729 26.3413 820.873 27.2226 821.984 28.1039C823.128 28.9852 824.206 29.8665 825.317 30.7478L825.415 30.8131L825.382 30.9437C825.023 32.5757 824.859 34.2731 824.794 35.9704C824.729 37.6677 824.827 39.3324 825.023 41.0298C825.154 41.8458 825.252 42.6944 825.448 43.5105C825.578 44.3265 825.84 45.1425 826.036 45.9585C826.526 47.558 827.081 49.1574 827.833 50.6262C828.552 52.1277 829.467 53.5313 830.414 54.9022C831.395 56.2405 832.473 57.5461 833.649 58.7538C834.826 59.9615 836.067 61.104 837.342 62.1485C837.995 62.6707 838.649 63.193 839.335 63.6826C840.021 64.1722 840.707 64.6618 841.394 65.0535L841.655 65.2167L841.72 65.5105C841.884 66.3592 842.08 67.2078 842.243 68.0565L842.439 69.3622C842.504 69.7865 842.57 70.2108 842.603 70.6678C842.668 71.5491 842.766 72.3978 842.766 73.2791C842.766 73.7034 842.799 74.1604 842.766 74.5847L842.733 75.8904C842.635 77.653 842.374 79.3829 841.949 81.1129C841.818 81.5372 841.72 81.9616 841.59 82.3859L841.394 83.0061L841.165 83.6263C841.099 83.8221 841.001 84.0506 840.903 84.2465C840.805 84.4423 840.74 84.6708 840.609 84.8666C840.511 85.0625 840.413 85.2583 840.283 85.4868C840.184 85.6827 840.054 85.8785 839.923 86.107L839.106 84.8666C840.021 84.6708 840.969 84.0506 841.851 83.3651C842.733 82.6797 843.55 81.8963 844.367 81.0803C845.151 80.2642 845.935 79.4156 846.654 78.5343C847.406 77.653 848.125 76.739 848.778 75.8251L848.746 75.8904C849.138 75.2049 849.53 74.4215 849.889 73.6708C850.249 72.92 850.575 72.1366 850.902 71.3533C851.556 69.7865 852.111 68.1871 852.569 66.555C853.059 64.923 853.451 63.2583 853.745 61.5936C854.039 59.9289 854.268 58.2316 854.399 56.5342C854.66 53.1396 854.562 49.7449 854.006 46.3829C853.778 44.6855 853.353 43.0535 852.928 41.4214C852.438 39.7894 851.915 38.19 851.229 36.6232C849.889 33.4897 848.288 30.4541 846.132 27.8428C845.053 26.5371 843.844 25.3621 842.504 24.3176C841.165 23.3057 839.662 22.5223 838.061 21.9348C836.459 21.3799 834.793 21.0535 833.094 20.9882C831.395 20.9229 829.696 21.0861 827.996 21.4451C826.33 21.8042 824.696 22.3591 823.095 23.0119C821.559 23.6647 820.023 24.4481 818.586 25.4274Z" fill="black"/>
<path d="M819.207 22.457C819.043 21.0861 819.37 19.6825 820.056 18.4422C820.383 17.822 820.84 17.2345 821.363 16.7448C821.886 16.2552 822.474 15.8309 823.095 15.5045C823.422 15.3413 823.748 15.2107 824.075 15.0801C824.402 14.9822 824.729 14.8517 825.088 14.7864C825.774 14.6232 826.461 14.5253 827.147 14.4926C828.519 14.4273 829.924 14.5905 831.231 14.9169C829.859 14.9822 828.519 15.0475 827.245 15.2434C826.591 15.3739 825.938 15.4718 825.35 15.6677C824.729 15.8635 824.141 16.092 823.585 16.3858C822.441 16.9733 821.461 17.7894 820.742 18.8665C819.958 19.911 819.435 21.1514 819.207 22.457Z" fill="black"/>
<path d="M738.758 73.377C738.758 73.377 728.661 68.3503 732.419 52.4215L736.83 50.8873L737.255 57.2197L740.098 62.9972L740.948 68.4809L738.758 73.377Z" fill="#F3F7FC"/>
<path d="M738.758 73.377C737.876 72.9527 737.059 72.3651 736.34 71.7123C735.621 71.0595 734.935 70.3087 734.347 69.5254C733.171 67.9259 732.321 66.0654 731.798 64.1396C731.537 63.193 731.374 62.1811 731.243 61.2019C731.21 60.7123 731.145 60.2227 731.145 59.7004C731.112 59.2108 731.145 58.6885 731.145 58.1989C731.178 56.2078 731.472 54.2167 731.929 52.2909L731.994 52.0298L732.256 51.9318C733.726 51.4096 735.197 50.92 736.667 50.3977L737.255 50.2019L737.288 50.8221L737.484 53.9882L737.647 57.1544L737.615 56.9912L738.987 59.8963L740.36 62.8013L740.392 62.8666V62.8992L740.752 65.6411C740.882 66.555 740.98 67.469 741.078 68.3829V68.4482L741.046 68.4808L738.758 73.377ZM738.758 73.377L740.752 68.3829V68.4808C740.588 67.5669 740.425 66.6529 740.261 65.739L739.771 62.9971L739.804 63.0951L738.334 60.2227L736.896 57.3503L736.863 57.285V57.187L736.634 54.0209L736.406 50.8547L737.059 51.279C735.589 51.8013 734.118 52.2909 732.648 52.8132L732.975 52.4541C732.517 54.3473 732.223 56.2405 732.125 58.1663C732.027 60.0921 732.158 62.0179 732.583 63.8785C732.811 64.825 733.073 65.739 733.432 66.6203C733.792 67.5016 734.249 68.3503 734.772 69.1663C735.295 69.9823 735.883 70.7331 736.569 71.4512C737.19 72.2019 737.941 72.8547 738.758 73.377Z" fill="black"/>
<path d="M745.097 37.7983L747.483 33.2938C736.177 51.1158 740.915 68.4482 740.915 68.4482C740.915 68.4482 726.799 49.3206 729.38 30.8458C731.929 12.4036 750.26 -0.522254 772.186 0.979233C772.186 0.979233 796.66 3.62315 811.397 23.3383C804.012 21.5104 802.934 21.3799 797.575 20.3027C793.948 19.5846 789.439 18.7033 783.655 19.095C778.884 19.3888 776.172 20.368 773.983 21.7716C771.859 23.1425 770.454 24.7745 769.604 25.917L771.205 24.0238C771.205 24.0238 760.782 22.6202 752.351 27.4837C743.954 32.3146 743.366 37.733 745.097 37.7983Z" fill="#F3F7FC"/>
<path d="M817.932 23.9911C818.096 23.1751 818.553 22.457 819.076 21.8042C819.599 21.1514 820.252 20.6291 820.971 20.1722C821.69 19.7478 822.441 19.4214 823.258 19.1929C823.65 19.0624 824.075 19.0297 824.467 18.9644C824.892 18.9318 825.284 18.9318 825.709 18.9318C825.35 19.1276 824.957 19.2582 824.598 19.4214L824.075 19.6499C823.912 19.7152 823.716 19.8131 823.552 19.8784C822.834 20.2048 822.18 20.5638 821.526 20.9555C820.873 21.3472 820.252 21.8042 819.664 22.2938C819.043 22.8487 818.488 23.371 817.932 23.9911Z" fill="black"/>
<path d="M787.315 5.22257C788.72 4.27598 790.256 3.49259 791.857 2.87242C793.458 2.28488 795.157 1.86054 796.856 1.59942C800.287 1.17508 803.849 1.50149 807.084 2.83977C808.685 3.49259 810.221 4.3739 811.593 5.4837C812.933 6.59349 814.142 7.86649 815.089 9.33533C817.017 12.2077 818.096 15.6024 818.357 18.9971C817.704 15.6677 816.429 12.4689 814.469 9.79231C813.488 8.45403 812.312 7.24631 811.005 6.23444C809.698 5.22257 808.228 4.40654 806.724 3.78636C805.973 3.45995 805.156 3.23147 804.372 2.97034L803.163 2.70921C802.771 2.61129 802.346 2.57865 801.921 2.51336C800.287 2.28488 798.588 2.25224 796.922 2.3828C795.255 2.54601 793.621 2.87242 791.988 3.32939C790.386 3.819 788.851 4.47182 787.315 5.22257Z" fill="black"/>
<path d="M770.814 81.2108L746.11 75.8904C746.11 75.8904 734.576 118.976 724.152 170.876C721.898 182.072 723.139 193.757 728.008 204.072C744.477 238.997 789.831 236.125 802.999 226.496C810.09 222.742 778.623 233.677 820.023 190.33C861.424 146.982 836.721 113.721 836.721 113.721C836.721 113.721 842.014 113.33 844.04 110.327C844.04 110.327 838.224 114.733 829.565 104.419C829.565 104.419 840.903 109.935 846.916 99.4898C846.916 99.4898 836.067 107.813 822.049 85.65C808.031 63.4868 814.174 65.739 793 73.1485C779.636 77.8162 770.814 81.2108 770.814 81.2108Z" fill="white"/>
<path d="M770.813 81.3414L758.429 78.926L745.98 76.4453L746.666 76.0209C742.287 93.6797 738.137 111.436 734.184 129.193C733.171 133.632 732.223 138.071 731.243 142.511L728.4 155.861L725.623 169.211L725.263 170.876L724.936 172.54C724.838 173.095 724.74 173.65 724.675 174.205C724.577 174.76 724.512 175.315 724.446 175.87C724.185 178.089 724.054 180.309 724.087 182.561C724.087 187.033 724.708 191.505 725.851 195.846C726.439 198 727.158 200.122 728.041 202.211L728.694 203.745L729.446 205.247L730.197 206.748C730.459 207.238 730.753 207.727 731.047 208.217C733.301 212.101 736.144 215.659 739.412 218.727C741.046 220.294 742.843 221.665 744.673 222.971C745.13 223.33 745.62 223.591 746.078 223.885L747.515 224.799C748.006 225.092 748.496 225.354 748.986 225.615C749.476 225.876 749.966 226.17 750.489 226.398C758.593 230.413 767.709 232.339 776.76 232.404C781.302 232.469 785.812 231.98 790.256 231.066C792.445 230.576 794.634 229.956 796.725 229.14C798.817 228.324 800.843 227.345 802.64 226.039L802.672 226.006L802.705 225.974C802.999 225.811 803.293 225.647 803.489 225.484C803.522 225.451 803.555 225.386 803.522 225.484C803.489 225.517 803.489 225.549 803.489 225.647C803.489 225.713 803.489 225.843 803.555 225.908C803.653 226.039 803.685 226.039 803.718 226.072C803.718 226.072 803.653 226.039 803.587 226.039C803.522 226.039 803.457 226.006 803.359 226.006C802.705 225.908 801.986 225.843 801.267 225.68C800.549 225.517 799.83 225.223 799.176 224.766C798.523 224.309 798 223.591 797.771 222.808C797.51 222.024 797.51 221.241 797.575 220.49C797.64 219.739 797.836 219.021 798.033 218.336C798.457 216.965 799.078 215.659 799.732 214.419C801.071 211.938 802.607 209.588 804.274 207.336C805.907 205.083 807.639 202.897 809.436 200.742C811.201 198.588 813.031 196.499 814.893 194.443C815.808 193.398 816.756 192.386 817.703 191.374L819.108 189.84C819.566 189.318 820.023 188.828 820.481 188.306C824.206 184.291 827.637 179.983 830.676 175.445C833.715 170.908 836.361 166.11 838.387 161.051L838.779 160.104L838.975 159.647L839.139 159.158L839.792 157.232L840.119 156.285L840.381 155.306L840.936 153.347C841.132 152.695 841.23 152.042 841.393 151.356L841.622 150.377L841.72 149.888L841.818 149.398L842.145 147.407L842.243 146.917L842.308 146.428L842.406 145.416C842.57 144.077 842.635 142.739 842.701 141.368C842.733 140.683 842.701 140.03 842.701 139.344C842.701 139.018 842.701 138.659 842.701 138.333L842.635 137.321C842.504 134.644 842.178 131.935 841.59 129.324C841.034 126.68 840.25 124.101 839.27 121.62C838.747 120.38 838.224 119.14 837.603 117.965C837.309 117.377 836.982 116.79 836.655 116.202C836.492 115.908 836.329 115.647 836.133 115.353C835.969 115.092 835.773 114.798 835.61 114.57L834.237 112.677L836.59 112.448C836.852 112.416 837.178 112.383 837.505 112.318C837.832 112.252 838.126 112.187 838.42 112.122C839.041 111.959 839.629 111.795 840.217 111.567C840.773 111.338 841.295 111.045 841.786 110.751C842.243 110.425 842.635 110.033 842.929 109.641L844.857 111.469C844.694 111.6 844.628 111.632 844.498 111.698C844.4 111.763 844.302 111.795 844.204 111.861C844.008 111.959 843.811 112.057 843.583 112.122C843.191 112.285 842.766 112.416 842.341 112.481C841.916 112.579 841.492 112.611 841.099 112.644C840.675 112.644 840.25 112.644 839.858 112.611C838.224 112.448 836.688 111.926 835.316 111.143L834.793 110.882L834.303 110.555L833.355 109.935C833.061 109.706 832.767 109.478 832.473 109.217L832.048 108.858C831.885 108.727 831.754 108.629 831.623 108.499C831.101 107.976 830.545 107.487 830.022 106.932L828.552 105.3L824.304 100.534L830.088 103.309C830.218 103.374 830.414 103.439 830.578 103.505C830.741 103.57 830.937 103.635 831.101 103.701C831.46 103.831 831.819 103.929 832.212 104.06C832.963 104.255 833.715 104.419 834.466 104.517C836.002 104.712 837.538 104.68 838.975 104.321C839.694 104.157 840.381 103.896 841.067 103.57C841.72 103.244 842.341 102.852 842.929 102.395C844.073 101.448 845.053 100.273 845.837 98.9349L847.602 100.469C847.439 100.6 847.34 100.665 847.177 100.73C847.046 100.795 846.916 100.893 846.818 100.959C846.556 101.089 846.328 101.22 846.066 101.318C845.543 101.546 845.021 101.709 844.498 101.84C843.419 102.101 842.341 102.232 841.263 102.199C840.184 102.166 839.106 102.003 838.093 101.709C837.57 101.579 837.08 101.383 836.59 101.22C836.1 101.024 835.61 100.828 835.152 100.567C833.257 99.653 831.591 98.4453 830.055 97.0744C828.519 95.7361 827.147 94.2346 825.872 92.7005C824.598 91.1663 823.422 89.5343 822.311 87.8696C821.2 86.2049 820.187 84.5076 819.174 82.8103C818.161 81.1129 817.181 79.4156 816.2 77.7183C815.22 76.0209 814.24 74.3236 813.227 72.6589C812.704 71.8429 812.181 71.0595 811.593 70.374C811.005 69.6886 810.351 69.1337 809.6 68.8725C808.848 68.6114 807.966 68.6767 807.051 68.8725C806.136 69.0684 805.221 69.3622 804.306 69.6559C802.476 70.2761 800.614 70.9942 798.784 71.6797C796.922 72.3651 795.059 73.018 793.196 73.6381C789.471 74.8785 785.746 76.1515 782.021 77.4245L776.466 79.3829L770.813 81.3414ZM770.781 81.1129C770.846 81.0803 770.977 81.015 771.075 80.9824L771.402 80.8518L772.088 80.5907L773.46 80.0358L776.205 78.9586L781.727 76.8369C785.42 75.4334 789.079 74.0625 792.772 72.6915C794.602 72.0061 796.431 71.3206 798.261 70.6025C800.091 69.8844 801.888 69.1337 803.751 68.4156C804.698 68.0565 805.646 67.7301 806.659 67.5016C807.182 67.3711 807.705 67.3058 808.26 67.2731C808.521 67.2405 808.816 67.2731 809.11 67.3058C809.24 67.3384 809.404 67.3711 809.534 67.3711C809.665 67.4037 809.829 67.4037 809.959 67.469C810.253 67.5669 810.515 67.6648 810.776 67.7954C810.907 67.8607 811.038 67.926 811.168 67.9912L811.528 68.2524C811.985 68.5788 812.377 68.9705 812.704 69.3622C813.39 70.1455 813.978 70.9942 814.534 71.8102C815.645 73.4749 816.625 75.1723 817.671 76.8369C818.684 78.5343 819.697 80.199 820.742 81.8637C821.788 83.5284 822.834 85.193 823.912 86.7925C825.023 88.3919 826.166 89.9586 827.408 91.3948C828.65 92.8637 829.99 94.2346 831.427 95.475C832.865 96.7153 834.434 97.7598 836.1 98.5759C836.525 98.8043 836.95 98.9349 837.374 99.1308C837.799 99.2613 838.224 99.4245 838.681 99.5224C839.564 99.7509 840.446 99.8815 841.328 99.8815C842.21 99.8815 843.093 99.7836 843.942 99.5551C844.367 99.4572 844.759 99.294 845.151 99.1308C845.347 99.0328 845.543 98.9675 845.707 98.837C845.805 98.7717 845.87 98.7391 845.968 98.6738C846.033 98.6411 846.164 98.5432 846.164 98.5432L850.771 95.0833L847.929 100.077C847.046 101.611 845.903 103.08 844.498 104.255C843.779 104.843 842.995 105.333 842.178 105.757C841.361 106.181 840.479 106.475 839.564 106.703C837.766 107.16 835.937 107.193 834.139 106.965C833.257 106.867 832.375 106.671 831.525 106.442C831.101 106.312 830.676 106.181 830.251 106.051C830.055 105.985 829.826 105.887 829.63 105.822C829.401 105.724 829.238 105.659 828.977 105.528L830.512 103.537L831.885 105.039C832.342 105.528 832.865 105.985 833.355 106.442C833.486 106.573 833.617 106.671 833.747 106.769L834.139 107.095L834.924 107.715L835.741 108.238L836.165 108.499L836.59 108.727C837.701 109.347 838.91 109.739 840.086 109.87C840.381 109.87 840.675 109.902 840.969 109.87C841.263 109.837 841.557 109.837 841.818 109.739C842.112 109.706 842.374 109.609 842.635 109.511C842.766 109.445 842.897 109.413 842.995 109.347C843.06 109.315 843.125 109.282 843.158 109.249C843.191 109.217 843.289 109.184 843.256 109.184L845.184 111.012C844.661 111.73 844.04 112.318 843.387 112.807C842.701 113.264 842.014 113.623 841.295 113.917C840.577 114.211 839.858 114.439 839.139 114.603C838.779 114.701 838.42 114.766 838.028 114.831C837.636 114.896 837.309 114.962 836.884 114.994L837.864 112.873C838.126 113.199 838.289 113.493 838.485 113.819C838.681 114.113 838.877 114.439 839.041 114.733C839.4 115.353 839.76 115.974 840.086 116.626C840.74 117.899 841.295 119.205 841.851 120.511C842.897 123.155 843.713 125.896 844.302 128.671C844.89 131.445 845.217 134.285 845.315 137.125L845.347 138.202C845.347 138.561 845.347 138.92 845.347 139.279C845.347 139.997 845.347 140.683 845.315 141.401C845.217 142.804 845.151 144.241 844.955 145.644L844.824 146.689L844.759 147.211L844.661 147.733L844.302 149.822L844.204 150.345L844.073 150.867L843.844 151.911C843.681 152.597 843.55 153.282 843.354 153.968L842.766 155.991L842.472 157.003L842.112 158.015L841.393 160.006L841.23 160.496L841.034 160.985L840.642 161.965C838.485 167.155 835.741 172.083 832.571 176.718C829.401 181.321 825.872 185.695 822.017 189.71C821.527 190.232 821.069 190.721 820.579 191.244L819.141 192.745C818.194 193.757 817.246 194.736 816.298 195.748C814.436 197.772 812.573 199.796 810.776 201.885C808.979 203.974 807.214 206.095 805.548 208.282C803.881 210.469 802.313 212.721 800.973 215.072C800.32 216.247 799.732 217.487 799.307 218.727C799.111 219.348 798.947 220 798.849 220.621C798.784 221.241 798.784 221.861 798.947 222.416C799.111 222.971 799.438 223.428 799.895 223.787C800.352 224.146 800.941 224.374 801.562 224.538C802.182 224.701 802.836 224.799 803.555 224.897C803.653 224.897 803.751 224.929 803.849 224.962C803.947 224.994 804.045 224.994 804.208 225.092C804.306 225.158 804.404 225.19 804.568 225.419C804.633 225.517 804.666 225.713 804.633 225.811C804.633 225.941 804.568 226.006 804.535 226.072C804.404 226.3 804.306 226.333 804.208 226.431C803.849 226.692 803.555 226.855 803.228 227.018L803.293 226.986C801.365 228.357 799.242 229.336 797.085 230.119C794.928 230.903 792.674 231.49 790.452 231.98C785.942 232.894 781.368 233.318 776.76 233.253C767.611 233.155 758.397 231.229 750.13 227.247C745.98 225.256 742.124 222.644 738.693 219.576C735.262 216.508 732.288 212.917 729.87 209C729.576 208.511 729.25 208.021 728.956 207.532L728.139 205.997L727.322 204.463L726.603 202.897C725.655 200.775 724.871 198.621 724.218 196.401C722.943 191.962 722.192 187.359 722.094 182.692C722.061 181.517 722.061 180.374 722.094 179.199L722.192 177.469C722.224 176.882 722.29 176.327 722.355 175.739C722.388 175.152 722.486 174.597 722.551 174.009C722.616 173.422 722.682 172.867 722.812 172.279L723.107 170.582L723.433 168.917C724.316 164.445 725.23 159.974 726.178 155.534C728.041 146.623 730.034 137.712 732.092 128.834C736.275 111.012 740.654 93.3207 745.555 75.7272L745.718 75.2049L746.241 75.3355L758.495 78.1752L770.781 81.1129Z" fill="black"/>
<path d="M766.141 225.386C764.932 224.962 763.788 224.44 762.612 223.852C761.468 223.265 760.357 222.644 759.279 221.959C758.756 221.6 758.201 221.273 757.678 220.914L756.109 219.805L754.574 218.63L754.181 218.336L753.822 218.009L753.103 217.389L752.384 216.769C752.156 216.573 751.927 216.345 751.665 216.116L750.26 214.778L748.921 213.374L748.267 212.689C748.038 212.46 747.842 212.199 747.646 211.971L746.405 210.502C745.98 210.012 745.62 209.49 745.228 208.968C744.836 208.446 744.444 207.956 744.085 207.401L743.039 205.802C740.229 201.493 738.072 196.727 736.504 191.831C734.935 186.902 733.955 181.843 733.432 176.718C732.55 166.469 733.334 156.122 735.425 146.101C737.484 136.08 740.588 126.288 744.444 116.855C741.242 126.549 738.497 136.342 736.7 146.33C736.634 146.656 736.569 146.95 736.536 147.276L736.406 148.223L736.144 150.116C735.948 151.356 735.752 152.629 735.589 153.87L735.229 157.656L735.033 159.549C735.001 159.876 735.001 160.169 734.968 160.496L734.935 161.442L734.641 165.229C734.609 165.849 734.641 166.502 734.641 167.122V169.015V170.908C734.641 171.235 734.674 171.529 734.674 171.855L734.739 172.802C734.837 174.075 734.903 175.315 735.001 176.588C735.491 181.615 736.438 186.576 737.942 191.374C739.412 196.205 741.471 200.808 744.085 205.116L745.098 206.716C745.424 207.238 745.816 207.76 746.176 208.282C746.535 208.805 746.895 209.327 747.287 209.816L748.463 211.285C748.659 211.546 748.855 211.775 749.051 212.036L749.672 212.754L750.914 214.158C751.796 215.039 752.678 215.986 753.626 216.834L754.312 217.487L754.672 217.813L755.031 218.107L756.469 219.348L757.972 220.523C758.462 220.914 759.017 221.273 759.508 221.632C761.599 223.069 763.788 224.374 766.141 225.386Z" fill="black"/>
<path d="M767.873 222.971C766.598 222.318 765.455 221.469 764.344 220.555C763.265 219.641 762.22 218.629 761.239 217.585C759.312 215.463 757.678 213.081 756.338 210.502C756.011 209.882 755.717 209.196 755.39 208.543C755.129 207.891 754.835 207.205 754.606 206.552C754.116 205.214 753.691 203.81 753.397 202.44C752.776 199.632 752.45 196.793 752.58 193.953C753.136 196.727 753.789 199.469 754.639 202.113C754.737 202.44 754.868 202.766 754.966 203.092C755.096 203.419 755.194 203.745 755.325 204.072C755.586 204.724 755.815 205.377 756.077 205.997C756.599 207.27 757.188 208.543 757.808 209.751C759.05 212.199 760.553 214.549 762.22 216.769C763.951 218.956 765.781 221.078 767.873 222.971Z" fill="black"/>
<path d="M828.192 146.428C828.552 146.069 828.846 145.644 829.14 145.22C829.434 144.796 829.695 144.371 829.924 143.914C830.382 143.033 830.774 142.086 831.035 141.14C831.329 140.193 831.558 139.214 831.689 138.235L831.754 137.876L831.787 137.517L831.885 136.766C831.917 136.276 831.95 135.787 831.983 135.264C832.015 133.273 831.917 131.282 831.623 129.291C831.329 127.3 830.937 125.341 830.414 123.416C830.316 122.926 830.153 122.436 830.022 121.947C829.892 121.457 829.761 120.968 829.597 120.511L829.107 119.074L828.879 118.356L828.617 117.638C828.258 116.692 827.931 115.745 827.539 114.798C827.147 113.852 826.787 112.905 826.395 111.991C824.794 108.27 823.03 104.582 821.232 100.893C823.618 104.223 825.742 107.748 827.572 111.436C829.401 115.125 830.97 118.976 832.015 122.959L832.375 124.46C832.506 124.95 832.571 125.472 832.702 125.994C832.767 126.255 832.8 126.517 832.865 126.745L832.996 127.528C833.061 128.051 833.159 128.54 833.224 129.063C833.453 131.119 833.519 133.241 833.323 135.33C833.126 137.419 832.669 139.475 831.852 141.401C831.427 142.347 830.937 143.294 830.349 144.143C829.728 145.024 829.042 145.84 828.192 146.428Z" fill="black"/>
<path d="M770.552 103.374C770.781 102.623 771.271 102.003 771.859 101.481C772.153 101.22 772.48 100.991 772.839 100.795C773.003 100.698 773.199 100.632 773.362 100.534L773.624 100.404L773.918 100.306C774.114 100.241 774.277 100.175 774.473 100.11L775.061 99.9468C775.453 99.8489 775.846 99.8488 776.238 99.8815C776.63 99.9468 777.022 100.045 777.381 100.175C777.741 100.338 778.1 100.534 778.427 100.795L778.394 100.959C778.002 101.154 777.643 101.252 777.283 101.318C776.924 101.416 776.597 101.481 776.238 101.514C776.074 101.546 775.911 101.579 775.747 101.579C775.584 101.579 775.421 101.579 775.257 101.579L774.767 101.546C774.604 101.546 774.44 101.579 774.277 101.579L774.016 101.611L773.787 101.677C773.624 101.709 773.46 101.742 773.297 101.807C772.97 101.905 772.676 102.003 772.349 102.166C771.761 102.46 771.173 102.884 770.748 103.439L770.552 103.374Z" fill="black"/>
<path d="M760.259 91.8844C760.259 91.8844 771.892 94.8874 786.171 88.8815" stroke="black" stroke-width="2.06184" stroke-miterlimit="10" stroke-linecap="round" stroke-linejoin="round"/>
<path d="M747.516 94.6263L750.816 83.2346C750.849 83.104 751.012 83.0061 751.143 83.0387C751.273 83.0714 751.371 83.2346 751.339 83.3651L750.816 85.4868L750.391 85.0951L770.389 78.5016L770.879 80.0684L750.587 85.7153C750.424 85.7479 750.228 85.65 750.195 85.4868C750.162 85.4215 750.195 85.3562 750.195 85.3236L750.816 83.2346L751.339 83.3978L747.516 94.6263Z" fill="black"/>
<path d="M770.65 78.5016L804.11 79.6441L803.914 79.9705L802.738 77.6203C802.705 77.5224 802.738 77.4245 802.836 77.3592C802.934 77.3266 803.032 77.3592 803.065 77.4245L808.456 86.5313L802.738 77.6203L803.065 77.4245L804.339 79.742C804.404 79.8399 804.372 80.0031 804.241 80.0684C804.208 80.101 804.176 80.101 804.143 80.101L770.65 80.1337V78.5016Z" fill="black"/>
<path d="M759.279 24.7092C757.416 25.1989 755.652 25.7211 753.887 26.3413C752.123 26.9288 750.424 27.6143 748.79 28.4303C747.156 29.2463 745.588 30.1603 744.117 31.2374C742.647 32.3146 741.307 33.5876 740.033 35.0238C740.719 33.2285 741.863 31.5965 743.268 30.2582C744.673 28.8873 746.306 27.8101 748.071 26.9615C749.835 26.1128 751.665 25.4926 753.561 25.1009C755.423 24.7419 757.351 24.546 759.279 24.7092Z" fill="#864D22"/>
<path d="M769.604 25.8843C770.683 24.0891 772.186 22.5223 773.918 21.3146C774.8 20.6944 775.748 20.2048 776.761 19.8131C777.773 19.4214 778.786 19.1276 779.832 18.8991C784.015 18.0505 788.295 18.0831 792.478 18.6054C794.569 18.8991 796.628 19.3235 798.653 19.7478C800.679 20.2048 802.738 20.6618 804.731 21.184C808.783 22.1959 812.802 23.3057 816.756 24.644C812.639 23.9585 808.554 23.2078 804.47 22.4244L798.359 21.2819C796.301 20.8902 794.308 20.4986 792.249 20.2374C790.223 19.9437 788.164 19.8131 786.139 19.7805C784.08 19.7478 782.054 19.8784 780.028 20.1395C778.035 20.4333 776.074 20.9882 774.31 22C772.545 22.9793 770.977 24.3176 769.604 25.8843Z" fill="black"/>
<path d="M771.206 24.0564C770.519 23.9911 769.8 23.9911 769.114 23.9911C768.755 23.9911 768.428 23.9911 768.069 23.9911C767.709 23.9911 767.382 24.0238 767.023 24.0238C765.618 24.0891 764.246 24.2523 762.873 24.4808C760.128 24.9051 757.449 25.6885 754.966 26.8309C754.672 26.9941 754.345 27.092 754.051 27.2879L753.168 27.7775L752.744 28.0386L752.286 28.3977C751.992 28.5935 751.731 28.7894 751.437 28.9852C750.326 29.7686 749.247 30.5846 748.234 31.4659C747.712 31.8903 747.254 32.3799 746.797 32.8695C746.339 33.3591 745.947 33.8814 745.555 34.4363C745.195 34.9912 744.869 35.5787 744.705 36.1989C744.607 36.4927 744.575 36.8191 744.607 37.1128C744.64 37.4066 744.771 37.6677 745.097 37.7657V37.9289C744.901 37.9615 744.673 37.8962 744.509 37.7657C744.346 37.6351 744.215 37.4392 744.15 37.276C743.986 36.8843 743.954 36.4927 743.986 36.101C744.019 35.3176 744.248 34.5995 744.575 33.914C745.195 32.5431 746.11 31.368 747.123 30.3235C748.169 29.279 749.313 28.3977 750.554 27.6469C750.881 27.4511 751.175 27.2879 751.502 27.1247L751.992 26.8636L752.482 26.6351L753.463 26.1781C753.789 26.0149 754.116 25.917 754.475 25.7538C757.155 24.6766 759.965 24.0564 762.775 23.7627C764.18 23.6321 765.618 23.5668 767.023 23.5995C768.428 23.6321 769.833 23.73 771.238 23.9585L771.206 24.0564Z" fill="black"/>
<path d="M740.85 68.4809C740.261 67.0446 739.902 65.5105 739.608 64.009C739.347 62.4749 739.183 60.9408 739.118 59.374C739.052 57.8072 739.15 56.2731 739.347 54.7063C739.543 53.1722 739.837 51.6381 740.163 50.1366C740.817 47.101 741.765 44.1633 742.974 41.3235C744.215 38.5164 745.686 35.8072 747.45 33.2612L747.581 33.3591C746.078 36.003 744.771 38.7775 743.725 41.6173C742.712 44.4571 741.928 47.3948 741.438 50.3977C741.209 51.8992 741.046 53.4007 740.948 54.9022C740.85 56.4037 740.784 57.9052 740.752 59.4066C740.654 62.4096 740.719 65.4126 740.98 68.4809H740.85Z" fill="black"/>
<path d="M742.843 89.8281C741.601 89.5669 740.457 89.0447 739.379 88.3266C738.824 87.9675 738.333 87.5758 737.843 87.1189C737.386 86.6619 736.928 86.1396 736.602 85.5521C736.242 84.9646 735.981 84.3117 735.85 83.6263C735.719 82.9408 735.719 82.1901 735.817 81.5372C736.013 80.2642 736.308 79.0565 736.7 77.8815C737.419 75.4987 738.432 73.2464 739.542 71.0595C740.686 68.8725 741.895 66.7509 743.268 64.7271L743.398 64.8251C742.255 66.9794 741.176 69.1663 740.261 71.4185C739.346 73.6708 738.497 75.923 737.941 78.2405C737.647 79.4156 737.451 80.5907 737.386 81.7331C737.321 82.8102 737.549 83.7895 738.039 84.7687C738.268 85.2583 738.595 85.7153 738.954 86.1396C739.314 86.5966 739.706 86.9883 740.131 87.4126C740.98 88.2287 741.928 88.9794 742.941 89.6649L742.843 89.8281Z" fill="black"/>
<path d="M762.873 67.5343C764.834 65.0535 768.33 64.1396 771.206 64.8577C775.976 66.0654 779.701 71.8755 777.545 76.7064C775.715 80.8518 770.291 82.6797 766.206 80.8518C761.239 78.5996 759.802 71.4838 762.873 67.5343Z" fill="#E4A581" stroke="black" stroke-width="0.932171" stroke-miterlimit="10"/>
<path d="M766.696 67.9259C767.252 67.2078 768.297 66.9467 769.114 67.1426C770.519 67.5016 771.598 69.1989 770.977 70.6025C770.454 71.8102 768.853 72.3325 767.676 71.8102C766.239 71.1574 765.814 69.0684 766.696 67.9259Z" fill="url(#paint2_radial_1455_1306)"/>
<path d="M753.495 52.8132C753.495 52.8132 756.044 39.4303 764.278 39.2019C772.513 38.9734 768.689 54.7716 768.689 54.7716C768.689 54.7716 766.369 65.6737 759.083 65.6737C751.796 65.6737 753.234 54.0535 753.495 52.8132Z" fill="white"/>
<path d="M753.495 52.8132C753.789 51.4096 754.181 50.0387 754.672 48.7004C754.9 48.0149 755.162 47.3621 755.456 46.7093C755.75 46.0565 756.044 45.4036 756.403 44.7835C756.763 44.1633 757.122 43.5431 757.547 42.9556C757.972 42.368 758.429 41.8131 758.952 41.2909C759.475 40.7686 760.063 40.3116 760.684 39.92C761.337 39.5283 762.024 39.2345 762.742 39.0386C763.494 38.8428 764.246 38.7449 765.03 38.7775C765.814 38.8428 766.631 39.0386 767.317 39.463C768.003 39.8873 768.591 40.5075 768.984 41.193C769.376 41.8784 769.67 42.5965 769.866 43.3473C770.258 44.8161 770.389 46.3176 770.389 47.7864C770.389 49.2553 770.258 50.7241 770.029 52.1603C769.931 52.8784 769.8 53.5965 769.637 54.3146C769.506 55.0327 769.278 55.7508 769.049 56.4689C768.591 57.8725 768.003 59.2434 767.252 60.5164C766.5 61.7894 765.585 63.0298 764.442 64.009C763.298 65.0209 761.86 65.739 760.357 65.9348C759.606 66.0328 758.854 66.0328 758.102 65.9022C757.351 65.7716 756.632 65.4779 756.011 65.0209C755.39 64.5639 754.9 64.009 754.541 63.3562C754.149 62.736 753.92 62.0506 753.691 61.3325C753.299 59.9289 753.168 58.4927 753.136 57.0565C753.136 56.3384 753.136 55.6203 753.201 54.9022C753.299 54.2167 753.364 53.4986 753.495 52.8132ZM753.495 52.8132C753.234 54.2167 753.201 55.6529 753.234 57.0891C753.299 58.5253 753.495 59.9289 753.953 61.2998C754.41 62.6381 755.162 63.9111 756.338 64.6292C757.482 65.3473 758.952 65.4126 760.259 65.1515C761.566 64.8577 762.742 64.1396 763.69 63.193C764.638 62.2464 765.389 61.0713 766.01 59.8636C766.631 58.6559 767.121 57.3503 767.513 56.012C767.709 55.3592 767.873 54.6737 768.003 54.0209C768.134 53.3354 768.265 52.6499 768.363 51.9645C768.559 50.5936 768.722 49.19 768.755 47.7864C768.788 46.4155 768.755 45.0119 768.461 43.7063C768.297 43.0535 768.134 42.4333 767.84 41.8458C767.546 41.2909 767.154 40.8013 766.664 40.4422C766.173 40.0832 765.585 39.8547 764.932 39.7567C764.278 39.6915 763.592 39.7241 762.939 39.822C762.285 39.9526 761.631 40.1811 761.011 40.4748C760.39 40.8013 759.834 41.193 759.279 41.6499C758.756 42.1069 758.266 42.6292 757.808 43.1514C757.351 43.7063 756.959 44.2938 756.567 44.8814C755.129 47.2968 754.116 50.006 753.495 52.8132Z" fill="black"/>
<path d="M765.259 56.5669C766.141 58.3948 765.455 61.5936 764.246 62.8992C762.579 64.6945 759.606 64.8577 758.005 62.5728C756.698 60.7123 756.567 57.6114 757.939 55.8488C759.965 53.3028 763.821 53.5639 765.259 56.5669Z" fill="black"/>
<path d="M759.115 60.0595C759.476 60.0595 759.769 59.7672 759.769 59.4066C759.769 59.0461 759.476 58.7538 759.115 58.7538C758.755 58.7538 758.462 59.0461 758.462 59.4066C758.462 59.7672 758.755 60.0595 759.115 60.0595Z" fill="white"/>
<path d="M765.912 30.1929L765.618 34.4036C765.618 34.4036 756.567 33.2285 752.613 38.19C752.613 38.19 756.338 29.3116 765.912 30.1929Z" fill="white"/>
<path d="M765.912 30.1929L765.879 32.282L765.847 34.4363C765.847 34.5342 765.749 34.6321 765.651 34.6321H765.618C764.474 34.5342 763.298 34.5668 762.154 34.6321C761.011 34.73 759.867 34.8932 758.723 35.1544C757.612 35.4155 756.534 35.8072 755.521 36.3621C755.031 36.6232 754.541 36.9496 754.116 37.276C753.691 37.6351 753.299 38.0268 752.94 38.4511V38.4838C752.809 38.647 752.548 38.6796 752.352 38.549C752.221 38.4185 752.155 38.2226 752.253 38.0594C752.548 37.374 752.907 36.7864 753.299 36.1989C753.691 35.6113 754.116 35.0564 754.573 34.5015C755.521 33.457 756.599 32.5104 757.808 31.7597C758.429 31.4007 759.05 31.0742 759.704 30.8131C760.357 30.552 761.043 30.3561 761.73 30.2256C763.135 29.9971 764.54 29.9971 765.912 30.1929ZM765.912 30.1929C764.54 30.1603 763.135 30.2909 761.828 30.6173C761.174 30.7805 760.521 31.009 759.9 31.3027C759.279 31.5965 758.691 31.9229 758.135 32.282C757.024 33.0327 756.011 33.9467 755.162 34.9912C754.312 36.0357 753.528 37.1781 753.005 38.3532L752.286 37.9289C752.678 37.4392 753.103 37.0149 753.593 36.6232C754.083 36.2315 754.606 35.9051 755.129 35.6113C756.207 35.0238 757.351 34.6648 758.527 34.4036C759.704 34.1425 760.88 34.0446 762.089 34.0119C763.265 33.9793 764.474 34.0446 765.651 34.2078L765.422 34.4036L765.912 30.1929Z" fill="black"/>
<path d="M787.87 48.0802C787.87 48.0802 790.321 31.825 804.568 34.4036C811.985 35.7419 811.789 45.9259 811.038 51.7034C810.515 55.7182 808.685 59.4393 805.679 62.1485C803.555 64.0417 800.647 65.6411 796.954 65.6411C787.642 65.6411 786.302 53.2049 787.87 48.0802Z" fill="white"/>
<path d="M787.87 48.0802C788.197 46.2523 788.753 44.4571 789.504 42.7597C789.896 41.9111 790.288 41.095 790.778 40.279C791.269 39.4956 791.824 38.7449 792.445 38.0268C793.687 36.6232 795.19 35.4481 796.954 34.73L797.608 34.4689C797.836 34.4036 798.065 34.3383 798.294 34.2731L798.621 34.1751L798.98 34.1099L799.666 33.9466C800.614 33.8161 801.562 33.7182 802.509 33.7834L803.228 33.8161C803.457 33.8487 803.685 33.8814 803.947 33.8814L804.666 33.9793C804.894 34.0119 805.156 34.0772 805.385 34.1099C806.332 34.3383 807.28 34.7627 808.097 35.3829C808.914 36.003 809.567 36.7538 810.09 37.6024C810.613 38.4511 811.005 39.3651 811.299 40.279C811.887 42.1395 812.116 44.0654 812.181 45.9585C812.247 47.8517 812.116 49.7449 811.887 51.6381C811.658 53.5639 811.136 55.4571 810.286 57.2197C809.469 58.9823 808.325 60.5817 806.953 61.9526C805.581 63.3236 803.947 64.4333 802.15 65.1841C800.353 65.9022 798.392 66.2286 796.464 66.098C795.516 66.0328 794.536 65.8369 793.654 65.4452C792.772 65.0862 791.955 64.5313 791.236 63.8785C789.831 62.5728 788.916 60.8755 788.295 59.1129C787.674 57.3503 787.38 55.4897 787.282 53.6292C787.217 51.736 787.347 49.8755 787.87 48.0802ZM787.87 48.0802C787.347 49.8755 787.249 51.736 787.38 53.5965C787.511 55.4571 787.87 57.285 788.524 58.9823C789.177 60.6796 790.19 62.3117 791.563 63.4541C792.249 64.0417 793.033 64.466 793.883 64.7598C794.732 65.0535 795.614 65.1841 796.497 65.1841C798.294 65.2167 800.058 64.7924 801.66 64.0417C803.261 63.2909 804.698 62.1811 805.907 60.8755C807.116 59.6025 808.097 58.101 808.816 56.4689C809.534 54.8695 809.992 53.1396 810.221 51.3769C810.449 49.5817 810.58 47.7538 810.547 45.9585C810.515 44.1633 810.384 42.368 809.894 40.6381C809.665 39.7894 809.371 38.9734 808.946 38.2226C808.521 37.4719 807.999 36.7864 807.345 36.2315C806.692 35.6766 805.94 35.2849 805.091 35.0238L804.47 34.8606L803.816 34.73C803.587 34.6974 803.359 34.6321 803.163 34.6321L802.476 34.5668C801.562 34.4689 800.679 34.5015 799.764 34.5668L799.078 34.6648L798.751 34.73L798.425 34.7953L797.771 34.9585L797.118 35.187C795.418 35.8072 793.85 36.8517 792.576 38.19C791.301 39.5283 790.288 41.095 789.537 42.7924C788.785 44.4897 788.23 46.2523 787.87 48.0802Z" fill="black"/>
<path d="M801.3 52.8131C803.882 52.8131 805.352 54.5431 806.038 56.5342C806.953 59.2434 805.744 62.9645 802.967 63.7152C800.712 64.3028 798.261 62.736 797.346 60.7449C795.909 57.5461 797.543 52.8131 801.3 52.8131Z" fill="black"/>
<path d="M800.059 60.2227C800.419 60.2227 800.712 59.9304 800.712 59.5698C800.712 59.2093 800.419 58.917 800.059 58.917C799.698 58.917 799.405 59.2093 799.405 59.5698C799.405 59.9304 799.698 60.2227 800.059 60.2227Z" fill="white"/>
<path d="M789.7 28.2018C789.7 28.2018 792.935 31.3027 792.804 32.2167C792.674 33.1306 800.973 24.7093 806.92 25.7211C806.953 25.6885 801.954 20.5312 789.7 28.2018Z" fill="white"/>
<path d="M789.7 28.2018C790.354 28.7894 791.007 29.3769 791.595 30.0297C791.889 30.3561 792.184 30.6826 792.478 31.0416C792.608 31.2374 792.739 31.4007 792.87 31.6291C792.935 31.7271 792.968 31.8576 793 31.9882C793 32.0535 793.033 32.1188 793.033 32.2167C793.033 32.282 793.066 32.184 792.968 32.0861C792.935 32.0861 792.935 32.0535 792.902 32.0535C792.902 32.0535 792.902 32.0535 792.87 32.0535C792.902 32.0208 793.033 31.9556 793.098 31.9229C793.197 31.8576 793.262 31.7923 793.36 31.7271L793.883 31.3354L794.928 30.5193C795.615 29.9644 796.333 29.4422 797.052 28.9199C798.49 27.9081 800.026 26.9615 801.692 26.2434C802.509 25.8843 803.391 25.5906 804.274 25.3947C805.156 25.1989 806.104 25.1336 807.051 25.2968L806.692 25.9822C806.594 25.8843 806.43 25.7538 806.3 25.6558C806.169 25.5579 806.005 25.46 805.842 25.3621C805.679 25.2641 805.515 25.1989 805.352 25.1009C805.189 25.0357 805.025 24.9704 804.829 24.9051C804.666 24.8398 804.47 24.7745 804.306 24.7419C804.143 24.7092 803.947 24.644 803.784 24.6113L803.228 24.5134C803.032 24.4808 802.869 24.4481 802.673 24.4481C801.202 24.2849 799.666 24.4155 798.196 24.7745L797.64 24.9051L797.085 25.0683L795.974 25.3947C795.255 25.6558 794.536 25.917 793.817 26.2107C793.131 26.5371 792.412 26.8309 791.726 27.1573C791.105 27.4511 790.419 27.8101 789.7 28.2018ZM789.7 28.2018C790.321 27.8101 790.975 27.3858 791.628 26.9288C791.955 26.7003 792.314 26.5371 792.641 26.3413L793.654 25.7864C793.981 25.5906 794.373 25.46 794.7 25.2968C795.059 25.1336 795.418 24.9704 795.778 24.8398L796.889 24.4481L797.444 24.2523L798 24.1217C799.503 23.6974 801.104 23.5342 802.705 23.6647C802.901 23.6647 803.097 23.6974 803.293 23.73L803.882 23.8279C804.078 23.8606 804.274 23.9259 804.47 23.9911C804.666 24.0564 804.862 24.0891 805.058 24.187C805.254 24.2523 805.45 24.3176 805.613 24.4155C805.809 24.5134 805.973 24.5787 806.169 24.6766C806.528 24.9051 806.855 25.1009 807.215 25.4274C807.378 25.5906 807.378 25.8517 807.215 26.0149C807.116 26.1128 806.986 26.1455 806.855 26.1455H806.822C805.189 25.8843 803.489 26.3413 801.921 26.9941C800.32 27.6469 798.817 28.5282 797.346 29.5075C796.627 29.9971 795.909 30.4867 795.19 31.009L794.111 31.7923L793.556 32.184C793.458 32.2493 793.36 32.3146 793.262 32.3799C793.164 32.4452 793.066 32.5104 792.902 32.5431C792.87 32.5431 792.87 32.5431 792.804 32.5757C792.772 32.5757 792.772 32.5757 792.739 32.5757C792.706 32.5757 792.674 32.5431 792.641 32.5431C792.478 32.4452 792.543 32.2493 792.51 32.282C792.51 32.2493 792.51 32.2167 792.51 32.184C792.478 32.0861 792.478 32.0208 792.412 31.9229C792.314 31.7271 792.216 31.5639 792.118 31.368C791.889 31.009 791.628 30.6499 791.334 30.3235C790.877 29.5075 790.321 28.8547 789.7 28.2018Z" fill="black"/>
<path d="M818.586 25.4273C818.586 25.4273 830.186 16.2552 842.766 23.8932C854.529 31.0416 854.431 48.1128 854.431 48.1128C854.431 48.1128 852.405 34.9912 841.786 28.1039C832.996 22.4244 825.219 25.7211 825.219 25.7211L818.586 25.4273Z" fill="#864D22"/>
<path d="M818.586 25.4274C819.991 24.3828 821.494 23.5342 823.03 22.7834C824.598 22.0327 826.232 21.4451 827.931 21.0208C829.63 20.5965 831.362 20.368 833.126 20.368C834.891 20.368 836.655 20.6291 838.322 21.184C840.021 21.7389 841.622 22.5223 843.06 23.5668C844.498 24.6113 845.805 25.819 846.948 27.1573C847.243 27.4837 847.504 27.8428 847.765 28.1692C848.027 28.5282 848.321 28.8547 848.55 29.2137C849.04 29.9318 849.562 30.6499 849.987 31.4333L850.641 32.5757C850.87 32.9674 851.033 33.3591 851.229 33.7508C851.425 34.1425 851.621 34.5342 851.817 34.9259L852.34 36.1336C853.059 37.733 853.647 39.3977 854.17 41.0624C854.66 42.7597 855.085 44.4571 855.346 46.187C855.934 49.647 856.098 53.1722 855.869 56.6974C855.64 60.19 854.987 63.6826 854.006 67.0446C853.516 68.742 852.961 70.374 852.307 72.0061C851.981 72.8221 851.621 73.6381 851.262 74.4215C850.87 75.2375 850.51 75.9883 850.02 76.8043V76.8369L849.987 76.8696C849.268 77.8488 848.55 78.7628 847.765 79.6441C847.014 80.558 846.197 81.4393 845.38 82.288C844.53 83.1367 843.681 83.9527 842.701 84.7034C842.21 85.0625 841.72 85.4215 841.165 85.7479C840.609 86.0744 840.021 86.3355 839.302 86.4987L837.374 86.923L838.485 85.291C838.583 85.1604 838.681 84.9646 838.779 84.8013C838.877 84.6381 838.975 84.4423 839.074 84.2791C839.172 84.1159 839.237 83.92 839.335 83.7242C839.433 83.5284 839.498 83.3651 839.564 83.1693L839.792 82.5818L839.988 81.9942C840.119 81.6025 840.217 81.2108 840.348 80.8191C840.773 79.2197 841.034 77.555 841.165 75.8904L841.23 74.65C841.263 74.2257 841.23 73.8013 841.23 73.4096C841.23 72.561 841.165 71.7449 841.099 70.8963C841.067 70.4719 841.001 70.0476 840.969 69.6559L840.805 68.4156C840.675 67.5995 840.479 66.7509 840.348 65.9348L840.675 66.3918C839.172 65.4452 837.799 64.4007 836.492 63.2909C835.185 62.1811 833.911 60.9734 832.734 59.7331C831.558 58.4601 830.48 57.1218 829.467 55.6856C828.487 54.2494 827.604 52.7805 826.885 51.1811C826.134 49.6143 825.611 47.9496 825.154 46.3176C824.729 44.6529 824.435 42.9556 824.271 41.2256C824.141 39.4956 824.108 37.7983 824.239 36.0683C824.369 34.371 824.598 32.641 825.023 30.9763L825.088 31.1722L818.586 25.4274ZM818.586 25.4274C819.729 26.3413 820.873 27.2226 821.984 28.1039C823.128 28.9852 824.206 29.8665 825.317 30.7478L825.415 30.8131L825.382 30.9437C825.023 32.5757 824.859 34.2731 824.794 35.9704C824.729 37.6677 824.827 39.3324 825.023 41.0298C825.154 41.8458 825.252 42.6944 825.448 43.5105C825.578 44.3265 825.84 45.1425 826.036 45.9585C826.526 47.558 827.081 49.1574 827.833 50.6262C828.552 52.1277 829.467 53.5313 830.414 54.9022C831.395 56.2405 832.473 57.5461 833.649 58.7538C834.826 59.9615 836.067 61.104 837.342 62.1485C837.995 62.6707 838.649 63.193 839.335 63.6826C840.021 64.1722 840.707 64.6618 841.394 65.0535L841.655 65.2167L841.72 65.5105C841.884 66.3592 842.08 67.2078 842.243 68.0565L842.439 69.3622C842.504 69.7865 842.57 70.2108 842.603 70.6678C842.668 71.5491 842.766 72.3978 842.766 73.2791C842.766 73.7034 842.799 74.1604 842.766 74.5847L842.733 75.8904C842.635 77.653 842.374 79.3829 841.949 81.1129C841.818 81.5372 841.72 81.9616 841.59 82.3859L841.394 83.0061L841.165 83.6263C841.099 83.8221 841.001 84.0506 840.903 84.2465C840.805 84.4423 840.74 84.6708 840.609 84.8666C840.511 85.0625 840.413 85.2583 840.283 85.4868C840.184 85.6827 840.054 85.8785 839.923 86.107L839.106 84.8666C840.021 84.6708 840.969 84.0506 841.851 83.3651C842.733 82.6797 843.55 81.8963 844.367 81.0803C845.151 80.2642 845.935 79.4156 846.654 78.5343C847.406 77.653 848.125 76.739 848.778 75.8251L848.746 75.8904C849.138 75.2049 849.53 74.4215 849.889 73.6708C850.249 72.92 850.575 72.1366 850.902 71.3533C851.556 69.7865 852.111 68.1871 852.569 66.555C853.059 64.923 853.451 63.2583 853.745 61.5936C854.039 59.9289 854.268 58.2316 854.399 56.5342C854.66 53.1396 854.562 49.7449 854.006 46.3829C853.778 44.6855 853.353 43.0535 852.928 41.4214C852.438 39.7894 851.915 38.19 851.229 36.6232C849.889 33.4897 848.288 30.4541 846.132 27.8428C845.053 26.5371 843.844 25.3621 842.504 24.3176C841.165 23.3057 839.662 22.5223 838.061 21.9348C836.459 21.3799 834.793 21.0535 833.094 20.9882C831.395 20.9229 829.696 21.0861 827.996 21.4451C826.33 21.8042 824.696 22.3591 823.095 23.0119C821.559 23.6647 820.023 24.4481 818.586 25.4274Z" fill="black"/>
<path d="M818.684 25.4274L818.945 26.4719C818.945 26.4719 832.408 35.8072 834.989 41.1277C834.205 37.9941 832.963 35.7419 832.016 34.3057C831.231 33.1306 826.722 26.2107 819.599 25.4926C819.207 25.46 818.913 25.4274 818.684 25.4274Z" fill="#864D22"/>
<path d="M817.932 25.8843C819.795 26.733 821.559 27.7775 823.258 28.9199C824.108 29.5075 824.925 30.095 825.742 30.7152C826.166 31.009 826.559 31.368 826.951 31.6944C827.343 32.0208 827.735 32.3472 828.127 32.7063C829.663 34.0772 831.068 35.5787 832.375 37.1455C833.682 38.7449 834.793 40.4749 835.708 42.3028C834.466 40.7033 833.192 39.1039 831.787 37.6351C831.623 37.4392 831.46 37.276 831.264 37.0802L830.741 36.5253C830.382 36.1662 830.055 35.8072 829.663 35.4481L828.584 34.4036L827.474 33.3918C827.114 33.0327 826.722 32.7389 826.33 32.3799L825.742 31.8903L825.154 31.4007C824.402 30.7478 823.585 30.1277 822.801 29.4748C821.232 28.2998 819.599 27.092 817.932 25.8843Z" fill="black"/>
<path d="M817.344 25.5579C818.782 25.1989 820.252 25.1009 821.755 25.1009C822.507 25.1009 823.226 25.1336 823.977 25.2315C824.337 25.2641 824.729 25.2968 825.088 25.3621C825.448 25.4273 825.84 25.46 826.199 25.5579C827.67 25.8517 829.075 26.3413 830.414 26.9615C831.754 27.5817 832.996 28.463 834.041 29.4748C832.734 28.7894 831.46 28.1365 830.12 27.6469C828.781 27.19 827.408 26.7656 826.003 26.5045C825.644 26.4066 825.284 26.3739 824.957 26.3087L824.435 26.2107C824.271 26.1781 824.075 26.1781 823.912 26.1454C823.193 26.0149 822.474 25.9496 821.755 25.8843C820.285 25.6885 818.814 25.6232 817.344 25.5579Z" fill="black"/>
<path d="M817.344 24.7092L811.103 23.2404C811.037 23.0772 810.711 22.6202 809.894 21.5431C809.11 20.5638 807.868 19.0297 805.907 16.6796C803.783 14.1336 801.137 12.0445 798.555 10.3798C792.87 6.75669 787.282 5.15728 787.282 5.15728C795.32 0.391696 804.927 0.718106 811.331 5.8101C817.05 10.3798 818.193 17.1039 818.324 18.8991C818.684 22.9793 817.344 24.7092 817.344 24.7092Z" fill="#F3F7FC"/>
<path d="M817.344 24.7092L814.24 24.1217L811.037 23.5015L810.907 23.4689L810.841 23.3383C810.776 23.2404 810.678 23.1098 810.613 22.9793L810.319 22.6202C810.123 22.3591 809.926 22.1306 809.73 21.9021L808.489 20.4659L806.005 17.5935C804.372 15.6677 802.542 14.003 800.483 12.5341C798.457 11.0979 796.268 9.82494 794.013 8.71515C792.902 8.16025 791.726 7.67064 790.582 7.21366C789.439 6.75669 788.23 6.29971 787.053 5.9733L785.289 5.45105L786.857 4.5371C788.589 3.52523 790.419 2.67656 792.347 2.08902C794.275 1.50148 796.268 1.14243 798.294 1.07715C802.313 0.913946 806.43 1.89318 809.861 4.04748C811.56 5.12464 813.096 6.49556 814.338 8.06233C814.664 8.45402 814.926 8.87835 815.22 9.27005C815.481 9.69438 815.775 10.1187 816.004 10.543C816.494 11.4244 816.919 12.3383 817.279 13.2522C817.965 15.1128 818.455 17.0386 818.553 19.0297C818.586 20.0089 818.553 21.0208 818.357 21.9674C818.226 22.9466 817.932 23.9259 817.344 24.7092ZM817.344 24.7092C817.834 23.8606 818.03 22.8813 818.128 21.9348C818.226 20.9882 818.193 20.0089 818.095 19.0624C817.867 17.1692 817.279 15.3086 816.527 13.5787C815.743 11.8487 814.763 10.2166 813.488 8.78043C812.246 7.34423 810.809 6.13651 809.175 5.18992C807.574 4.24333 805.809 3.52523 803.979 3.13354L803.293 3.00297C803.065 2.93769 802.836 2.90505 802.607 2.87241C802.15 2.80713 801.692 2.74184 801.202 2.7092C800.745 2.67656 800.254 2.64392 799.797 2.64392H798.392C796.529 2.74184 794.667 3.06825 792.87 3.65579C791.072 4.21069 789.341 4.96143 787.707 5.90802L787.511 4.43918C790.027 5.22256 792.379 6.20179 794.699 7.37687C796.987 8.55194 799.209 9.89023 801.267 11.4896C803.326 13.0564 805.221 14.8843 806.757 16.9407L809.11 19.9763L810.253 21.5104C810.449 21.7716 810.613 22.0327 810.809 22.2938L811.07 22.6855C811.168 22.8161 811.234 22.9466 811.332 23.1425L811.135 22.9793L817.344 24.7092Z" fill="black"/>
<path d="M818.292 22.0327C817.965 23.73 817.377 24.6113 817.377 24.6113H817.246C817.246 24.6113 817.213 24.644 817.115 24.6766L814.73 24.1217L814.861 23.9911C819.239 20.0742 811.495 6.13651 811.364 5.87538C813.259 8.16025 816.2 11.816 817.05 13.7092V13.7419C818.651 17.3324 818.651 20.1395 818.292 22.0327Z" fill="#864D22"/>
<path d="M810.417 22.0327L809.927 21.5757C809.142 20.5965 807.901 19.0624 805.94 16.7122C803.816 14.1662 801.169 12.0772 798.588 10.4125L795.19 8.45403C795.19 8.45403 800.156 7.40952 803.685 11.8161C807.639 16.8101 810.417 22.0327 810.417 22.0327Z" fill="#864D22"/>
<path d="M818.292 22.0327C818.226 22.5223 818.161 22.9793 818.03 23.4689C817.965 23.6974 817.9 23.9259 817.802 24.1543C817.704 24.3828 817.606 24.6113 817.475 24.8072L817.442 24.8724L817.344 24.8398L817.083 24.8072C815.057 24.4155 813.064 24.0238 811.038 23.6321L810.874 23.5994L810.776 23.4362C810.744 23.371 810.646 23.2078 810.548 23.1098L810.253 22.7508L809.665 22.0327L808.424 20.5965L805.94 17.7241C804.339 15.7656 802.477 14.1336 800.451 12.6647C798.425 11.1959 796.268 9.9555 794.014 8.84571C792.903 8.29081 791.759 7.76856 790.583 7.31158C789.439 6.85461 788.23 6.39763 787.054 6.07122L785.256 5.54897L786.857 4.60238C790.092 2.67656 793.785 1.46884 797.575 1.20771C799.47 1.07715 801.366 1.17507 803.228 1.53412C805.091 1.89317 806.888 2.51335 808.554 3.4273C808.75 3.52523 808.979 3.62315 809.175 3.75371L809.763 4.1454L810.351 4.5371L810.907 4.96143C811.691 5.51633 812.377 6.13651 813.031 6.82197C814.338 8.19289 815.416 9.72702 816.266 11.3917C816.691 12.2404 817.05 13.089 817.344 13.9703C817.638 14.8517 817.9 15.733 818.063 16.6469C818.226 17.5609 818.357 18.4748 818.39 19.3888C818.52 20.2048 818.455 21.1187 818.292 22.0327ZM818.292 22.0327C818.39 21.1187 818.357 20.2048 818.259 19.3235C818.161 18.4095 817.965 17.5282 817.736 16.6796C817.475 15.7982 817.213 14.9496 816.854 14.1336C816.495 13.3175 816.102 12.5015 815.645 11.7181C814.763 10.1514 813.652 8.74779 812.345 7.54007C811.691 6.91989 811.005 6.36499 810.286 5.87538L809.731 5.48369L809.142 5.15728L808.554 4.83087C808.358 4.73294 808.162 4.63502 807.966 4.5371C806.365 3.78635 804.699 3.23146 802.967 2.90505C801.235 2.61128 799.438 2.54599 797.706 2.7092C795.941 2.83976 794.21 3.16617 792.543 3.75371C790.877 4.30861 789.243 5.05935 787.707 5.94066L787.511 4.47181C788.785 4.86351 789.994 5.32048 791.171 5.8101C792.38 6.29971 793.556 6.82197 794.7 7.40951C796.987 8.58458 799.209 9.92286 801.268 11.5223C803.326 13.089 805.221 14.9169 806.79 16.9733L809.142 19.9763L810.319 21.4778C810.515 21.7389 810.711 22 810.874 22.2612L811.136 22.6529C811.234 22.7834 811.299 22.914 811.397 23.1425L811.136 22.9466C813.129 23.4689 815.089 23.9911 817.05 24.546L817.311 24.6113L817.181 24.6766C817.311 24.5134 817.442 24.2849 817.54 24.0891C817.638 23.8932 817.736 23.6647 817.834 23.4362C818.063 22.9466 818.194 22.4897 818.292 22.0327Z" fill="black"/>
<path d="M747.777 6.69141C750.979 4.86351 755.227 1.72997 762.35 1.24036C769.997 0.685461 775.159 1.56677 779.995 2.83977C784.799 4.08013 794.405 7.11574 802.836 14.3947C806.92 17.9199 809.502 20.5312 811.234 23.1751C809.371 21.6736 806.822 19.7478 803.62 17.7567C802.77 17.2345 794.732 12.2404 784.897 9.10684C768.493 3.85164 753.43 6.00595 747.777 6.69141Z" fill="#864D22"/>
<path d="M788.066 5.35313C783.818 3.68844 779.374 2.51336 774.898 1.92582C770.421 1.33828 765.879 1.33828 761.468 2.05639C759.246 2.41544 757.089 2.97034 754.966 3.6558C754.443 3.819 753.92 4.04749 753.397 4.21069C752.874 4.40654 752.351 4.63503 751.861 4.83087C750.816 5.28785 749.803 5.74482 748.822 6.26708C744.836 8.25818 741.209 10.9021 738.235 14.1662C736.732 15.7983 735.425 17.5609 734.314 19.4867C733.171 21.3799 732.288 23.4036 731.57 25.4926C730.851 27.5817 730.393 29.7686 730.099 31.9556C729.968 33.0653 729.87 34.1751 729.838 35.2849C729.805 36.3947 729.805 37.5045 729.838 38.6143C729.87 39.1692 729.903 39.7568 729.936 40.279C730.001 40.8339 730.034 41.3888 730.099 41.9437C730.164 42.4986 730.23 43.0535 730.361 43.6084L730.491 44.4244L730.655 45.2404C731.112 47.4274 731.766 49.5817 732.615 51.6707C733.04 52.7152 733.497 53.7271 734.02 54.739C734.543 55.7182 735.131 56.6974 735.752 57.644C736.994 59.5372 738.464 61.2998 740.065 62.9319C738.301 61.4957 736.667 59.831 735.229 58.0357C733.792 56.2405 732.55 54.2494 731.57 52.1603C730.589 50.0713 729.772 47.8844 729.184 45.6321C728.563 43.3799 728.237 41.0624 728.041 38.7449C727.648 34.1425 728.106 29.3769 729.511 24.8724C730.23 22.6202 731.177 20.4333 732.386 18.4095C733.563 16.3531 734.968 14.4273 736.536 12.6974C739.739 9.23741 743.627 6.43028 747.875 4.40654C748.92 3.88428 749.999 3.42731 751.077 3.00298C751.633 2.80713 752.155 2.57864 752.711 2.3828C753.266 2.18695 753.822 1.99111 754.377 1.8279C756.599 1.14244 758.919 0.652824 761.239 0.359055C763.559 0.0652856 765.879 -0.0326374 768.199 0.0652856C770.519 0.163209 772.839 0.456978 775.094 0.881311C779.603 1.76262 784.014 3.23146 788.066 5.35313Z" fill="black"/>
</g>
<defs>
<radialGradient id="paint0_radial_1455_1306" cx="0" cy="0" r="1" gradientUnits="userSpaceOnUse" gradientTransform="translate(750.252 113.383) scale(42.4051 42.3598)">
<stop stop-color="#F97400"/>
<stop offset="0.1375" stop-color="#F97400" stop-opacity="0.8625"/>
<stop offset="1" stop-color="#F97400" stop-opacity="0"/>
</radialGradient>
<radialGradient id="paint1_radial_1455_1306" cx="0" cy="0" r="1" gradientUnits="userSpaceOnUse" gradientTransform="translate(834.438 52.7304) scale(42.4051 42.3598)">
<stop stop-color="#F97400"/>
<stop offset="0.1375" stop-color="#F97400" stop-opacity="0.8625"/>
<stop offset="1" stop-color="#F97400" stop-opacity="0"/>
</radialGradient>
<radialGradient id="paint2_radial_1455_1306" cx="0" cy="0" r="1" gradientUnits="userSpaceOnUse" gradientTransform="translate(768.669 69.5416) rotate(66.3501) scale(2.45794 2.45973)">
<stop stop-color="white"/>
<stop offset="1" stop-color="white" stop-opacity="0"/>
</radialGradient>
<clipPath id="clip0_1455_1306">
<rect width="169" height="233.22" fill="white" transform="translate(707.847)"/>
</clipPath>
</defs>
</svg>
