<svg width="173" height="234" viewBox="0 0 173 234" fill="none" xmlns="http://www.w3.org/2000/svg">
<g clip-path="url(#clip0_1011_1752)">
<path opacity="0.5" d="M44.0019 155.499C67.4248 155.748 86.6134 137.081 86.8607 113.805C87.1081 90.5298 68.3206 71.4595 44.8976 71.2106C21.4747 70.9617 2.28612 89.6284 2.03877 112.904C1.79143 136.179 20.579 155.25 44.0019 155.499Z" fill="url(#paint0_radial_1011_1752)"/>
<path opacity="0.5" d="M128.812 96.0343C152.235 96.2832 171.423 77.6165 171.671 54.341C171.918 31.0655 153.13 11.9952 129.708 11.7463C106.285 11.4973 87.096 30.1641 86.8487 53.4396C86.6013 76.7151 105.389 95.7854 128.812 96.0343Z" fill="url(#paint1_radial_1011_1752)"/>
<path d="M61.4432 17.9374C61.4432 17.9374 99.1526 14.9285 113.052 26.1817C113.052 26.1817 135.939 21.8788 132.509 49.5086C132.509 49.5086 147.918 66.2656 138.594 79.5775C138.594 79.5775 135.048 99.6076 122.697 99.4763C110.346 99.3451 75.5076 96.6693 75.5076 96.6693L45.9639 100.025L40.1472 90.8058C40.1472 90.8058 29.6458 88.8432 31.5116 79.3163L35.6337 69.6509L29.4845 67.1177L31.8608 46.4582L35.3647 30.3893L61.4432 17.9374Z" fill="#E7A382"/>
<path d="M20.6957 202.271C25.1897 191.44 29.7163 180.61 34.2102 169.78C39.0916 171.683 43.9401 173.617 48.8215 175.52C43.4774 186.407 38.1006 197.292 32.7564 208.179C28.7252 206.22 24.7266 204.262 20.6957 202.271Z" fill="#ABB992" stroke="black" stroke-width="5.0946" stroke-miterlimit="10"/>
<path d="M139.707 211.621L131.439 156.298L97.506 163.731L106.167 212.758L139.707 211.621Z" fill="#ABB992" stroke="black" stroke-width="5.0946" stroke-miterlimit="10"/>
<path d="M92.1144 225.208L147.17 225.793C147.17 225.793 143.941 200.658 120.84 200.412C90.7147 200.092 92.1144 225.208 92.1144 225.208Z" fill="#73430C" stroke="black" stroke-width="5.0946" stroke-miterlimit="10"/>
<path d="M110.339 207.704C111.197 206.869 112.25 206.231 113.366 205.756C114.482 205.281 115.662 204.936 116.905 204.787C117.527 204.696 118.148 204.702 118.769 204.709C119.389 204.748 120.009 204.82 120.596 204.988C121.801 205.293 122.939 205.857 123.846 206.646C122.673 206.309 121.564 206.07 120.454 205.993C119.899 205.955 119.344 205.917 118.788 205.943C118.232 205.97 117.677 205.996 117.12 206.055C116.008 206.173 114.894 206.421 113.78 206.702C112.568 207.014 111.486 207.327 110.339 207.704Z" fill="black"/>
<path d="M113.089 210.299C113.423 209.556 114.018 208.945 114.709 208.498C115.4 208.05 116.22 207.734 117.038 207.613C117.235 207.583 117.464 207.585 117.66 207.555C117.856 207.557 118.085 207.527 118.281 207.561C118.476 207.596 118.705 207.598 118.901 207.633C119.097 207.668 119.292 207.735 119.52 207.802C119.715 207.869 119.911 207.904 120.106 208.003C120.301 208.07 120.464 208.169 120.659 208.269C121.016 208.467 121.34 208.698 121.631 208.993C121.207 208.989 120.848 208.92 120.456 208.883C120.26 208.881 120.064 208.847 119.901 208.845C119.803 208.844 119.705 208.811 119.64 208.81L119.379 208.807C119.183 208.805 119.019 208.803 118.823 208.801C118.627 208.799 118.463 208.83 118.3 208.828C118.137 208.826 117.94 208.857 117.777 208.855C117.613 208.886 117.417 208.884 117.253 208.914C116.566 209.004 115.878 209.192 115.189 209.412C114.501 209.632 113.812 209.917 113.089 210.299Z" fill="black"/>
<path d="M6.76963 224.301L61.8255 224.886C61.8255 224.886 58.5961 199.751 35.4955 199.505C5.36996 199.185 6.76963 224.301 6.76963 224.301Z" fill="#73430C" stroke="black" stroke-width="5.0946" stroke-miterlimit="10"/>
<path d="M24.9938 206.797C25.8523 205.962 26.9047 205.324 28.0208 204.849C29.1369 204.374 30.317 204.029 31.5603 203.88C32.1822 203.789 32.803 203.796 33.4238 203.802C34.0443 203.841 34.6644 203.913 35.2508 204.081C36.4566 204.386 37.5943 204.95 38.5009 205.739C37.3281 205.402 36.2196 205.163 35.1094 205.086C34.5543 205.048 33.9992 205.01 33.4434 205.036C32.8876 205.063 32.3317 205.089 31.7756 205.148C30.6633 205.267 29.5496 205.514 28.4356 205.795C27.2232 206.107 26.1088 206.42 24.9938 206.797Z" fill="black"/>
<path d="M27.7438 209.392C28.0785 208.649 28.6732 208.038 29.3642 207.591C30.0552 207.143 30.8755 206.827 31.6937 206.706C31.8901 206.676 32.1188 206.678 32.3152 206.648C32.5112 206.65 32.7403 206.62 32.936 206.654C33.1317 206.689 33.3604 206.691 33.5561 206.726C33.7518 206.761 33.9472 206.828 34.1752 206.895C34.3706 206.962 34.5663 206.997 34.7613 207.096C34.9566 207.163 35.119 207.262 35.314 207.362C35.6713 207.56 35.9956 207.791 36.2866 208.086C35.8618 208.082 35.5031 208.013 35.1114 207.976C34.9153 207.974 34.7196 207.94 34.5563 207.938C34.4582 207.937 34.3606 207.904 34.2952 207.903L34.0338 207.9C33.8378 207.898 33.6744 207.896 33.4784 207.894C33.2823 207.892 33.1186 207.923 32.9552 207.921C32.7919 207.919 32.5955 207.95 32.4321 207.948C32.2684 207.979 32.0723 207.977 31.9086 208.007C31.2214 208.098 30.5332 208.285 29.8446 208.505C29.1234 208.725 28.4668 209.01 27.7438 209.392Z" fill="black"/>
<path d="M146.095 154.798C146.095 154.798 146.552 167.077 139.086 168.589C131.652 170.101 127.97 169.12 127.97 169.12L131.408 156.168L146.095 154.798Z" fill="#E7A381" stroke="black" stroke-width="5" stroke-miterlimit="12"/>
<path d="M128.191 111.355C128.191 111.355 149.108 154.18 145.721 156.157C142.334 158.135 132.635 163.649 128.59 150.682C124.546 137.716 117.107 115.068 117.107 115.068L128.191 111.355Z" fill="#87CCE9" stroke="black" stroke-width="5" stroke-miterlimit="12"/>
<path d="M14.9074 147.331C14.9074 147.331 7.85939 158.654 11.5817 162.006C15.304 165.357 18.8675 168.285 18.8675 168.285C18.8675 168.285 21.2853 171.396 23.2046 156.836C25.1239 142.277 14.9074 147.331 14.9074 147.331Z" fill="#E7A381" stroke="black" stroke-width="5" stroke-miterlimit="12"/>
<path d="M13.6483 145.889L23.2049 156.804L50.8139 104.882L40.1947 98.632L13.6483 145.889Z" fill="#87CCE9" stroke="black" stroke-width="5" stroke-miterlimit="12"/>
<path d="M121.293 50.2012C120.232 48.5339 119.369 46.7712 118.734 44.946C118.1 43.1208 117.728 41.2335 117.552 39.3158C118.428 43.0269 120.189 46.4552 122.61 49.2086L121.293 50.2012Z" fill="black"/>
<path d="M122.719 94.3784C123.901 93.8065 125.085 93.1047 126.171 92.3694C126.731 91.9856 127.291 91.5694 127.818 91.1854C128.378 90.7692 128.905 90.3527 129.432 89.9361C130.487 89.1031 131.477 88.1719 132.37 87.1747C133.263 86.1776 133.993 85.0813 134.529 83.8855C135.633 81.4943 135.728 78.6703 134.938 76.0966C134.56 74.7937 133.985 73.5536 133.279 72.3771C132.572 71.2006 131.734 70.0877 130.798 69.0711C131.8 70.0234 132.704 71.0721 133.509 72.2172C134.314 73.3623 134.987 74.6034 135.463 75.9073C135.972 77.2116 136.251 78.6434 136.269 80.0723L136.295 80.6246L136.257 81.1762C136.22 81.5331 136.217 81.8902 136.147 82.2467C136.078 82.6031 136.009 82.9596 135.907 83.3157L135.771 83.8338C135.704 83.9954 135.637 84.1896 135.602 84.3516C135.098 85.71 134.365 86.9686 133.471 88.1281C132.609 89.2555 131.585 90.3162 130.562 91.2795C130.034 91.761 129.506 92.21 128.978 92.6914C128.45 93.1404 127.923 93.5894 127.363 94.0381C126.242 94.9354 125.024 95.7343 123.808 96.4357L122.719 94.3784Z" fill="black"/>
<path d="M123.231 95.3905C124.283 94.8172 125.762 93.9561 127.41 92.6748C130.54 90.2401 134.856 86.9089 135.727 81.8201C136.875 75.2404 138.788 76.6571 138.044 75.9348L142.284 76.7267C142.284 76.7267 142.037 100.007 125.434 100.252C108.863 100.531 123.231 95.3905 123.231 95.3905Z" fill="#F3F7FC"/>
<path d="M123.231 95.3905C124.184 94.8811 125.072 94.3385 125.961 93.7309C126.849 93.1234 127.673 92.4503 128.53 91.8099C130.178 90.4636 131.794 89.052 133.087 87.3447C134.379 85.6699 135.315 83.6991 135.599 81.6239C135.773 80.5541 135.98 79.5172 136.318 78.4817C136.487 77.964 136.689 77.4465 137.021 76.963C137.187 76.705 137.352 76.4794 137.583 76.2871C137.682 76.1907 137.847 76.095 137.913 76.0308C137.913 76.0308 137.913 75.9983 137.846 76.16C137.812 76.257 137.844 76.3223 137.844 76.3548C137.844 76.3872 137.876 76.3876 137.876 76.3876L137.779 76.2891L136.938 75.4684L138.146 75.6111C138.864 75.7162 139.582 75.8212 140.267 75.9259C140.984 76.031 141.669 76.1681 142.387 76.3056L142.811 76.3751L142.806 76.7972C142.752 78.8099 142.502 80.788 142.122 82.7648C141.742 84.7415 141.231 86.6519 140.525 88.5278C139.819 90.4037 138.917 92.2126 137.789 93.8566C136.627 95.5004 135.207 96.979 133.528 98.0977C131.85 99.2164 129.914 99.9427 127.917 100.246C126.935 100.398 125.922 100.452 124.909 100.441C123.929 100.431 122.916 100.42 121.936 100.345C120.957 100.27 119.945 100.194 118.966 99.9887C118.738 99.9213 118.478 99.8536 118.25 99.7862C118.022 99.6864 117.794 99.5866 117.6 99.3897C117.503 99.2912 117.439 99.1931 117.408 99.0629C117.376 98.9327 117.411 98.8031 117.445 98.6736C117.545 98.4474 117.71 98.2543 117.908 98.0941C118.667 97.4527 119.554 97.0075 120.441 96.5623C121.393 96.0854 122.312 95.7054 123.231 95.3905ZM123.231 95.3905C122.312 95.7379 121.393 96.1178 120.474 96.5302C119.587 96.9754 118.7 97.4205 117.941 98.0619C117.776 98.2225 117.578 98.4153 117.51 98.6419C117.477 98.7389 117.442 98.8684 117.474 98.9987C117.505 99.1289 117.569 99.227 117.667 99.293C117.828 99.457 118.056 99.5569 118.284 99.6567C118.511 99.7565 118.74 99.7914 119 99.8592C119.979 100.064 120.958 100.14 121.938 100.183C122.918 100.226 123.931 100.204 124.912 100.182C125.892 100.16 126.873 100.105 127.856 99.9208C129.787 99.5516 131.658 98.8247 133.239 97.6725C134.819 96.5527 136.142 95.0731 137.205 93.4608C138.267 91.8485 139.071 90.0386 139.711 88.2269C140.352 86.3828 140.829 84.472 141.176 82.5599C141.524 80.6477 141.741 78.6692 141.794 76.7539L142.181 77.2451C141.463 77.1076 140.778 76.9705 140.061 76.8329C139.344 76.663 138.659 76.5258 137.942 76.3558L138.276 75.7099C138.34 75.7755 138.373 75.8084 138.437 75.9065C138.469 75.9393 138.469 75.9717 138.501 76.037C138.533 76.1023 138.564 76.2325 138.498 76.3293C138.464 76.4263 138.398 76.4905 138.365 76.5227C138.332 76.5548 138.299 76.5869 138.266 76.5866C138.102 76.6822 138.036 76.714 137.937 76.7779C137.773 76.906 137.607 77.0991 137.442 77.2922C137.144 77.6787 136.91 78.1633 136.709 78.6158C136.306 79.5856 136.034 80.5894 135.827 81.6263C135.445 83.7654 134.444 85.7355 133.087 87.3772C131.762 89.0517 130.113 90.4629 128.432 91.7764C127.575 92.4492 126.752 93.0899 125.863 93.6974C125.105 94.3388 124.184 94.8811 123.231 95.3905Z" fill="black"/>
<path d="M113.701 26.5783C113.701 26.5783 133.658 12.0805 145.283 34.4149C156.907 56.7494 143.975 77.524 143.975 77.524C143.975 77.524 137.71 85.9001 133.715 86.702C133.715 86.702 138.622 79.9674 135.756 66.8183C135.756 66.8183 125.95 60.9015 121.807 50.986C117.665 41.0705 120.276 32.071 120.276 32.071L113.701 26.5783Z" fill="#F3F7FC"/>
<path d="M113.701 26.5783C115.117 25.5542 116.629 24.726 118.173 23.9955C119.749 23.2654 121.389 22.6984 123.093 22.2943C124.796 21.8903 126.53 21.6814 128.295 21.7002C130.059 21.7189 131.821 21.9974 133.481 22.5671C135.174 23.1371 136.767 23.9334 138.194 24.9876C139.62 26.0419 140.915 27.2571 142.044 28.6005C142.335 28.9283 142.592 29.2882 142.85 29.6157C143.108 29.9756 143.398 30.3034 143.623 30.663C144.106 31.3825 144.621 32.1024 145.037 32.8861L145.679 34.0295C145.903 34.4215 146.063 34.8129 146.255 35.2046C146.447 35.5963 146.638 35.988 146.83 36.3797L147.34 37.5866C148.042 39.1852 148.613 40.8473 149.118 42.5088C149.59 44.2023 149.997 45.8952 150.24 47.6188C150.792 51.0667 150.918 54.575 150.652 58.0792C150.386 61.5509 149.696 65.0181 148.68 68.3519C148.172 70.035 147.599 71.6526 146.928 73.269C146.593 74.0773 146.225 74.8852 145.857 75.6606C145.457 76.4681 145.089 77.2111 144.591 78.0176L144.59 78.0501L144.557 78.0822C143.828 79.0486 143.1 79.9501 142.306 80.8184C141.545 81.7195 140.719 82.5875 139.893 83.423C139.034 84.2581 138.176 85.0608 137.188 85.7972C136.694 86.1491 136.2 86.5011 135.641 86.8198C135.082 87.1386 134.492 87.3921 133.771 87.5468L131.839 87.9484L132.967 86.3368C133.066 86.208 133.166 86.0142 133.266 85.8529C133.366 85.6916 133.466 85.4978 133.566 85.3365C133.665 85.1752 133.733 84.9811 133.833 84.7874C133.933 84.5936 134 84.4319 134.068 84.2378L134.302 83.6558L134.505 83.0735C134.64 82.6852 134.742 82.2967 134.877 81.9084C135.318 80.322 135.597 78.6689 135.746 77.0144L135.824 75.7813C135.861 75.3595 135.833 74.9371 135.837 74.5475C135.846 73.7033 135.789 72.8909 135.733 72.046C135.705 71.6236 135.644 71.2008 135.615 70.8108L135.465 69.5753C135.343 68.7622 135.156 67.9159 135.034 67.1028L135.356 67.5609C133.863 66.6033 132.502 65.5497 131.206 64.4319C129.911 63.3141 128.65 62.0992 127.486 60.8529C126.324 59.5742 125.26 58.2315 124.262 56.7921C123.297 55.3531 122.43 53.8826 121.728 52.284C120.993 50.7176 120.488 49.0561 120.048 47.4278C119.641 45.7674 119.365 44.076 119.219 42.3534C119.107 40.6312 119.092 38.9425 119.241 37.223C119.39 35.5361 119.637 33.8177 120.079 32.1663L120.143 32.3618L113.701 26.5783ZM113.701 26.5783C114.835 27.4995 115.969 28.3883 117.071 29.2768C118.205 30.1656 119.274 31.0537 120.376 31.9421L120.473 32.0081L120.439 32.1376C120.062 33.7572 119.881 35.4439 119.798 37.1315C119.714 38.8192 119.795 40.4761 119.973 42.1666C120.095 42.9797 120.184 43.8249 120.372 44.6387C120.494 45.4518 120.746 46.2663 120.934 47.0801C121.407 48.6762 121.946 50.2731 122.682 51.7422C123.385 53.2433 124.285 54.6492 125.218 56.0229C126.184 57.3646 127.248 58.6748 128.412 59.8886C129.575 61.1024 130.805 62.252 132.068 63.3045C132.716 63.831 133.364 64.3574 134.045 64.8517C134.726 65.3461 135.407 65.8404 136.089 66.2373L136.348 66.4024L136.411 66.6953C136.565 67.5412 136.752 68.3875 136.907 69.2334L137.089 70.5342C137.15 70.957 137.211 71.3798 137.238 71.8347C137.294 72.7121 137.383 73.5573 137.374 74.4339C137.37 74.856 137.398 75.3109 137.36 75.7327L137.314 77.031C137.197 78.7833 136.918 80.5013 136.475 82.2177C136.339 82.6384 136.237 83.0594 136.102 83.4801L135.899 84.0949L135.664 84.7094C135.596 84.9035 135.496 85.1298 135.396 85.3235C135.296 85.5173 135.228 85.7439 135.095 85.9373C134.995 86.1311 134.895 86.3248 134.762 86.5507C134.662 86.7445 134.529 86.9379 134.396 87.1638L133.592 85.9213C134.509 85.7362 135.463 85.1294 136.353 84.4569C137.242 83.7845 138.067 83.0139 138.893 82.2109C139.686 81.4075 140.479 80.5717 141.207 79.7027C141.968 78.834 142.696 77.9325 143.359 77.0303L143.326 77.0949C143.725 76.4173 144.126 75.6422 144.493 74.8992C144.86 74.1563 145.195 73.3805 145.53 72.6047C146.2 71.0532 146.773 69.4681 147.247 67.8496C147.755 66.2314 148.165 64.5797 148.476 62.9269C148.788 61.2741 149.035 59.5882 149.183 57.9012C149.48 54.5273 149.418 51.1495 148.898 47.7994C148.688 46.1086 148.28 44.4807 147.873 42.8527C147.4 41.2241 146.894 39.6276 146.224 38.0618C144.918 34.9306 143.349 31.894 141.22 29.2736C140.155 27.9634 138.959 26.7817 137.63 25.7285C136.301 24.7077 134.807 23.9125 133.212 23.3111C131.617 22.7421 129.954 22.3997 128.255 22.3167C126.557 22.2337 124.856 22.378 123.153 22.7171C121.483 23.0566 119.844 23.5912 118.236 24.2235C116.693 24.8566 115.149 25.6195 113.701 26.5783Z" fill="black"/>
<path d="M114.353 23.6302C114.204 22.2648 114.546 20.8722 115.245 19.6456C115.579 19.0322 116.042 18.4526 116.57 17.9712C117.098 17.4897 117.691 17.0739 118.315 16.7558C118.644 16.5969 118.972 16.4705 119.3 16.3441C119.628 16.2502 119.956 16.1238 120.316 16.0627C121.004 15.9076 121.691 15.8175 122.377 15.7923C123.75 15.742 125.154 15.9192 126.457 16.2578C125.084 16.3082 123.744 16.3589 122.467 16.5401C121.813 16.6631 121.158 16.7535 120.568 16.9421C119.945 17.1303 119.354 17.3513 118.796 17.6376C117.646 18.2099 116.657 19.0112 115.927 20.075C115.132 21.1057 114.596 22.3339 114.353 23.6302Z" fill="black"/>
<path d="M33.3715 73.4261C33.3715 73.4261 23.3283 68.3187 27.2542 52.514L31.6814 51.0349L32.0393 57.3383L34.8208 63.1154L35.6124 68.5791L33.3715 73.4261Z" fill="#F3F7FC"/>
<path d="M33.3715 73.4261C32.4938 72.9947 31.6831 72.4015 30.9712 71.7445C30.2593 71.0875 29.581 70.3335 29.0012 69.548C27.8418 67.9445 27.012 66.0848 26.5095 64.1636C26.2581 63.2192 26.1055 62.211 25.9851 61.2355C25.9576 60.7482 25.8975 60.2604 25.903 59.7409C25.8755 59.2536 25.9137 58.7344 25.9188 58.2474C25.9726 56.2672 26.2877 54.2897 26.7655 52.3789L26.8336 52.1199L27.096 52.0253C28.5719 51.5214 30.0474 51.05 31.5232 50.5461L32.1134 50.3576L32.1396 50.9748L32.3021 54.1263L32.432 57.2775L32.4011 57.1148L33.7427 60.0191L35.0843 62.9234L35.1163 62.9886L35.1159 63.0211L35.4464 65.7523C35.5674 66.6628 35.6558 67.5729 35.7441 68.4831L35.7434 68.548L35.7104 68.5802L33.3715 73.4261ZM33.3715 73.4261L35.4174 68.4796L35.4163 68.577C35.2626 67.6662 35.1089 66.7553 34.9552 65.8445L34.4941 63.1119L34.5257 63.2097L33.0858 60.3368L31.6785 57.4643L31.6465 57.399L31.6475 57.3016L31.4523 54.1498L31.257 50.9979L31.906 51.4269C30.4302 51.9308 28.9546 52.4022 27.4788 52.9061L27.8093 52.5524C27.3319 54.4307 27.0178 56.3107 26.8994 58.2253C26.781 60.1399 26.8914 62.057 27.2965 63.9122C27.5152 64.8562 27.7669 65.7681 28.117 66.6486C28.4671 67.529 28.9156 68.3781 29.4297 69.1953C29.9439 70.0126 30.5241 70.7656 31.2027 71.4872C31.8155 72.2406 32.5601 72.8979 33.3715 73.4261Z" fill="black"/>
<path d="M40.0863 38.1029L42.5192 33.6476C31.0255 51.2552 35.5801 68.5463 35.5801 68.5463C35.5801 68.5463 21.6671 49.3698 24.4436 31.0201C27.1871 12.7025 45.6539 0.0398296 67.5624 1.76636C67.5624 1.76636 92.0073 4.65638 106.535 24.4239C99.1699 22.5272 98.0931 22.3859 92.7459 21.2575C89.1267 20.5046 84.6269 19.5801 78.8395 19.9082C74.066 20.1497 71.3437 21.095 69.1397 22.4678C67.0014 23.809 65.5791 25.4174 64.7175 26.5448L66.3386 24.6787C66.3386 24.6787 55.9304 23.1717 47.449 27.92C39.0007 32.6361 38.3553 38.0196 40.0863 38.1029Z" fill="#F3F7FC"/>
<path d="M113.063 25.1427C113.235 24.3327 113.7 23.6233 114.23 22.9795C114.759 22.3357 115.418 21.8231 116.142 21.3762C116.865 20.9617 117.62 20.6451 118.439 20.4265C118.833 20.3007 119.258 20.2728 119.651 20.212C120.076 20.1841 120.468 20.1882 120.893 20.1927C120.531 20.3837 120.138 20.5094 119.777 20.668L119.251 20.8897C119.087 20.9529 118.89 21.0482 118.726 21.1114C118.004 21.4285 117.347 21.7787 116.689 22.1613C116.031 22.544 115.406 22.992 114.813 23.4728C114.186 24.0181 113.625 24.5317 113.063 25.1427Z" fill="black"/>
<path d="M82.6456 6.14802C84.0606 5.22136 85.6046 4.45844 87.2122 3.85855C88.8194 3.29114 90.5229 2.8871 92.2248 2.64541C95.66 2.25978 99.2181 2.62231 102.439 3.98789C104.033 4.65427 105.559 5.54724 106.92 6.66575C108.248 7.78391 109.443 9.06303 110.375 10.5342C112.273 13.4119 113.315 16.8001 113.54 20.1796C112.922 16.8608 111.682 13.6654 109.749 10.9821C108.783 9.64052 107.62 8.42668 106.324 7.40627C105.027 6.38586 103.566 5.55853 102.069 4.92566C101.321 4.59299 100.507 4.35703 99.7253 4.08895L98.5191 3.81635C98.1281 3.71478 97.7037 3.6778 97.2796 3.60835C95.6483 3.3637 93.9496 3.31318 92.2818 3.42535C90.6137 3.56998 88.9766 3.8773 87.338 4.3145C85.7318 4.78451 84.1892 5.41756 82.6456 6.14802Z" fill="black"/>
<path d="M65.342 81.5592L40.6966 76.0043C40.6966 76.0043 28.7072 118.74 17.7355 170.254C15.3627 181.367 16.4807 193.004 21.2402 203.315C37.3387 238.232 82.7207 235.856 95.9902 226.418C103.12 222.76 71.5394 233.302 113.396 190.624C155.252 147.946 130.902 114.598 130.902 114.598C130.902 114.598 136.199 114.265 138.257 111.299C138.257 111.299 132.394 115.621 123.845 105.269C123.845 105.269 135.124 110.876 141.247 100.55C141.247 100.55 130.311 108.714 116.528 86.5193C102.745 64.3243 108.864 66.6299 87.6129 73.7752C74.1998 78.2762 65.342 81.5592 65.342 81.5592Z" fill="white"/>
<path d="M65.3406 81.6891L52.9826 79.1548L40.56 76.5549L41.2507 76.1401C36.6857 93.659 32.3483 111.278 28.2071 128.899C27.1473 133.303 26.1528 137.709 25.1256 142.114L22.1419 155.364L19.2234 168.614L18.8464 170.266L18.5021 171.918C18.3982 172.469 18.2943 173.02 18.2231 173.571C18.1192 174.122 18.048 174.674 17.9768 175.225C17.6919 177.43 17.5378 179.636 17.5466 181.877C17.4994 186.325 18.0729 190.78 19.1706 195.11C19.736 197.26 20.4324 199.378 21.2925 201.465L21.9298 202.998L22.6654 204.5L23.401 206.001C23.6572 206.491 23.9461 206.981 24.235 207.471C26.4485 211.359 29.2535 214.928 32.4885 218.015C34.1056 219.591 35.8882 220.974 37.7042 222.292C38.1578 222.654 38.6452 222.919 39.0995 223.216L40.5275 224.14C41.0145 224.438 41.5019 224.703 41.9892 224.968C42.4766 225.232 42.9636 225.53 43.4839 225.763C51.5447 229.842 60.6404 231.855 69.6904 232.016C74.2314 232.129 78.7456 231.69 83.199 230.828C85.3933 230.365 87.589 229.771 89.6888 228.981C91.7886 228.192 93.8247 227.239 95.6356 225.96L95.6686 225.928L95.7016 225.896C95.9974 225.736 96.2932 225.577 96.491 225.417C96.524 225.385 96.5574 225.32 96.5237 225.417C96.4906 225.449 96.4903 225.482 96.4893 225.579C96.4886 225.644 96.4872 225.774 96.5518 225.84C96.6485 225.971 96.6812 225.971 96.7135 226.004C96.7135 226.004 96.6485 225.971 96.5831 225.97C96.5178 225.969 96.4528 225.936 96.3548 225.935C95.7023 225.831 94.9842 225.758 94.2671 225.588C93.55 225.418 92.8342 225.118 92.1856 224.657C91.5369 224.195 91.0217 223.475 90.8013 222.694C90.5482 221.912 90.5565 221.132 90.6298 220.386C90.703 219.64 90.9067 218.928 91.11 218.248C91.5492 216.889 92.1838 215.597 92.8504 214.37C94.2163 211.917 95.7768 209.595 97.467 207.373C99.1245 205.15 100.879 202.993 102.699 200.869C104.486 198.745 106.338 196.686 108.222 194.661C109.148 193.631 110.107 192.635 111.065 191.638L112.486 190.127C112.949 189.613 113.412 189.13 113.875 188.616C117.642 184.662 121.118 180.412 124.205 175.932C127.291 171.451 129.989 166.706 132.068 161.695L132.47 160.758L132.671 160.305L132.84 159.82L133.513 157.911L133.85 156.973L134.122 156.002L134.698 154.06C134.901 153.412 135.006 152.764 135.177 152.084L135.416 151.112L135.519 150.626L135.622 150.14L135.97 148.163L136.073 147.677L136.143 147.191L136.252 146.185C136.43 144.856 136.509 143.525 136.589 142.162C136.629 141.481 136.603 140.831 136.61 140.149C136.614 139.825 136.618 139.467 136.621 139.143L136.567 138.136C136.464 135.472 136.166 132.773 135.605 130.17C135.078 127.534 134.321 124.961 133.367 122.483C132.857 121.243 132.348 120.004 131.739 118.828C131.451 118.241 131.131 117.653 130.81 117.065C130.65 116.771 130.49 116.51 130.297 116.215C130.136 115.954 129.943 115.659 129.782 115.43L128.43 113.533L130.785 113.33C131.046 113.301 131.374 113.272 131.701 113.21C132.028 113.149 132.323 113.087 132.618 113.025C133.24 112.869 133.83 112.713 134.421 112.492C134.979 112.271 135.505 111.984 135.998 111.697C136.459 111.377 136.855 110.992 137.153 110.605L139.062 112.444C138.897 112.572 138.831 112.604 138.7 112.668C138.601 112.732 138.503 112.763 138.404 112.827C138.207 112.922 138.01 113.018 137.78 113.08C137.387 113.238 136.96 113.364 136.535 113.424C136.109 113.517 135.684 113.545 135.292 113.573C134.867 113.569 134.442 113.564 134.05 113.527C132.418 113.348 130.888 112.812 129.524 112.018L129.004 111.753L128.518 111.423L127.577 110.796C127.285 110.566 126.993 110.335 126.702 110.072L126.281 109.711C126.119 109.579 125.989 109.48 125.86 109.349C125.343 108.824 124.792 108.331 124.276 107.773L122.822 106.134L118.625 101.349L124.379 104.17C124.509 104.236 124.705 104.304 124.867 104.37C125.03 104.437 125.225 104.504 125.388 104.571C125.746 104.704 126.104 104.805 126.495 104.94C127.244 105.142 127.994 105.313 128.745 105.418C130.278 105.629 131.814 105.613 133.256 105.271C133.976 105.116 134.665 104.864 135.355 104.547C136.012 104.229 136.637 103.846 137.23 103.398C138.383 102.468 139.376 101.31 140.174 99.9868L141.923 101.532C141.758 101.66 141.659 101.724 141.495 101.787C141.364 101.85 141.232 101.946 141.133 102.01C140.87 102.137 140.64 102.265 140.378 102.359C139.853 102.581 139.328 102.738 138.804 102.862C137.723 103.11 136.643 103.229 135.565 103.185C134.488 103.141 133.411 102.967 132.401 102.664C131.88 102.529 131.392 102.329 130.903 102.161C130.415 101.961 129.927 101.761 129.473 101.497C127.587 100.567 125.934 99.3483 124.412 97.9683C122.891 96.6208 121.534 95.1127 120.276 93.5731C119.018 92.0336 117.859 90.3977 116.766 88.73C115.673 87.0623 114.678 85.3631 113.683 83.664C112.688 81.9649 111.725 80.2661 110.763 78.5674C109.801 76.8686 108.839 75.1698 107.843 73.5031C107.329 72.6859 106.815 71.9011 106.234 71.213C105.653 70.5249 105.005 69.966 104.257 69.6983C103.508 69.4305 102.625 69.4861 101.708 69.6712C100.791 69.8563 99.873 70.1388 98.9551 70.4213C97.1187 71.0187 95.2487 71.7132 93.4117 72.3756C91.5421 73.0377 89.6727 73.6672 87.8038 74.2644C84.0658 75.4586 80.3275 76.6853 76.5892 77.9119L71.0139 79.801L65.3406 81.6891ZM65.3103 81.4614C65.376 81.4297 65.5074 81.3661 65.6058 81.3347L65.9339 81.2083L66.6228 80.9558L68.001 80.4184L70.757 79.3761L76.3013 77.3244C80.0083 75.9675 83.6823 74.6427 87.389 73.3183C89.226 72.6559 91.063 71.9935 92.9003 71.2986C94.7377 70.6037 96.5427 69.8761 98.4127 69.1816C99.364 68.8345 100.315 68.5199 101.33 68.3033C101.855 68.179 102.378 68.1196 102.934 68.0931C103.196 68.0634 103.489 68.099 103.783 68.1346C103.913 68.1684 104.076 68.2026 104.207 68.204C104.337 68.2379 104.501 68.2396 104.631 68.3059C104.924 68.4065 105.184 68.5067 105.444 68.6393C105.574 68.7056 105.704 68.772 105.834 68.8383L106.191 69.1019C106.645 69.4314 107.033 69.8252 107.355 70.2183C108.033 71.0048 108.612 71.8552 109.159 72.6729C110.253 74.3406 111.215 76.0393 112.243 77.7063C113.238 79.4054 114.233 81.0721 115.261 82.7391C116.289 84.4061 117.317 86.0731 118.378 87.6755C119.472 89.2783 120.599 90.8489 121.826 92.2907C123.052 93.765 124.377 95.1429 125.802 96.392C127.226 97.6411 128.783 98.6967 130.441 99.5261C130.864 99.7579 131.287 99.8923 131.71 100.092C132.133 100.226 132.556 100.393 133.012 100.495C133.892 100.732 134.773 100.871 135.655 100.88C136.538 100.89 137.421 100.802 138.273 100.584C138.698 100.491 139.092 100.332 139.486 100.174C139.683 100.079 139.88 100.016 140.045 99.888C140.143 99.8241 140.209 99.7923 140.308 99.7284C140.373 99.6966 140.505 99.6006 140.505 99.6006L145.149 96.2079L142.253 101.145C141.355 102.662 140.196 104.111 138.778 105.265C138.053 105.842 137.264 106.32 136.443 106.734C135.621 107.147 134.736 107.43 133.819 107.648C132.017 108.083 130.187 108.096 128.392 107.85C127.511 107.743 126.631 107.539 125.784 107.302C125.36 107.168 124.937 107.034 124.514 106.899C124.318 106.832 124.091 106.732 123.895 106.665C123.667 106.566 123.505 106.499 123.245 106.366L124.802 104.402L126.158 105.91C126.61 106.402 127.128 106.862 127.613 107.322C127.743 107.453 127.872 107.552 128.002 107.651L128.391 107.98L129.168 108.605L129.98 109.133L130.402 109.397L130.824 109.629C131.928 110.258 133.133 110.66 134.308 110.803C134.602 110.806 134.896 110.841 135.19 110.812C135.485 110.783 135.779 110.786 136.041 110.691C136.336 110.662 136.598 110.567 136.86 110.473C136.992 110.409 137.123 110.378 137.222 110.314C137.287 110.282 137.353 110.25 137.386 110.218C137.419 110.186 137.517 110.155 137.485 110.154L139.393 111.993C138.863 112.702 138.236 113.28 137.577 113.76C136.886 114.207 136.196 114.557 135.474 114.842C134.752 115.126 134.031 115.346 133.311 115.5C132.95 115.594 132.59 115.655 132.197 115.716C131.804 115.777 131.477 115.838 131.052 115.866L132.055 113.766C132.312 114.094 132.473 114.387 132.665 114.714C132.858 115.009 133.051 115.335 133.211 115.629C133.564 116.25 133.917 116.871 134.237 117.524C134.877 118.797 135.418 120.101 135.96 121.406C136.978 124.047 137.766 126.783 138.324 129.549C138.883 132.315 139.18 135.143 139.248 137.969L139.269 139.041C139.265 139.398 139.262 139.755 139.258 140.113C139.25 140.827 139.243 141.509 139.203 142.223C139.09 143.618 139.009 145.046 138.798 146.44L138.657 147.477L138.586 147.996L138.482 148.515L138.101 150.589L137.997 151.107L137.861 151.625L137.621 152.662C137.451 153.342 137.313 154.022 137.109 154.702L136.5 156.709L136.195 157.712L135.825 158.715L135.085 160.688L134.917 161.173L134.715 161.658L134.313 162.628C132.102 167.768 129.305 172.641 126.086 177.218C122.868 181.762 119.293 186.076 115.395 190.028C114.9 190.543 114.437 191.025 113.941 191.539L112.488 193.017C111.53 194.014 110.572 194.978 109.614 195.974C107.73 197.967 105.846 199.961 104.027 202.02C102.208 204.078 100.421 206.17 98.7313 208.328C97.0418 210.486 95.4496 212.709 94.0851 215.033C93.4192 216.195 92.818 217.422 92.3801 218.651C92.1775 219.266 92.0073 219.914 91.9027 220.53C91.8308 221.146 91.8242 221.763 91.9817 222.317C92.1392 222.87 92.4611 223.328 92.9148 223.69C93.3684 224.052 93.9541 224.286 94.5732 224.455C95.1923 224.624 95.8447 224.728 96.5625 224.833C96.6606 224.834 96.7582 224.868 96.8559 224.901C96.9536 224.935 97.0516 224.936 97.214 225.035C97.3113 225.101 97.409 225.134 97.5699 225.363C97.6342 225.461 97.6648 225.657 97.6311 225.754C97.6297 225.884 97.5637 225.948 97.5303 226.012C97.3972 226.238 97.2989 226.27 97.1998 226.366C96.8376 226.622 96.5418 226.781 96.2134 226.94L96.2791 226.908C94.3368 228.251 92.2026 229.203 90.0379 229.959C87.8731 230.716 85.6124 231.276 83.3854 231.74C78.8667 232.601 74.2878 232.974 69.6814 232.86C60.5337 232.666 51.34 230.652 43.1155 226.603C38.987 224.578 35.159 221.94 31.7607 218.852C28.3623 215.763 25.427 212.16 23.0505 208.238C22.7616 207.748 22.44 207.257 22.1511 206.767L21.3505 205.232L20.5499 203.698L19.8476 202.132C18.9225 200.011 18.1611 197.86 17.531 195.645C16.3037 191.216 15.6008 186.63 15.5521 181.986C15.5319 180.817 15.544 179.68 15.5891 178.512L15.7054 176.792C15.7443 176.208 15.8155 175.657 15.887 175.073C15.9259 174.489 16.0298 173.938 16.1014 173.354C16.1729 172.77 16.2441 172.219 16.381 171.636L16.693 169.951L17.0374 168.298C17.9669 163.86 18.929 159.421 19.9235 155.015C21.8801 146.171 23.9674 137.329 26.1197 128.519C30.4904 110.836 35.0557 93.2845 40.1428 75.8361L40.3117 75.3183L40.8331 75.4538L53.0559 78.4087L65.3103 81.4614Z" fill="black"/>
<path d="M59.1455 224.923C57.941 224.488 56.803 223.956 55.6329 223.359C54.4955 222.762 53.3912 222.134 52.3202 221.44C51.8012 221.078 51.2492 220.747 50.7302 220.384L49.1736 219.264L47.6503 218.079L47.2613 217.782L46.9053 217.454L46.1931 216.829L45.4808 216.205C45.2542 216.007 45.0279 215.778 44.7689 215.548L43.378 214.202L42.0532 212.791L41.407 212.102C41.1807 211.873 40.9874 211.611 40.7938 211.382L39.5677 209.907C39.1481 209.416 38.7942 208.892 38.4076 208.369C38.0211 207.845 37.6342 207.354 37.2806 206.798L36.2519 205.196C33.4875 200.88 31.3814 196.117 29.8648 191.23C28.3485 186.311 27.4218 181.268 26.9532 176.165C26.1793 165.96 27.0729 155.676 29.2699 145.73C31.4343 135.784 34.6419 126.077 38.5972 116.734C35.2926 126.344 32.4445 136.055 30.5418 145.971C30.473 146.295 30.4046 146.587 30.3684 146.911L30.2277 147.851L29.9463 149.732C29.7372 150.963 29.5277 152.228 29.3512 153.46L28.9518 157.222L28.7357 159.103C28.6996 159.428 28.6965 159.72 28.6603 160.044L28.6177 160.985L28.2836 164.749C28.2443 165.365 28.2701 166.015 28.2636 166.632L28.2436 168.515L28.2235 170.398C28.2201 170.723 28.2497 171.015 28.2462 171.34L28.3016 172.282C28.3861 173.55 28.4384 174.784 28.5229 176.051C28.9599 181.057 29.855 186.002 31.3073 190.791C32.7266 195.612 34.7364 200.212 37.3048 204.525L38.3007 206.127C38.622 206.65 39.0085 207.174 39.3624 207.697C39.7163 208.22 40.0702 208.744 40.4571 209.235L41.6179 210.708C41.8112 210.97 42.0048 211.2 42.1981 211.461L42.8113 212.182L44.0381 213.592C44.911 214.478 45.7831 215.429 46.7217 216.283L47.401 216.94L47.7569 217.268L48.1133 217.564L49.5378 218.813L51.0284 219.998C51.5144 220.393 52.066 220.756 52.5523 221.118C54.6283 222.569 56.8037 223.891 59.1455 224.923Z" fill="black"/>
<path d="M60.9028 222.538C59.6354 221.875 58.5008 221.019 57.3995 220.098C56.3309 219.178 55.296 218.16 54.3269 217.111C52.4215 214.98 50.813 212.592 49.5006 210.013C49.1804 209.392 48.8936 208.707 48.5738 208.055C48.3193 207.402 48.0325 206.718 47.8106 206.066C47.3347 204.729 46.9247 203.329 46.6452 201.962C46.054 199.163 45.7573 196.335 45.918 193.511C46.4442 196.277 47.0687 199.011 47.8902 201.65C47.9848 201.976 48.1121 202.302 48.2066 202.628C48.3339 202.954 48.4284 203.28 48.5557 203.606C48.8102 204.258 49.032 204.91 49.2868 205.529C49.7962 206.801 50.3708 208.074 50.9789 209.282C52.1946 211.73 53.6728 214.084 55.3157 216.309C57.0243 218.503 58.8316 220.633 60.9028 222.538Z" fill="black"/>
<path d="M122.028 147.041C122.392 146.687 122.69 146.269 122.989 145.85C123.287 145.431 123.553 145.011 123.787 144.559C124.253 143.687 124.655 142.75 124.927 141.811C125.231 140.873 125.47 139.901 125.611 138.928L125.68 138.572L125.717 138.215L125.823 137.469C125.86 136.983 125.898 136.496 125.937 135.977C125.99 133.997 125.913 132.015 125.64 130.031C125.367 128.048 124.996 126.095 124.493 124.174C124.401 123.686 124.242 123.197 124.117 122.709C123.991 122.221 123.866 121.732 123.707 121.276L123.232 119.842L123.011 119.125L122.757 118.408C122.408 117.463 122.091 116.518 121.709 115.572C121.327 114.626 120.978 113.681 120.595 112.768C119.034 109.049 117.308 105.361 115.55 101.673C117.9 105.011 119.987 108.54 121.777 112.228C123.568 115.916 125.096 119.764 126.099 123.737L126.443 125.234C126.568 125.722 126.628 126.243 126.753 126.763C126.816 127.024 126.846 127.284 126.909 127.512L127.031 128.293C127.091 128.813 127.184 129.301 127.244 129.821C127.451 131.869 127.494 133.98 127.275 136.056C127.057 138.132 126.578 140.173 125.741 142.08C125.306 143.017 124.806 143.953 124.209 144.791C123.579 145.661 122.884 146.465 122.028 147.041Z" fill="black"/>
<path d="M64.8463 103.602C65.0829 102.858 65.5796 102.246 66.1732 101.733C66.4701 101.477 66.7992 101.253 67.1607 101.062C67.3251 100.966 67.5219 100.903 67.6863 100.808L67.949 100.68L68.2441 100.586C68.4409 100.523 68.6049 100.46 68.8017 100.397L69.3915 100.241C69.7846 100.148 70.1767 100.152 70.5685 100.189C70.9599 100.258 71.3509 100.359 71.709 100.493C72.0667 100.659 72.424 100.858 72.748 101.121L72.7136 101.283C72.3194 101.474 71.959 101.567 71.5989 101.628C71.2384 101.722 70.911 101.784 70.5512 101.812C70.3875 101.843 70.2238 101.874 70.0604 101.872C69.8971 101.87 69.7337 101.868 69.5703 101.867L69.0806 101.829C68.9172 101.827 68.7535 101.858 68.5901 101.856L68.3284 101.886L68.0989 101.948C67.9352 101.979 67.7715 102.01 67.6075 102.073C67.2797 102.167 66.9846 102.261 66.6561 102.42C66.0649 102.706 65.4723 103.122 65.0416 103.669L64.8463 103.602Z" fill="black"/>
<path d="M54.6754 92.0642C54.6754 92.0642 66.2756 95.1749 80.6177 89.3525" stroke="black" stroke-width="5.0946" stroke-miterlimit="10" stroke-linecap="round" stroke-linejoin="round"/>
<path d="M41.9035 94.6561L45.324 83.3597C45.3581 83.2302 45.5225 83.1345 45.6528 83.1684C45.7832 83.2022 45.8795 83.3656 45.8454 83.4951L45.3002 85.6L44.8796 85.2059L64.9458 78.8598L65.4194 80.4235L45.0691 85.8249C44.9053 85.8556 44.7103 85.7561 44.6794 85.5934C44.6474 85.5282 44.6808 85.4636 44.6811 85.4311L45.324 83.3597L45.8451 83.5276L41.9035 94.6561Z" fill="black"/>
<path d="M65.2072 78.8626L98.6534 80.3545L98.4539 80.6771L97.3025 78.3269C97.2709 78.2291 97.3046 78.1321 97.4033 78.0682C97.5016 78.0368 97.5993 78.0703 97.6313 78.1355L102.926 87.2515L97.3025 78.3269L97.6313 78.1355L98.8811 80.4543C98.9454 80.5524 98.911 80.7144 98.7796 80.778C98.7466 80.8101 98.7139 80.8098 98.6813 80.8094L65.19 80.486L65.2072 78.8626Z" fill="black"/>
<path d="M54.4053 25.2337C52.5377 25.701 50.7677 26.2017 48.9968 26.7999C47.2262 27.3656 45.5199 28.0293 43.8775 28.8237C42.2352 29.618 40.6572 30.5105 39.1755 31.5663C37.6937 32.6222 36.3407 33.8742 35.0512 35.2893C35.7563 33.5108 36.9172 31.8995 38.3363 30.5832C39.7558 29.2345 41.4009 28.1804 43.1742 27.355C44.9476 26.5295 46.7839 25.9321 48.6831 25.5626C50.5494 25.2252 52.4792 25.0509 54.4053 25.2337Z" fill="#864D22"/>
<path d="M64.7179 26.5123C65.8151 24.738 67.3347 23.1955 69.0791 22.0126C69.9679 21.4051 70.9206 20.9281 71.9377 20.5493C72.9547 20.1704 73.9707 19.8889 75.0187 19.6728C79.21 18.873 83.4899 18.951 87.6667 19.5149C89.7547 19.8294 91.8087 20.2733 93.83 20.717C95.851 21.193 97.9046 21.6695 99.8922 22.2102C103.933 23.2597 107.94 24.4064 111.88 25.7796C107.77 25.054 103.694 24.2638 99.6177 23.4412L93.5197 22.2399C91.4654 21.8284 89.4764 21.4176 87.4207 21.1359C85.398 20.8222 83.3409 20.6704 81.3155 20.6164C79.2574 20.5621 77.2302 20.6704 75.2016 20.9087C73.2054 21.1797 71.2391 21.7108 69.464 22.6986C67.6892 23.6539 66.1067 24.9684 64.7179 26.5123Z" fill="black"/>
<path d="M66.3382 24.7111C65.6528 24.6389 64.9339 24.6313 64.2478 24.624C63.8884 24.6201 63.5616 24.6167 63.2022 24.6129C62.8428 24.609 62.5157 24.638 62.1563 24.6342C60.7506 24.6842 59.3766 24.832 58.0018 25.0447C55.2527 25.4376 52.5652 26.1884 50.0699 27.2984C49.7741 27.4576 49.4463 27.5515 49.1502 27.7432L48.2628 28.2209L47.8353 28.4761L47.374 28.8284C47.0779 29.0201 46.8144 29.2121 46.5183 29.4038C45.3991 30.1712 44.3122 30.9715 43.29 31.8374C42.7627 32.2539 42.3001 32.7361 41.8375 33.2182C41.3749 33.7004 40.9773 34.2157 40.5793 34.7635C40.214 35.3117 39.8811 35.8926 39.7112 36.5078C39.61 36.799 39.5739 37.1233 39.6035 37.4159C39.6331 37.7084 39.761 37.9696 40.0867 38.0704L40.085 38.2328C39.8886 38.2632 39.6606 38.1958 39.4986 38.0642C39.3366 37.9326 39.2079 37.7364 39.1443 37.5733C38.9851 37.182 38.9566 36.792 38.9934 36.4027C39.0343 35.6238 39.2706 34.912 39.6046 34.2336C40.2399 32.8765 41.1672 31.7174 42.1912 30.6892C43.2478 29.6613 44.4007 28.7968 45.6502 28.0632C45.979 27.8719 46.2748 27.7127 46.6033 27.5538L47.0962 27.2992L47.5887 27.0772L48.5738 26.633C48.9022 26.4742 49.23 26.3802 49.5911 26.2217C52.2818 25.1787 55.0983 24.5917 57.9114 24.3293C59.3178 24.2144 60.7561 24.1647 62.1608 24.2121C63.5654 24.2595 64.9694 24.3719 66.3719 24.6141L66.3382 24.7111Z" fill="black"/>
<path d="M35.5144 68.5781C34.9414 67.1432 34.5982 65.6134 34.32 64.1167C34.0749 62.5879 33.9277 61.0602 33.8789 59.501C33.8301 57.9418 33.9444 56.4168 34.157 54.8604C34.3692 53.3365 34.6795 51.8136 35.0221 50.3235C35.7077 47.3109 36.6863 44.3988 37.9253 41.5869C39.1966 38.8078 40.6955 36.1286 42.4869 33.6148L42.6165 33.7136C41.0856 36.3276 39.7493 39.0735 38.6737 41.8871C37.6308 44.7011 36.8155 47.6149 36.2937 50.5968C36.0491 52.0879 35.8698 53.5798 35.7559 55.0723C35.6421 56.5648 35.5608 58.0576 35.5123 59.5508C35.3825 62.5369 35.4161 65.5247 35.6451 68.5795L35.5144 68.5781Z" fill="black"/>
<path d="M37.2818 89.8336C36.043 89.5607 34.9049 89.029 33.8342 88.3033C33.2826 87.9402 32.7966 87.5454 32.3113 87.0856C31.8587 86.6262 31.4068 86.1018 31.0863 85.5139C30.7331 84.9257 30.4786 84.2735 30.3551 83.5903C30.2317 82.9071 30.2396 82.1603 30.3445 81.512C30.554 80.2478 30.8609 79.0496 31.2654 77.8849C32.0094 75.5223 33.0461 73.2928 34.1801 71.1292C35.3469 68.966 36.5782 66.8684 37.9719 64.8699L38.1016 64.9687C36.9352 67.0995 35.8339 69.2634 34.8952 71.494C33.9565 73.7246 33.0832 75.9559 32.5032 78.2552C32.1967 79.421 31.9883 80.5877 31.9108 81.7234C31.8341 82.7942 32.0525 83.7707 32.5322 84.75C32.7558 85.2394 33.0777 85.6974 33.4326 86.1234C33.7872 86.5817 34.1751 86.9755 34.5954 87.4021C35.4363 88.2229 36.3759 88.9797 37.3816 89.6723L37.2818 89.8336Z" fill="black"/>
<path d="M57.5467 67.8705C59.5334 65.4238 63.0392 64.5518 65.9069 65.2967C70.6646 66.5487 74.328 72.3677 72.1204 77.1501C70.2469 81.2541 64.8036 83.0147 60.7387 81.1531C55.796 78.86 54.4336 71.7666 57.5467 67.8705Z" fill="#E4A581" stroke="black" stroke-width="2.3033" stroke-miterlimit="10"/>
<path d="M61.3654 68.3008C61.9285 67.5924 62.9768 67.3437 63.7916 67.5472C65.1928 67.9193 66.2531 69.6191 65.6175 71.0087C65.0819 72.2044 63.4754 72.7069 62.3046 72.1749C60.8738 71.5103 60.4712 69.4278 61.3654 68.3008Z" fill="url(#paint2_radial_1011_1752)"/>
<path d="M48.3249 53.1276C48.3249 53.1276 51.0149 39.8426 59.2512 39.7029C67.4875 39.5631 63.4976 55.2372 63.4976 55.2372C63.4976 55.2372 61.0625 66.057 53.7762 65.9795C46.4899 65.9021 48.0504 54.3586 48.3249 53.1276Z" fill="white"/>
<path d="M48.3249 53.1276C48.6338 51.7346 49.0404 50.3751 49.5446 49.0491C49.7806 48.3697 50.0489 47.7231 50.3498 47.0769C50.6508 46.4306 50.9518 45.7844 51.3177 45.1713C51.6837 44.5582 52.0497 43.9451 52.4807 43.3652C52.9116 42.7853 53.3749 42.2382 53.9032 41.7242C54.4316 41.2103 55.0245 40.762 55.6495 40.379C56.3071 39.9963 56.9963 39.7114 57.7172 39.5242C58.4708 39.3374 59.2234 39.248 60.0072 39.2888C60.7907 39.362 61.6055 39.5655 62.2871 39.9949C62.9688 40.4243 63.5504 41.0474 63.9352 41.7334C64.3201 42.4194 64.6066 43.1369 64.7947 43.8857C65.1712 45.351 65.286 46.8459 65.2705 48.307C65.255 49.7681 65.1088 51.2278 64.8649 52.6539C64.7593 53.3672 64.621 54.0801 64.45 54.7927C64.3117 55.5056 64.0754 56.2175 63.8391 56.9294C63.3668 58.3206 62.7642 59.6781 61.9992 60.9363C61.2343 62.1946 60.3063 63.4187 59.1523 64.3806C57.9981 65.375 56.5528 66.074 55.0477 66.2528C54.2952 66.3423 53.5437 66.3343 52.7936 66.1964C52.0434 66.0585 51.3277 65.7587 50.7117 65.2975C50.0958 64.8364 49.6115 64.2792 49.259 63.626C48.8735 63.005 48.652 62.3207 48.4309 61.604C48.0536 60.2036 47.9381 58.7737 47.9206 57.3447C47.9282 56.6304 47.9358 55.9161 48.0087 55.2025C48.114 54.5217 48.1869 53.8081 48.3249 53.1276ZM48.3249 53.1276C48.0486 54.521 48.0008 55.9492 48.0183 57.3782C48.0684 58.8075 48.2497 60.2057 48.6926 61.5743C49.1359 62.9103 49.8739 64.1846 51.0426 64.9114C52.1786 65.6379 53.6483 65.7184 54.958 65.4726C56.2681 65.1942 57.4519 64.4924 58.4095 63.5609C59.367 62.6294 60.131 61.4685 60.7645 60.2738C61.3981 59.079 61.902 57.7855 62.3083 56.4585C62.5112 55.8112 62.6818 55.1311 62.8194 54.4831C62.9574 53.8027 63.0953 53.1222 63.2006 52.4414C63.4111 51.0798 63.5893 49.6854 63.6368 48.2896C63.684 46.9263 63.6661 45.5298 63.3859 44.2279C63.2294 43.5768 63.0726 42.9582 62.7847 42.3707C62.4965 41.8156 62.1096 41.3244 61.6233 40.962C61.137 40.5997 60.5513 40.3661 59.8988 40.2618C59.246 40.1899 58.5595 40.2151 57.905 40.3055C57.2502 40.4285 56.5943 40.6488 55.9703 40.9344C55.3461 41.2525 54.7865 41.6362 54.2262 42.0849C53.6986 42.5339 53.2029 43.0482 52.74 43.5628C52.2767 44.1099 51.8784 44.6902 51.4801 45.2704C50.0169 47.6578 48.9754 50.3419 48.3249 53.1276Z" fill="black"/>
<path d="M60.0479 56.9865C60.9107 58.8141 60.1908 61.9887 58.968 63.2746C57.2827 65.0426 54.3076 65.1734 52.7307 62.8836C51.4434 61.019 51.3455 57.9331 52.7365 56.1944C54.7892 53.6834 58.6419 53.9841 60.0479 56.9865Z" fill="black"/>
<path d="M53.8682 60.3953C54.2291 60.3992 54.5248 60.1115 54.5286 59.7529C54.5324 59.3943 54.2429 59.1004 53.882 59.0966C53.5211 59.0928 53.2254 59.3804 53.2216 59.739C53.2178 60.0977 53.5073 60.3915 53.8682 60.3953Z" fill="white"/>
<path d="M60.9801 30.7589L60.6416 34.9442C60.6416 34.9442 51.6033 33.6792 47.5972 38.5724C47.5972 38.5724 51.4159 29.7805 60.9801 30.7589Z" fill="white"/>
<path d="M60.9801 30.7589L60.9254 32.8366L60.8699 34.9791C60.8689 35.0765 60.7698 35.1729 60.6718 35.1719L60.6391 35.1715C59.4966 35.062 58.32 35.0819 57.1757 35.1347C56.0311 35.22 54.8857 35.3701 53.7394 35.6177C52.6257 35.8657 51.5433 36.2439 50.5246 36.785C50.0317 37.0396 49.5381 37.3591 49.1099 37.6792C48.6814 38.0319 48.2851 38.4173 47.9212 38.8356L47.9209 38.8681C47.7885 39.029 47.5267 39.0587 47.332 38.9268C47.2027 38.7955 47.1395 38.6 47.2392 38.4387C47.5405 37.76 47.9061 37.1794 48.3044 36.5991C48.7027 36.0188 49.1334 35.4714 49.5967 34.9243C50.5553 33.8954 51.6435 32.9652 52.8604 32.2313C53.485 31.8808 54.1093 31.5627 54.7655 31.3099C55.4217 31.0571 56.11 30.8695 56.7975 30.747C58.2049 30.5346 59.6099 30.5495 60.9801 30.7589ZM60.9801 30.7589C59.6082 30.7119 58.2018 30.8268 56.8914 31.1376C56.2362 31.293 55.5803 31.5134 54.9564 31.799C54.3325 32.0846 53.7409 32.403 53.1816 32.7543C52.0628 33.4892 51.0402 34.3876 50.1796 35.4176C49.3191 36.4475 48.5228 37.5756 47.9876 38.7389L47.2733 38.3092C47.6705 37.8263 48.0998 37.4087 48.594 37.0243C49.0883 36.6399 49.6145 36.3208 50.1404 36.0341C51.2249 35.4611 52.3723 35.1161 53.5513 34.8689C54.7303 34.6216 55.9076 34.5367 57.1169 34.5171C58.2935 34.4971 59.5018 34.5749 60.6763 34.7498L60.4455 34.9422L60.9801 30.7589Z" fill="black"/>
<path d="M82.748 48.785C82.748 48.785 85.3704 32.6417 99.5891 35.3581C106.992 36.7682 106.688 46.8962 105.876 52.6352C105.31 56.6232 103.441 60.3052 100.407 62.9681C98.2629 64.8287 95.338 66.3888 91.6458 66.3495C82.3337 66.2506 81.1255 53.8659 82.748 48.785Z" fill="white"/>
<path d="M82.7481 48.785C83.0941 46.9702 83.6686 45.1903 84.438 43.51C84.8391 42.67 85.2398 41.8624 85.7385 41.0559C86.2369 40.2819 86.8003 39.541 87.4287 38.8333C88.6852 37.4504 90.2006 36.2975 91.9726 35.6019L92.6288 35.3491C92.8582 35.2866 93.0876 35.2241 93.317 35.1616L93.6448 35.0677L94.0049 35.0065L94.6928 34.8515C95.6417 34.7317 96.5903 34.6443 97.5372 34.7194L98.2557 34.7595C98.484 34.7944 98.7124 34.8293 98.9738 34.832L99.6916 34.9371C99.92 34.972 100.181 35.0397 100.409 35.0746C101.354 35.3119 102.297 35.7441 103.108 36.3697C103.918 36.9953 104.563 37.749 105.077 38.5987C105.591 39.4484 105.973 40.3617 106.258 41.274C106.826 43.1309 107.035 45.049 107.08 46.9329C107.125 48.8167 106.975 50.6985 106.726 52.5792C106.477 54.4924 105.934 56.3701 105.066 58.1143C104.23 59.8589 103.07 61.4377 101.683 62.7868C100.296 64.1359 98.6509 65.2225 96.8458 65.9502C95.0412 66.6454 93.0773 66.9492 91.1509 66.7989C90.204 66.7239 89.2259 66.5186 88.3478 66.1196C87.4694 65.7531 86.6584 65.1925 85.9465 64.5354C84.5553 63.2218 83.6584 61.5237 83.0562 59.7638C82.454 58.0039 82.1796 56.1501 82.1013 54.2983C82.0559 52.4145 82.2063 50.5652 82.7481 48.785ZM82.7481 48.785C82.2063 50.5652 82.0886 52.4148 82.1996 54.2669C82.3107 56.119 82.6508 57.9411 83.2863 59.6364C83.9218 61.3317 84.9175 62.9658 86.2777 64.1168C86.9577 64.7086 87.7374 65.139 88.5838 65.4402C89.4302 65.7415 90.311 65.8807 91.1932 65.8901C92.9899 65.9417 94.7588 65.5383 96.3678 64.8086C97.9768 64.0788 99.4262 62.9901 100.649 61.7043C101.871 60.4508 102.867 58.9677 103.603 57.3519C104.339 55.7686 104.815 54.0526 105.062 52.3018C105.31 50.5184 105.46 48.7016 105.446 46.9155C105.433 45.1294 105.321 43.3422 104.849 41.6162C104.629 40.7696 104.344 39.9547 103.927 39.2035C103.51 38.4522 102.995 37.7648 102.347 37.2059C101.699 36.647 100.952 36.2494 100.105 35.9806L99.4862 35.8116L98.8341 35.6748C98.6058 35.6399 98.3777 35.5726 98.1817 35.5705L97.4962 35.4982C96.5824 35.3911 95.6998 35.4142 94.7843 35.4694L94.0971 35.5595L93.7697 35.621L93.4422 35.6825L92.787 35.8379L92.1311 36.0582C90.4255 36.657 88.8461 37.6794 87.5577 38.997C86.2692 40.3147 85.2398 41.8624 84.4703 43.5428C83.7009 45.2232 83.1268 46.9706 82.7481 48.785Z" fill="black"/>
<path d="M96.1271 53.6356C98.7083 53.663 100.16 55.3995 100.825 57.3873C101.712 60.092 100.463 63.7805 97.6782 64.4978C95.4175 65.0582 92.9835 63.4737 92.0897 61.4834C90.6858 58.2862 92.3696 53.5957 96.1271 53.6356Z" fill="black"/>
<path d="M94.8072 60.9927C95.1681 60.9966 95.4637 60.709 95.4675 60.3503C95.4714 59.9917 95.1819 59.6978 94.821 59.694C94.4601 59.6902 94.1644 59.9778 94.1606 60.3364C94.1568 60.6951 94.4463 60.9889 94.8072 60.9927Z" fill="white"/>
<path d="M84.7879 29.0311C84.7879 29.0311 87.9899 32.15 87.8495 33.0577C87.7092 33.9655 96.0974 25.6768 102.033 26.7465C102.066 26.7144 97.1218 21.5313 84.7879 29.0311Z" fill="white"/>
<path d="M84.7879 29.0311C85.4352 29.6225 86.0825 30.2139 86.6637 30.8695C86.9543 31.1973 87.2449 31.5251 87.5352 31.8854C87.6638 32.0816 87.7928 32.2453 87.9211 32.474C87.9854 32.5721 88.0167 32.7023 88.048 32.8326C88.0473 32.8975 88.0793 32.9628 88.0783 33.0602C88.0776 33.1251 88.1113 33.0281 88.0143 32.9296C87.9816 32.9293 87.982 32.8968 87.9493 32.8964C87.9493 32.8964 87.9493 32.8964 87.9166 32.8961C87.9496 32.864 88.081 32.8004 88.1467 32.7687C88.2454 32.7048 88.3115 32.6405 88.4102 32.5766L88.9371 32.1926L89.9913 31.392C90.6833 30.8473 91.4077 30.3354 92.132 29.8236C93.5804 28.8323 95.1261 27.9071 96.8 27.2105C97.6207 26.862 98.506 26.5792 99.3903 26.3937C100.275 26.2083 101.223 26.1534 102.169 26.3258L101.802 27.0038C101.705 26.9054 101.543 26.7738 101.413 26.675C101.284 26.5762 101.121 26.4771 100.959 26.3779C100.797 26.2788 100.634 26.2121 100.472 26.113C100.309 26.0463 100.146 25.9796 99.9509 25.9126C99.7882 25.8459 99.5929 25.7789 99.4298 25.7447C99.2668 25.7105 99.0715 25.6435 98.9084 25.6093L98.354 25.506C98.1583 25.4714 97.9953 25.4372 97.7992 25.4351C96.3306 25.2572 94.7936 25.3707 93.3194 25.7122L92.7626 25.8362L92.2054 25.9927L91.091 26.3055C90.3695 26.5576 89.6479 26.8097 88.9259 27.0943C88.2363 27.4117 87.5144 27.6963 86.8248 28.0137C86.2009 28.2993 85.5109 28.6492 84.7879 29.0311ZM84.7879 29.0311C85.4129 28.6481 86.0709 28.233 86.7292 27.7854C87.0583 27.5616 87.4195 27.403 87.7483 27.2117L88.767 26.6705C89.0959 26.4792 89.4893 26.3535 89.8178 26.1946C90.1789 26.0361 90.5401 25.8775 90.9009 25.7515L92.0159 25.3737L92.5735 25.1848L93.1303 25.0608C94.6378 24.6547 96.2405 24.5093 97.8402 24.6562C98.0362 24.6583 98.2319 24.6929 98.4276 24.7274L99.0147 24.8311C99.2104 24.8656 99.4058 24.9326 99.6011 24.9997C99.7965 25.0667 99.9922 25.1012 100.187 25.2007C100.383 25.2677 100.578 25.3348 100.74 25.4339C100.935 25.5334 101.098 25.6001 101.293 25.6996C101.65 25.9307 101.975 26.1289 102.331 26.4574C102.492 26.6215 102.489 26.8813 102.324 27.0419C102.225 27.1382 102.094 27.1693 101.964 27.1679L101.931 27.1676C100.3 26.8905 98.5961 27.327 97.0208 27.9597C95.4129 28.592 93.9006 29.4527 92.4199 30.4111C91.6959 30.8905 90.9719 31.3699 90.2475 31.8818L89.161 32.6495L88.6014 33.0333C88.5027 33.0972 88.404 33.1611 88.3053 33.225C88.2065 33.2888 88.1078 33.3527 87.9441 33.3835C87.9114 33.3831 87.9114 33.3831 87.8457 33.4149C87.8131 33.4146 87.8131 33.4146 87.7804 33.4142C87.7477 33.4139 87.7154 33.381 87.6827 33.3807C87.5204 33.2816 87.5878 33.0874 87.5548 33.1196C87.5551 33.0871 87.5555 33.0546 87.5558 33.0222C87.5242 32.9244 87.5249 32.8595 87.4606 32.7614C87.3646 32.5655 87.2683 32.4021 87.1724 32.2063C86.9474 31.8467 86.6898 31.4868 86.3992 31.159C85.9504 30.3424 85.4018 29.6871 84.7879 29.0311Z" fill="black"/>
<path d="M113.701 26.5783C113.701 26.5783 125.397 17.5779 137.896 25.3092C149.583 32.5448 149.305 49.5247 149.305 49.5247C149.305 49.5247 147.418 36.4509 136.871 29.4872C128.142 23.7443 120.331 26.941 120.331 26.941L113.701 26.5783Z" fill="#864D22"/>
<path d="M113.701 26.5783C115.117 25.5542 116.629 24.726 118.173 23.9955C119.749 23.2654 121.389 22.6984 123.093 22.2943C124.796 21.8903 126.53 21.6814 128.295 21.7002C130.059 21.7189 131.821 21.9974 133.481 22.5671C135.174 23.1371 136.767 23.9334 138.194 24.9876C139.62 26.0419 140.915 27.2571 142.044 28.6005C142.335 28.9283 142.592 29.2882 142.85 29.6157C143.108 29.9756 143.398 30.3034 143.623 30.663C144.106 31.3825 144.621 32.1024 145.037 32.8861L145.679 34.0295C145.903 34.4215 146.063 34.8129 146.255 35.2046C146.447 35.5963 146.638 35.988 146.83 36.3797L147.34 37.5866C148.042 39.1852 148.613 40.8473 149.118 42.5088C149.59 44.2023 149.997 45.8952 150.24 47.6188C150.792 51.0667 150.918 54.575 150.652 58.0792C150.386 61.5509 149.696 65.0181 148.68 68.3519C148.172 70.035 147.599 71.6526 146.928 73.269C146.593 74.0773 146.225 74.8852 145.857 75.6606C145.457 76.4681 145.089 77.2111 144.591 78.0176L144.59 78.0501L144.557 78.0822C143.828 79.0486 143.1 79.9501 142.306 80.8184C141.545 81.7195 140.719 82.5875 139.893 83.423C139.034 84.2581 138.176 85.0608 137.188 85.7972C136.694 86.1491 136.2 86.5011 135.641 86.8198C135.082 87.1386 134.492 87.3921 133.771 87.5468L131.839 87.9484L132.967 86.3368C133.066 86.208 133.166 86.0142 133.266 85.8529C133.366 85.6916 133.466 85.4978 133.566 85.3365C133.665 85.1752 133.733 84.9811 133.833 84.7874C133.933 84.5936 134 84.4319 134.068 84.2378L134.302 83.6558L134.505 83.0735C134.64 82.6852 134.742 82.2967 134.877 81.9084C135.318 80.322 135.597 78.6689 135.746 77.0144L135.824 75.7813C135.861 75.3595 135.833 74.9371 135.837 74.5475C135.846 73.7033 135.789 72.8909 135.733 72.046C135.705 71.6236 135.644 71.2008 135.615 70.8108L135.465 69.5753C135.343 68.7622 135.156 67.9159 135.034 67.1028L135.356 67.5609C133.863 66.6033 132.502 65.5497 131.206 64.4319C129.911 63.3141 128.65 62.0992 127.486 60.8529C126.324 59.5742 125.26 58.2315 124.262 56.7921C123.297 55.3531 122.43 53.8826 121.728 52.284C120.993 50.7176 120.488 49.0561 120.048 47.4278C119.641 45.7674 119.365 44.076 119.219 42.3534C119.107 40.6312 119.092 38.9425 119.241 37.223C119.39 35.5361 119.637 33.8177 120.079 32.1663L120.143 32.3618L113.701 26.5783ZM113.701 26.5783C114.835 27.4995 115.969 28.3883 117.071 29.2768C118.205 30.1656 119.274 31.0537 120.376 31.9421L120.473 32.0081L120.439 32.1376C120.062 33.7572 119.881 35.4439 119.798 37.1315C119.714 38.8192 119.795 40.4761 119.973 42.1666C120.095 42.9797 120.184 43.8249 120.372 44.6387C120.494 45.4518 120.746 46.2663 120.934 47.0801C121.407 48.6762 121.946 50.2731 122.682 51.7422C123.385 53.2433 124.285 54.6492 125.218 56.0229C126.184 57.3646 127.248 58.6748 128.412 59.8886C129.575 61.1024 130.805 62.252 132.068 63.3045C132.716 63.831 133.364 64.3574 134.045 64.8517C134.726 65.3461 135.407 65.8404 136.089 66.2373L136.348 66.4024L136.411 66.6953C136.565 67.5412 136.752 68.3875 136.907 69.2334L137.089 70.5342C137.15 70.957 137.211 71.3798 137.238 71.8347C137.294 72.7121 137.383 73.5573 137.374 74.4339C137.37 74.856 137.398 75.3109 137.36 75.7327L137.314 77.031C137.197 78.7833 136.918 80.5013 136.475 82.2177C136.339 82.6384 136.237 83.0594 136.102 83.4801L135.899 84.0949L135.664 84.7094C135.596 84.9035 135.496 85.1298 135.396 85.3235C135.296 85.5173 135.228 85.7439 135.095 85.9373C134.995 86.1311 134.895 86.3248 134.762 86.5507C134.662 86.7445 134.529 86.9379 134.396 87.1638L133.592 85.9213C134.509 85.7362 135.463 85.1294 136.353 84.4569C137.242 83.7845 138.067 83.0139 138.893 82.2109C139.686 81.4075 140.479 80.5717 141.207 79.7027C141.968 78.834 142.696 77.9325 143.359 77.0303L143.326 77.0949C143.725 76.4173 144.126 75.6422 144.493 74.8992C144.86 74.1563 145.195 73.3805 145.53 72.6047C146.2 71.0532 146.773 69.4681 147.247 67.8496C147.755 66.2314 148.165 64.5797 148.476 62.9269C148.788 61.2741 149.035 59.5882 149.183 57.9012C149.48 54.5273 149.418 51.1495 148.898 47.7994C148.688 46.1086 148.28 44.4807 147.873 42.8527C147.4 41.2241 146.894 39.6276 146.224 38.0618C144.918 34.9306 143.349 31.894 141.22 29.2736C140.155 27.9634 138.959 26.7817 137.63 25.7285C136.301 24.7077 134.807 23.9125 133.212 23.3111C131.617 22.7421 129.954 22.3997 128.255 22.3167C126.557 22.2337 124.856 22.378 123.153 22.7171C121.483 23.0566 119.844 23.5912 118.236 24.2235C116.693 24.8566 115.149 25.6195 113.701 26.5783Z" fill="black"/>
<path d="M113.799 26.5793L114.05 27.6211C114.05 27.6211 127.413 37.0501 129.938 42.3699C129.187 39.2446 127.969 36.9911 127.036 35.5524C126.265 34.3752 121.829 27.444 114.713 26.654C114.322 26.6173 114.028 26.5817 113.799 26.5793Z" fill="#864D22"/>
<path d="M113.043 27.0259C114.896 27.8898 116.65 28.9476 118.337 30.102C119.18 30.6955 119.991 31.2886 120.801 31.9142C121.223 32.2109 121.611 32.5722 121.999 32.9011C122.388 33.2299 122.777 33.5588 123.165 33.9201C124.686 35.3001 126.075 36.8086 127.366 38.381C128.656 39.9858 129.748 41.7184 130.644 43.5464C129.419 41.9422 128.162 40.3377 126.772 38.8617C126.611 38.6652 126.45 38.5011 126.256 38.3042L125.739 37.7467C125.383 37.3857 125.06 37.0251 124.672 36.6638L123.605 35.6133L122.504 34.595C122.149 34.234 121.76 33.9376 121.371 33.5763L120.788 33.0831L120.206 32.5898C119.461 31.9324 118.651 31.3068 117.873 30.6491C116.317 29.4636 114.696 28.2449 113.043 27.0259Z" fill="black"/>
<path d="M112.458 26.6949C113.9 26.3531 115.371 26.2713 116.874 26.2873C117.626 26.2952 118.344 26.3354 119.094 26.4407C119.454 26.477 119.845 26.5137 120.204 26.5824C120.563 26.6512 120.954 26.6878 121.313 26.789C122.78 27.0969 124.18 27.5988 125.513 28.23C126.846 28.8611 128.078 29.751 129.113 30.7686C127.814 30.0729 126.546 29.4099 125.212 28.9087C123.877 28.4399 122.509 28.0032 121.107 27.7285C120.748 27.6273 120.389 27.591 120.063 27.5226L119.542 27.4197C119.379 27.3855 119.182 27.3834 119.019 27.3492C118.302 27.2117 117.584 27.1391 116.866 27.0665C115.397 26.8561 113.928 26.7755 112.458 26.6949Z" fill="black"/>
<path d="M112.467 25.8508L106.242 24.3234C106.178 24.1603 105.856 23.7023 105.051 22.6222C104.277 21.6398 103.052 20.1006 101.116 17.742C99.0192 15.1869 96.3947 13.0808 93.831 11.3975C88.184 7.73307 82.6137 6.08275 82.6137 6.08275C90.7019 1.42777 100.305 1.85454 106.655 6.98767C112.325 11.594 113.397 18.2947 113.509 20.0818C113.825 24.1442 112.467 25.8508 112.467 25.8508Z" fill="#F3F7FC"/>
<path d="M112.467 25.8508L109.369 25.2334L106.174 24.5824L106.043 24.5486L105.979 24.418C105.915 24.3199 105.819 24.189 105.755 24.0584L105.464 23.6981C105.271 23.4363 105.077 23.207 104.884 22.9776L103.657 21.5358L101.204 18.6522C99.5911 16.7192 97.779 15.0438 95.736 13.5609C93.7254 12.1107 91.5497 10.8212 89.3069 9.69333C88.2019 9.12956 87.0308 8.63003 85.892 8.16332C84.7532 7.69661 83.5491 7.22921 82.3763 6.89202L80.6174 6.35378L82.1954 5.46133C83.9379 4.47321 85.7766 3.64848 87.7106 3.08453C89.6446 2.52058 91.6415 2.18461 93.668 2.1412C97.6886 2.02157 101.795 3.03937 105.203 5.21875C106.891 6.30826 108.412 7.68826 109.637 9.25993C109.96 9.65303 110.217 10.0779 110.507 10.4706C110.763 10.8955 111.053 11.3207 111.277 11.7452C111.758 12.6271 112.173 13.5407 112.523 14.4537C113.189 16.3117 113.659 18.2325 113.736 20.2141C113.758 21.1885 113.715 22.1947 113.509 23.1342C113.368 24.1069 113.064 25.0778 112.467 25.8508ZM112.467 25.8508C112.966 25.0118 113.173 24.0398 113.281 23.0993C113.389 22.1588 113.366 21.1844 113.278 20.2417C113.07 18.3561 112.501 16.4992 111.768 14.7704C111.002 13.0412 110.039 11.4074 108.78 9.96521C107.554 8.52341 106.129 7.3068 104.505 6.34785C102.914 5.38925 101.157 4.6562 99.3315 4.24713L98.6467 4.10997C98.4187 4.0426 98.1903 4.0077 97.962 3.9728C97.5052 3.903 97.0485 3.8332 96.5587 3.79553C96.1016 3.7582 95.6118 3.72052 95.1544 3.71566L93.7494 3.70073C91.886 3.77834 90.0201 4.08324 88.2168 4.64857C86.4139 5.18144 84.6742 5.90981 83.0305 6.83403L82.85 5.37087C85.3576 6.17685 87.6998 7.1759 90.0072 8.36942C92.282 9.56258 94.4897 10.9174 96.5312 12.5302C98.5731 14.1106 100.449 15.949 101.963 18.0108L104.283 21.0554L105.411 22.5935C105.604 22.8554 105.765 23.1168 105.958 23.3787L106.215 23.7711C106.312 23.902 106.376 24.0326 106.472 24.2284L106.277 24.064L112.467 25.8508Z" fill="black"/>
<path d="M113.443 23.1984C113.098 24.8833 112.501 25.7537 112.501 25.7537L112.37 25.7523C112.37 25.7523 112.337 25.7844 112.239 25.8159L109.859 25.2386L109.991 25.1101C114.411 21.2604 106.815 7.31408 106.687 7.05295C108.558 9.34588 111.46 13.0136 112.289 14.9058L112.289 14.9383C113.852 18.5268 113.822 21.3191 113.443 23.1984Z" fill="#864D22"/>
<path d="M105.569 23.1147L105.083 22.655C104.309 21.6726 103.084 20.1334 101.148 17.7748C99.0515 15.2197 96.427 13.1136 93.8633 11.4303L90.4859 9.44607C90.4859 9.44607 95.4634 8.45986 98.9456 12.8806C102.846 17.8903 105.569 23.1147 105.569 23.1147Z" fill="#864D22"/>
<path d="M113.443 23.1984C113.372 23.6848 113.302 24.1386 113.166 24.6243C113.099 24.8508 113.031 25.0774 112.93 25.3037C112.83 25.5299 112.73 25.7561 112.597 25.9496L112.563 26.0142L112.466 25.9806L112.205 25.9454C110.183 25.5342 108.194 25.1234 106.172 24.7123L106.009 24.6781L105.913 24.5147C105.881 24.4494 105.785 24.286 105.688 24.1876L105.398 23.8273L104.817 23.1068L103.591 21.665L101.138 18.7813C99.5574 16.8162 97.7122 15.173 95.702 13.6904C93.6917 12.2078 91.5483 10.9511 89.3055 9.8232C88.2005 9.25943 87.0624 8.72778 85.891 8.26072C84.7522 7.79401 83.5481 7.32661 82.3753 6.98942L80.5837 6.45083L82.1948 5.52626C85.4498 3.645 89.1548 2.4829 92.9477 2.26343C94.8442 2.1537 96.7383 2.27124 98.5969 2.64819C100.456 3.02513 102.246 3.66113 103.903 4.58796C104.098 4.68744 104.325 4.78728 104.52 4.91924L105.104 5.31511L105.688 5.71098L106.239 6.13897C107.017 6.69927 107.697 7.32346 108.343 8.01224C109.636 9.3898 110.698 10.9273 111.53 12.5922C111.945 13.4409 112.296 14.2889 112.581 15.1687C112.865 16.0484 113.117 16.9279 113.271 17.8387C113.425 18.7496 113.546 19.6601 113.569 20.5695C113.691 21.3826 113.616 22.2911 113.443 23.1984ZM113.443 23.1984C113.551 22.2904 113.528 21.3809 113.439 20.5032C113.351 19.593 113.164 18.7143 112.944 17.8677C112.692 16.9883 112.44 16.1413 112.089 15.3258C111.738 14.5103 111.355 13.6944 110.905 12.9103C110.04 11.3424 108.944 9.93448 107.649 8.71925C107.003 8.09541 106.322 7.53616 105.609 7.04149L105.057 6.64597L104.473 6.31503L103.888 5.9841C103.693 5.88461 103.498 5.78512 103.303 5.68563C101.71 4.92184 100.049 4.35217 98.321 4.00908C96.5924 3.69847 94.796 3.61443 93.0626 3.75837C91.2968 3.8695 89.5616 4.17578 87.889 4.7425C86.2168 5.27675 84.5751 6.00617 83.0301 6.8665L82.8496 5.40333C84.1198 5.8065 85.3239 6.2739 86.495 6.77343C87.6987 7.2733 88.8695 7.8053 90.0069 8.40188C92.2816 9.59505 94.4893 10.9499 96.5309 12.5627C98.5728 14.1431 100.449 15.9814 101.995 18.0436L104.316 21.0557L105.476 22.5617C105.67 22.8236 105.863 23.0854 106.024 23.3469L106.281 23.7393C106.377 23.8702 106.441 24.0008 106.537 24.2291L106.278 24.0315C108.265 24.5722 110.22 25.1125 112.175 25.6853L112.436 25.753L112.304 25.8166C112.437 25.6556 112.57 25.4297 112.67 25.236C112.77 25.0422 112.87 24.8159 112.971 24.5897C113.205 24.1051 113.34 23.6519 113.443 23.1984Z" fill="black"/>
<path d="M43.0944 7.18896C46.3158 5.40475 50.5966 2.33292 57.7247 1.92159C65.3763 1.45088 70.5295 2.38239 75.3518 3.70005C80.1418 4.98489 89.7159 8.10654 98.0689 15.4366C102.116 18.9866 104.67 21.6115 106.373 24.2598C104.527 22.7465 101.999 20.8038 98.8175 18.7892C97.9735 18.2606 89.9885 13.2075 80.1867 9.98607C63.8398 4.58434 48.7543 6.56719 43.0944 7.18896Z" fill="#864D22"/>
<path d="M83.3958 6.28576C79.1657 4.58473 74.7345 3.36864 70.2643 2.73664C65.7942 2.10464 61.2525 2.05638 56.8339 2.72381C54.6082 3.05735 52.4459 3.5864 50.3148 4.24566C49.7903 4.40245 49.2651 4.62417 48.7406 4.78096C48.2157 4.97021 47.6905 5.19194 47.1984 5.38154C46.148 5.82499 45.1302 6.26878 44.1445 6.77786C40.1372 8.71607 36.4824 11.3075 33.4746 14.5227C31.9543 16.1302 30.6287 17.8696 29.4975 19.7734C28.3338 21.6444 27.4303 23.6481 26.6893 25.7184C25.9484 27.7888 25.4679 29.9593 25.1507 32.1316C25.0083 33.2341 24.8985 34.337 24.8541 35.4406C24.8097 36.5441 24.798 37.6481 24.8189 38.7523C24.8457 39.3046 24.8722 39.8894 24.8993 40.4093C24.9588 40.9619 24.9856 41.5142 25.0451 42.0669C25.1046 42.6195 25.1641 43.1722 25.2889 43.7256L25.411 44.5387L25.5657 45.3521C26 47.5324 26.6307 49.6822 27.4582 51.7692C27.8719 52.8127 28.3187 53.8241 28.8307 54.8362C29.3432 55.8158 29.921 56.7961 30.5318 57.7443C31.7534 59.6406 33.2051 61.4096 34.7888 63.05C33.0396 61.6026 31.4235 59.9294 30.0048 58.1283C28.5862 56.3273 27.3656 54.3335 26.4074 52.2451C25.4493 50.1567 24.6556 47.9727 24.0912 45.7261C23.4942 43.4792 23.192 41.1704 23.0204 38.8631C22.677 34.2809 23.1848 29.5454 24.6374 25.0797C25.3801 22.847 26.3507 20.6817 27.5811 18.6815C28.7791 16.6485 30.2044 14.7477 31.7911 13.0436C35.0297 9.63596 38.9476 6.88499 43.2166 4.91709C44.2677 4.40871 45.3508 3.96561 46.4335 3.55498C46.991 3.36607 47.5162 3.14434 48.0738 2.95544C48.6313 2.76653 49.1888 2.57762 49.746 2.42118C51.9751 1.76296 54.3001 1.30058 56.6231 1.03302C58.9461 0.765456 61.267 0.692704 63.5858 0.814762C65.9046 0.93682 68.2214 1.25369 70.4714 1.69974C74.9711 2.6243 79.3666 4.13226 83.3958 6.28576Z" fill="black"/>
</g>
<defs>
<radialGradient id="paint0_radial_1011_1752" cx="0" cy="0" r="1" gradientUnits="userSpaceOnUse" gradientTransform="translate(44.4417 113.342) rotate(0.608853) scale(42.4051 42.1382)">
<stop stop-color="#F97400"/>
<stop offset="0.1375" stop-color="#F97400" stop-opacity="0.8625"/>
<stop offset="1" stop-color="#F97400" stop-opacity="0"/>
</radialGradient>
<radialGradient id="paint1_radial_1011_1752" cx="0" cy="0" r="1" gradientUnits="userSpaceOnUse" gradientTransform="translate(129.263 53.9054) rotate(0.608853) scale(42.4051 42.1382)">
<stop stop-color="#F97400"/>
<stop offset="0.1375" stop-color="#F97400" stop-opacity="0.8625"/>
<stop offset="1" stop-color="#F97400" stop-opacity="0"/>
</radialGradient>
<radialGradient id="paint2_radial_1011_1752" cx="0" cy="0" r="1" gradientUnits="userSpaceOnUse" gradientTransform="translate(63.3211 69.9289) rotate(66.8483) scale(2.44716 2.45764)">
<stop stop-color="white"/>
<stop offset="1" stop-color="white" stop-opacity="0"/>
</radialGradient>
<clipPath id="clip0_1011_1752">
<rect width="169" height="232" fill="white" transform="translate(3.23743 0.108627) rotate(0.608853)"/>
</clipPath>
</defs>
</svg>
