<svg width="16" height="16" viewBox="0 0 16 16" fill="none" xmlns="http://www.w3.org/2000/svg">
<path d="M11.6268 1.57812C12.3592 0.816406 13.5604 0.816406 14.2928 1.54883L14.6444 1.90039C15.3768 2.63281 15.3768 3.83398 14.6444 4.56641L8.99005 10.1914C8.75568 10.4551 8.40412 10.6309 8.05255 10.7188L5.56232 11.2461C5.38654 11.2754 5.24005 11.2168 5.12287 11.0996C5.00568 10.9824 4.97638 10.8359 5.00568 10.6895L5.53302 8.16992C5.59162 7.81836 5.7674 7.49609 6.03107 7.23242L11.6268 1.57812ZM13.619 2.22266C13.2674 1.8418 12.6522 1.8418 12.3006 2.22266L11.5096 3.01367L13.2088 4.68359L13.9705 3.89258C14.3514 3.54102 14.3514 2.92578 13.9705 2.57422L13.619 2.22266ZM6.44123 8.375L6.06037 10.1621L7.87677 9.78125C8.05255 9.75195 8.19904 9.66406 8.34552 9.54688L12.535 5.32812L10.8651 3.6875L6.7049 7.90625C6.55841 8.02344 6.47052 8.19922 6.44123 8.375ZM9.13654 2.42773C8.69708 2.33984 8.25763 2.28125 7.81818 2.28125C4.44904 2.28125 1.72443 5.03516 1.72443 8.375C1.72443 11.7441 4.44904 14.4688 7.81818 14.4688C8.05255 14.4688 8.28693 14.7031 8.28693 14.9375C8.28693 15.2012 8.05255 15.4062 7.81818 15.4062C3.92169 15.4062 0.786928 12.2715 0.786928 8.375C0.786928 4.50781 3.92169 1.34375 7.81818 1.34375C8.5213 1.34375 9.22443 1.46094 9.86896 1.66602L9.13654 2.42773ZM14.8494 8.375C14.8494 10.7188 12.9451 12.5938 10.6307 12.5938C10.2498 12.5938 9.89826 12.5645 9.57599 12.4766C9.31232 12.418 9.16583 12.1543 9.22443 11.8906C9.28302 11.6562 9.54669 11.5098 9.78107 11.5684C10.0447 11.627 10.3377 11.6562 10.6307 11.6562C12.4178 11.6562 13.9119 10.1914 13.9119 8.375C13.9119 7.93555 13.8533 7.52539 13.7654 7.08594L14.5272 6.32422C14.7322 6.96875 14.8494 7.67188 14.8494 8.375Z" fill="black"/>
</svg>
